<?xml version="1.0" encoding="UTF-8"?><svg id="Ebene_2" xmlns="http://www.w3.org/2000/svg" xmlns:xlink="http://www.w3.org/1999/xlink" viewBox="0 0 67.07 61.74"><defs><style>.cls-1{fill:none;}.cls-2{clip-path:url(#clippath);}.cls-3{fill:#00358e;}.cls-4{fill:#2a7de1;}.cls-5{clip-path:url(#clippath-1);}.cls-6{clip-path:url(#clippath-3);}.cls-7{clip-path:url(#clippath-2);}</style><clipPath id="clippath"><rect class="cls-1" width="67.07" height="61.74"/></clipPath><clipPath id="clippath-1"><path class="cls-1" d="M40.13,52.2l-8.42-12.07,20.77-14.31,8.42,12.07c3.93,5.61,2.53,13.47-3.09,17.4-2.16,1.51-4.64,2.23-7.12,2.23-3.98,0-7.96-1.86-10.56-5.32m-14.31-20.77c-1.4-1.96-.84-4.49,.84-5.89l5.33-3.65,5.89,8.7-8.42,5.89-3.65-5.05Zm9.82-12.07c-.28,0,5.05-3.37,5.05-3.37,1.96-1.4,4.49-.84,5.89,1.12l3.65,5.05-8.7,5.89-5.89-8.7Zm2.53-7.01l-13.75,9.82c-3.93,2.53-4.77,7.86-2.25,11.51l14.31,20.77c3.37,4.77,8.42,7.3,13.75,7.3,9.26,0,16.84-7.3,16.84-16.84,0-3.37-.84-6.74-3.09-9.54l-14.31-20.77c-1.39-2.43-3.96-3.68-6.65-3.68-1.66,0-3.36,.47-4.85,1.44"/></clipPath><clipPath id="clippath-2"><rect class="cls-1" width="67.07" height="61.74"/></clipPath><clipPath id="clippath-3"><path class="cls-1" d="M16.56,0c-6.17,0-10.1,6.17-7.58,12.91,1.4,3.37,3.65,5.61,2.81,9.82-.56,3.37-5.05,5.89-9.54,2.81l-2.24,3.37c7.02,4.49,14.59,.56,15.72-5.61,1.12-4.77-1.4-8.14-2.81-11.79-2.81-6.45,4.49-10.38,8.42-4.49l5.89,8.14,3.37-2.25-5.89-8.42C22.45,1.4,19.36,0,16.56,0Z"/></clipPath></defs><g id="Ebene_1-2"><g class="cls-2"><path class="cls-4" d="M57.81,55.28c-5.61,3.93-13.47,2.53-17.68-3.09l-8.42-12.07,20.77-14.31,8.42,12.07c3.93,5.61,2.53,13.47-3.09,17.4m-7.58-33.11l-8.7,5.89-5.89-8.7c-.28,0,5.05-3.37,5.05-3.37,1.97-1.4,4.49-.84,5.89,1.12l3.65,5.05Zm-18.24-.28l5.89,8.7-8.42,5.89-3.65-5.05c-1.4-1.97-.84-4.49,.84-5.89l5.33-3.65Zm35.08,23.01c0-3.37-.84-6.73-3.09-9.54l-14.31-20.77c-2.24-3.93-7.58-4.77-11.51-2.25l-13.75,9.82c-3.93,2.53-4.77,7.86-2.25,11.51l14.31,20.77c3.37,4.77,8.42,7.3,13.75,7.3,9.26,0,16.84-7.3,16.84-16.84"/></g><g class="cls-5"><path class="cls-3" d="M33.54,12.4L9.49,33.68l-23.52-7.31S-2.14-7.45,0-7.45s11.69-2.21,13.9,0c2.21,2.21,19.64,19.85,19.64,19.85"/></g><g class="cls-7"><path class="cls-4" d="M27.22,15.15l3.37-2.24-5.89-8.42C22.45,1.4,19.36,0,16.56,0,10.38,0,6.45,6.17,8.98,12.91c1.4,3.37,3.65,5.61,2.81,9.82-.56,3.37-5.05,5.89-9.54,2.81L0,28.9c7.02,4.49,14.59,.56,15.72-5.61,1.12-4.77-1.4-8.14-2.81-11.79-2.81-6.45,4.49-10.38,8.42-4.49l5.89,8.14Z"/></g><g class="cls-6"><path class="cls-3" d="M33.54,12.4L9.49,33.68l-23.52-7.31S-2.14-7.45,0-7.45s11.69-2.21,13.9,0c2.21,2.21,19.64,19.85,19.64,19.85"/></g></g></svg>