<?xml version="1.0" encoding="UTF-8"?><svg id="Ebene_2" xmlns="http://www.w3.org/2000/svg" xmlns:xlink="http://www.w3.org/1999/xlink" viewBox="0 0 65.76 67.21"><defs><style>.cls-1{fill:none;}.cls-2{clip-path:url(#clippath);}.cls-3{fill:#00358e;}.cls-4{fill:#2a7de1;}</style><clipPath id="clippath"><rect class="cls-1" width="65.76" height="67.21"/></clipPath></defs><g id="Ebene_1-2"><g class="cls-2"><path class="cls-4" d="M8.97,51.4l.86,1.83c4.58,8.48,13.38,13.82,23.01,13.98,9.55-.24,18.24-5.57,22.78-13.98l.49-1.14-4.65-.14-.99,1.6c-3.76,6.09-10.48,9.73-17.63,9.55-8.3,.04-15.93-4.59-19.73-11.97-.22-.32-3.27-4.54-4.14-5.48v5.75ZM56.29,30.73c-1.35-10.67-9.06-21.43-23.44-21.43-12.31-.38-23.16,9.4-23.89,21.7v5.51c1.75,.49,3.37-.79,3.49-1.77v-2.1l.63-.14c5.14-1.82,9.59-5.2,12.72-9.67l1.52,.35c-.45,3.31-1.8,6.44-3.91,9.03,6.9-1.64,12.97-5.73,17.09-11.51l1.35-2.1,.14,2.5c.93,5.08,4.99,9.01,10.1,9.78h.49s.4,2.39,.35,3.37c.02,.44,.23,.85,.57,1.12,.4,.32,.9,.49,1.41,.49h1.38v-5.12Z"/><path class="cls-3" d="M65.76,44.12v-8.42C65.76,16,51.03,0,32.9,0S0,16,0,35.7v8.42c-.11,2.01,.66,3.96,2.1,5.36,1.36,1.49,3.29,2.3,5.3,2.24h1.58V30.87H4.44l.17-.93C6.97,14.93,19.01,4.01,32.9,4.01s26.04,10.92,28.71,25.93l.14,.93-5.46,.13-.3,11.57c-4.72,6.76-11.59,7.63-17.2,7.63h-.45l-.23-.36c-1.24-1.61-3.19-2.52-5.22-2.44-3.12,0-5.61,1.88-5.61,4.26s2.44,4.24,5.61,4.24c2.03,.08,3.98-.83,5.22-2.44l.23-.34h.39c3.55-.12,7.07-.77,10.44-1.91l2.49,.78c6,1.29,10.49-1.08,11.85-2.61,1.48-1.35,2.3-3.27,2.25-5.28"/><path class="cls-4" d="M24.46,43c1.52,0,2.75-1.57,2.75-3.5s-1.23-3.5-2.75-3.5-2.75,1.57-2.75,3.5,1.23,3.5,2.75,3.5"/><path class="cls-4" d="M41.46,43c1.52,0,2.75-1.57,2.75-3.5s-1.23-3.5-2.75-3.5-2.75,1.57-2.75,3.5,1.23,3.5,2.75,3.5"/></g></g></svg>