<?xml version="1.0" encoding="UTF-8"?><svg id="Ebene_2" xmlns="http://www.w3.org/2000/svg" xmlns:xlink="http://www.w3.org/1999/xlink" viewBox="0 0 100.81 101.69"><defs><style>.cls-1{fill:none;}.cls-2{clip-path:url(#clippath);}.cls-3{fill:#00358e;}.cls-4{fill:#fff;}.cls-5{fill:#2a7de1;}</style><clipPath id="clippath"><rect class="cls-1" width="100.81" height="101.69"/></clipPath></defs><g id="Ebene_1-2"><g class="cls-2"><path class="cls-4" d="M50.4,101.69c27.84,0,50.4-22.76,50.4-50.84S78.24,0,50.4,0,0,22.76,0,50.84s22.57,50.84,50.4,50.84"/><path class="cls-5" d="M64.68,46.58c3.19,3.44,5.16,8.02,5.16,13.06h11.89c0-9.38-4.2-17.76-10.81-23.46l-6.24,10.4Zm-.91-15.03c-4.06-1.91-8.58-3.01-13.37-3.01-17.3,0-31.33,13.93-31.33,31.1h11.89c0-10.66,8.7-19.3,19.44-19.3,1.41,0,2.79,.16,4.12,.44l9.25-9.24Z"/><path class="cls-3" d="M67.98,34.2l-.72-.56-.33-.25-14.24,14.23c-2.98-.93-6.34,0-8.37,2.6-2.62,3.36-2.03,8.21,1.33,10.83,3.36,2.62,8.21,2.03,10.83-1.33,1.83-2.34,2.06-5.38,.93-7.91l10.57-17.61Z"/></g></g></svg>