<?xml version="1.0" encoding="UTF-8"?><svg id="Ebene_2" xmlns="http://www.w3.org/2000/svg" xmlns:xlink="http://www.w3.org/1999/xlink" viewBox="0 0 75.29 41.78"><defs><style>.cls-1{fill:none;}.cls-2{clip-path:url(#clippath);}.cls-3{fill:#00358e;}.cls-4{fill:#2a7de1;}</style><clipPath id="clippath"><rect class="cls-1" width="75.29" height="41.78"/></clipPath></defs><g id="Ebene_1-2"><g class="cls-2"><path class="cls-4" d="M0,36.49c.34-1.14,1.1-1.95,2.07-2.57,2.71-1.74,5.43-3.49,8.18-5.17,.53-.33,.76-.63,.74-1.25-.04-1.76,0-3.53-.02-5.29,0-.26-.1-.61-.28-.77-.75-.67-1.08-1.52-1.08-2.48,0-2.45-.02-4.9,.1-7.34,.14-2.67,2.57-5.02,5.27-5.28,1.72-.16,3.43-.21,5.01,.66,2.09,1.15,3.16,2.96,3.22,5.32,.06,2.25,.02,4.51,.01,6.76,0,.9-.35,1.65-.99,2.3-.19,.2-.33,.54-.33,.82-.03,1.81-.03,3.63,0,5.44,0,.47-.12,.76-.51,1.03-1.02,.72-2.01,1.48-3.01,2.24-1.89,1.43-2.84,3.31-2.81,5.69,.02,1.69,0,3.38,0,5.21H0v-5.29Z"/><path class="cls-3" d="M56.89,41.72H18.4c-.02-.22-.05-.41-.05-.6,0-1.52,.01-3.04,0-4.56-.02-1.45,.57-2.57,1.7-3.48,3.25-2.58,6.73-4.8,10.42-6.69,.59-.3,.8-.65,.78-1.3-.04-2.13,0-4.26-.03-6.39,0-.32-.18-.7-.4-.93-.66-.68-1.13-1.43-1.13-2.39-.01-2.99-.1-5.98,.03-8.96,.14-3.24,3.07-6.05,6.48-6.33,2.06-.17,4.12-.16,5.97,1.02,2,1.28,3.27,3.09,3.38,5.46,.14,2.86,.05,5.73,.05,8.6,0,1.06-.44,1.92-1.2,2.66-.21,.2-.35,.58-.36,.88-.03,2.18,0,4.36-.03,6.54,0,.58,.21,.87,.71,1.12,3.66,1.89,7.13,4.09,10.38,6.63,1.26,.98,1.89,2.19,1.83,3.79-.05,1.39,0,2.79-.01,4.19,0,.24-.02,.48-.04,.75"/><path class="cls-4" d="M75.27,41.73h-15.57c0-1.5-.07-2.97,.02-4.43,.17-2.93-.94-5.18-3.35-6.83-.75-.51-1.43-1.12-2.19-1.61-.59-.38-.85-.81-.82-1.54,.07-1.69,.04-3.38,0-5.07,0-.32-.17-.7-.39-.94-.59-.65-.93-1.38-.93-2.25,0-2.25-.05-4.51,.01-6.76,.09-3.5,2.64-5.94,6.27-6.05,1.48-.04,2.94,.04,4.26,.83,1.75,1.05,2.88,2.56,2.98,4.61,.12,2.56,.06,5.14,.04,7.71,0,.79-.4,1.43-.98,1.99-.18,.18-.32,.49-.32,.75-.03,1.86,0,3.72-.03,5.59,0,.5,.21,.74,.62,.95,3.08,1.58,5.98,3.44,8.72,5.55,1.14,.88,1.71,1.96,1.66,3.4-.05,1.34,0,2.69,0,4.1"/></g></g></svg>