<?xml version="1.0" encoding="UTF-8"?><svg id="Ebene_2" xmlns="http://www.w3.org/2000/svg" xmlns:xlink="http://www.w3.org/1999/xlink" viewBox="0 0 100.81 101.69"><defs><style>.cls-1{fill:none;}.cls-2{clip-path:url(#clippath);}.cls-3{fill:#00358e;}.cls-4{fill:#fff;}.cls-5{fill:#2a7de1;}</style><clipPath id="clippath"><rect class="cls-1" width="100.81" height="101.69"/></clipPath></defs><g id="Ebene_1-2"><g class="cls-2"><path class="cls-4" d="M50.4,101.69c27.84,0,50.4-22.76,50.4-50.84S78.24,0,50.4,0,0,22.76,0,50.84s22.57,50.84,50.4,50.84"/><path class="cls-3" d="M41.63,47.84v2.43h1.21c.2,3.42,.78,13.65,.94,17.28,.07,1.5,1.37,2.67,2.95,2.67s2.82-1.11,2.94-2.58c0,0,.63-6.85,.79-7.93,.08,1.11,.71,7.92,.71,7.92,.12,1.47,1.39,2.58,2.94,2.58s2.88-1.17,2.95-2.67c.17-3.63,.75-13.86,.95-17.28h1.33v-2.43c-.73,0-.78,0-2.49,.02-.63,0-1.16,.51-1.2,1.14,0,0-.81,14.05-1.01,18.44-.04,.64-.98,.62-1.06,0,0,0-.62-6.8-.7-7.89-.1-1.42-1.33-2.27-2.47-2.27s-2.35,.85-2.45,2.26c-.08,1.06-.71,7.9-.71,7.9-.02,.65-1,.71-1.06,0-.33-4.38-1.01-18.44-1.01-18.44-.04-.63-.56-1.13-1.19-1.14-1.61-.02-1.75-.02-2.37-.02m17.71-4.41h-17.71v2.43h17.71v-2.43Zm-5.9-6.52c0,1.66-1.35,3.02-3.02,3.02s-3.02-1.35-3.02-3.02,1.35-3.02,3.02-3.02,3.02,1.35,3.02,3.02m2.42,0c0-3-2.44-5.44-5.44-5.44s-5.44,2.44-5.44,5.44,2.44,5.44,5.44,5.44,5.44-2.44,5.44-5.44"/><path class="cls-5" d="M41.72,43.43h-14.58c-1.46,0-2.73,.89-3.14,2.21l-2.57,8.24-.1,.65c0,.96,.63,1.83,1.58,2.16,1.07,.38,2.34-.06,2.91-1l.59-.97,.58,12.83c.07,1.5,1.37,2.67,2.95,2.67s2.81-1.11,2.94-2.58c0,0,.62-6.86,.79-7.93,.08,1.07,.71,7.93,.71,7.93,.13,1.47,1.39,2.58,2.94,2.58s2.88-1.17,2.95-2.67c.16-3.63,.75-13.85,.94-17.28h.5v-2.43c-.32,0-.76,0-1.66,.02-.63,0-1.15,.51-1.19,1.14,0,0-.81,14.05-1.01,18.44,0,.65-.99,.64-1.06,0,0,0-.62-6.83-.7-7.9-.1-1.41-1.33-2.26-2.45-2.26-1.31,0-2.37,.98-2.46,2.26-.08,1.06-.7,7.9-.7,7.9-.06,.6-1.03,.6-1.06,0l-.76-16.8c-.05-1.17-1.61-1.62-2.24-.57l-2.66,4.54,2.57-8.24c.09-.3,.44-.51,.83-.51h14.58v-2.42Zm-4.64-6.52c0,1.66-1.35,3.02-3.02,3.02s-3.02-1.35-3.02-3.02,1.35-3.02,3.02-3.02,3.02,1.35,3.02,3.02m2.42,0c0-3-2.44-5.44-5.44-5.44s-5.44,2.44-5.44,5.44,2.44,5.44,5.44,5.44,5.44-2.44,5.44-5.44m30.25,0c0,1.66-1.35,3.02-3.02,3.02s-3.02-1.35-3.02-3.02,1.35-3.02,3.02-3.02,3.02,1.35,3.02,3.02m2.42,0c0-3-2.44-5.44-5.44-5.44s-5.44,2.44-5.44,5.44,2.44,5.44,5.44,5.44,5.44-2.44,5.44-5.44m7.29,17.62l-.1-.65-2.56-8.23c-.41-1.31-1.7-2.21-3.15-2.21h-14.58v2.42h14.58c.39,0,.74,.21,.83,.51l2.56,8.06-2.66-4.37c-.62-1.03-2.19-.61-2.24,.57l-.76,16.8c-.03,.6-1,.63-1.06,0,0,0-.62-6.83-.7-7.9-.1-1.29-1.16-2.26-2.47-2.26-1.13,0-2.35,.85-2.45,2.26-.08,1.1-.71,7.9-.71,7.9-.05,.56-1.02,.58-1.06,0-.2-4.39-1.01-18.44-1.01-18.44-.04-.63-.56-1.13-1.2-1.14-.91-.01-1.34-.02-1.66-.02v2.43h.5c.2,3.42,.78,13.65,.95,17.28,.07,1.5,1.36,2.67,2.95,2.67s2.82-1.11,2.94-2.58c0,0,.63-6.82,.79-7.93,.08,1.07,.71,7.93,.71,7.93,.12,1.47,1.39,2.58,2.94,2.58s2.88-1.17,2.95-2.67l.58-12.83,.59,.97c.57,.95,1.9,1.36,2.91,1,.94-.33,1.58-1.19,1.58-2.16"/></g></g></svg>