<?xml version="1.0" encoding="UTF-8"?><svg id="Ebene_2" xmlns="http://www.w3.org/2000/svg" xmlns:xlink="http://www.w3.org/1999/xlink" viewBox="0 0 517.28 500.15"><defs><style>.cls-1{stroke-width:.69px;}.cls-1,.cls-2,.cls-3{fill:none;}.cls-1,.cls-3{stroke:#fff;}.cls-4{clip-path:url(#clippath);}.cls-5{fill:#a4c8f0;}.cls-6{fill:#bd4830;}.cls-7{fill:#2a7de1;}.cls-8{clip-path:url(#clippath-2);}.cls-3{stroke-miterlimit:10;stroke-width:.59px;}</style><clipPath id="clippath"><rect class="cls-2" width="517.28" height="500.15"/></clipPath><clipPath id="clippath-2"><rect class="cls-2" width="517.28" height="500.15"/></clipPath></defs><g id="Ebene_1-2"><polyline class="cls-5" points="266.55 353.5 266.55 361.08 274.12 361.08"/><polyline class="cls-1" points="266.55 353.5 266.55 361.08 274.12 361.08"/><g class="cls-4"><path class="cls-5" d="M292.45,149.9c-4.95,.73-1.7-2.11-2.58-4.3-2.31-.92-5.8-.33-6.94-2.96,.29-6.9-3.95-4.69,2.9-10.66,2.11,3.31,2.23,4.95,6.3,4.57,.82-1.53-1.03-2.41-2.07-3.07-3.21-4.07,4.8-5.17,7.62-4.99,1.58,3.63,1.96,9.58-2.86,10.57-.13,2.25,5.77,3.62,1.68,6.02-3.31,.38-2.55,2.82-4.07,4.83"/><path class="cls-3" d="M292.45,149.9c-4.95,.73-1.7-2.11-2.58-4.3-2.31-.92-5.8-.33-6.94-2.96,.29-6.9-3.95-4.69,2.9-10.66,2.11,3.31,2.23,4.95,6.3,4.57,.82-1.53-1.03-2.41-2.07-3.07-3.21-4.07,4.8-5.17,7.62-4.99,1.58,3.63,1.96,9.58-2.86,10.57-.13,2.25,5.77,3.62,1.68,6.02-3.31,.38-2.55,2.82-4.07,4.83Z"/><path class="cls-5" d="M293.56,153.08c-1.75,1.92-1.05,7.73-2.7,2.28-1.85,3.61-9.15,2.26-10.89-.91,2.62-.24-.62-3.88,3.22-4.13,1.35,2.74,3.29,4.18,6.04,3.21,.42-2.92,2.29-1.62,3.85-2.51"/><path class="cls-3" d="M293.56,153.08c-1.75,1.92-1.05,7.73-2.7,2.28-1.85,3.61-9.15,2.26-10.89-.91,2.62-.24-.62-3.88,3.22-4.13,1.35,2.74,3.29,4.18,6.04,3.21,.42-2.92,2.29-1.62,3.85-2.51"/><path class="cls-5" d="M251.6,117.28c2.86,2.28-1.78,5.23-3.11,2.01-4.12-.84-8.76,.05-3,3.54,.01,2.33,.35,3.4-1.89,1.32-3.83,1.66,2.75,5.46,1.34,8.44,3.63,2.22-.91,2.36-2.33,3.54-1.72,2.8-1.96,7.46,2.44,4.22,5.08,2.77,3.08,6.76,3.37,10.45,4.4-1.9,12.45,5.25,14.03-.36-5.56-4.04-1.77-2.66-1.11-7.65-1.48-.27-1.57-1.39-1.34-2.66,0,0,5.66-2.89,5.66-2.89-2.36-.93,.23-2.24,.89-3.32,4.71,2.69,5.12-4.18,2.78-6.99,3.13-4.22,5-.23,8.21-.44,2.85-1.97,.93-8.35-2.11-5.54-4.28,1.29-4.99-3.74-8.1-4.56,2.41-2.12,1.21-5.4-1.55-6.42-10.81,1.81-11.72-.87-5.77,9.32,.19,1.74-1.76,.02-2.44,0-5.82,1.74,.38-2.78-2.88-5.22"/><path class="cls-3" d="M251.6,117.28c2.86,2.28-1.78,5.23-3.11,2.01-4.12-.84-8.76,.05-3,3.54,.01,2.33,.35,3.4-1.89,1.32-3.83,1.66,2.75,5.46,1.34,8.44,3.63,2.22-.91,2.36-2.33,3.54-1.72,2.8-1.96,7.46,2.44,4.22,5.08,2.77,3.08,6.76,3.37,10.45,4.4-1.9,12.45,5.25,14.03-.36-5.56-4.04-1.77-2.66-1.11-7.65-1.48-.27-1.57-1.39-1.34-2.66,0,0,5.66-2.89,5.66-2.89-2.36-.93,.23-2.24,.89-3.32,4.71,2.69,5.12-4.18,2.78-6.99,3.13-4.22,5-.23,8.21-.44,2.85-1.97,.93-8.35-2.11-5.54-4.28,1.29-4.99-3.74-8.1-4.56,2.41-2.12,1.21-5.4-1.55-6.42-10.81,1.81-11.72-.87-5.77,9.32,.19,1.74-1.76,.02-2.44,0-5.82,1.74,.38-2.78-2.88-5.22"/><path class="cls-5" d="M489.38,95.45c12.42-20.11-13.59-14.65,3.63-43.9,.87-2.26-10.69-.68-13.55-1.37-4.12-3.38-11.14-4.41-15.96-3.98-1.35-.33-3.49-5.04-3.22-.67-2.99-.96-1.91,1.23-.23,2.33-1.06,.73-2.88,2.44-3.99,.89-1.21-.11-5.93,.34-6.19-1.55,.29,5.15-7.1,.36-6.77,5.86-8.22-2.03-8.87,8-8.09,13.64,1.74,.65,3.66-.87,5.54-.21-3.95,3.8-4.75,4.54-.76,9.87,6.14,6.54,3.8,2.32,8.64-1.34,2.33,2.3-.94,8.71-.46,11.41,8.84-4.75,6.76-4.18,15.19-1.53,.88-6.25,2.85,2.31,5.71,1.26,4.46,2.5,7.68,7.07,10.98,10.78,2.33-1.43,6.9-2.52,9.54-1.49"/><path class="cls-3" d="M489.38,95.45c12.42-20.11-13.59-14.65,3.63-43.9,.87-2.26-10.69-.68-13.55-1.37-4.12-3.38-11.14-4.41-15.96-3.98-1.35-.33-3.49-5.04-3.22-.67-2.99-.96-1.91,1.23-.23,2.33-1.06,.73-2.88,2.44-3.99,.89-1.21-.11-5.93,.34-6.19-1.55,.29,5.15-7.1,.36-6.77,5.86-8.22-2.03-8.87,8-8.09,13.64,1.74,.65,3.66-.87,5.54-.21-3.95,3.8-4.75,4.54-.76,9.87,6.14,6.54,3.8,2.32,8.64-1.34,2.33,2.3-.94,8.71-.46,11.41,8.84-4.75,6.76-4.18,15.19-1.53,.88-6.25,2.85,2.31,5.71,1.26,4.46,2.5,7.68,7.07,10.98,10.78,2.33-1.43,6.9-2.52,9.54-1.49Z"/><path class="cls-5" d="M498.33,121.94c-.5,3.44-4.76,4.12-4.25,8.03-3.66-.84-9.79,4.2-12.23,1.73-3.42,.83-6.11-2.09-7.61-4.77-4.54,.18-6.49-6.42-11.51-5.59-5.43-4.58-7.14,.8-11.31,0-4.1,1.47-6-2.96-9.49-2.75-.07-2.31-2.07-1.59-3.6-1.38-6.37,3.8-21.64-4.33-25.21,8.67-4.51,2.85-5.07-5.57-5.94-8.4,2.95-1.52,1.6-4.98,2.22-7.64,6.03-4.95,2.53-10.48,6.88-15.54,4.45,.01,8.61-3.6,12.29-5.21-1.43,3.84,4.93,9.3,7.11,11.65-.37,2.11,2.51,4.68,3.89,5.88,7.81,.8,11.18-10.42,8.41-16.52-1.35-4.93,5.8-6.67,9.58-7.74,1.15,.93,3.98,3.43,5.6,2.54,.87-6.2,2.85,2.28,5.71,1.26,20.06,16.87,1.49,7.52,23.45,9.72-.49,3.6,2.36,5.85,1.47,9.4,1.19,4.37,11.04,14.94,4.54,16.66"/><path class="cls-3" d="M498.33,121.94c-.5,3.44-4.76,4.12-4.25,8.03-3.66-.84-9.79,4.2-12.23,1.73-3.42,.83-6.11-2.09-7.61-4.77-4.54,.18-6.49-6.42-11.51-5.59-5.43-4.58-7.14,.8-11.31,0-4.1,1.47-6-2.96-9.49-2.75-.07-2.31-2.07-1.59-3.6-1.38-6.37,3.8-21.64-4.33-25.21,8.67-4.51,2.85-5.07-5.57-5.94-8.4,2.95-1.52,1.6-4.98,2.22-7.64,6.03-4.95,2.53-10.48,6.88-15.54,4.45,.01,8.61-3.6,12.29-5.21-1.43,3.84,4.93,9.3,7.11,11.65-.37,2.11,2.51,4.68,3.89,5.88,7.81,.8,11.18-10.42,8.41-16.52-1.35-4.93,5.8-6.67,9.58-7.74,1.15,.93,3.98,3.43,5.6,2.54,.87-6.2,2.85,2.28,5.71,1.26,20.06,16.87,1.49,7.52,23.45,9.72-.49,3.6,2.36,5.85,1.47,9.4,1.19,4.37,11.04,14.94,4.54,16.66Z"/><path class="cls-5" d="M434.15,155.64c-1.58-3.28,2.15-7.34-.27-9.05-4.5-2.64-1.16-6.04-9.71-3.05-5.35-1.29-6.52-9.88-12.8-6.33-1.55-.17,.29-1.89,.46-2.52-.73-1.93-1.29-5.96-1.29-8.02,3.36-.39,4.61-5.89,7.82-7.5,6.64-3.58,15.63,1.51,19.97-1.94,3.17-1.37,3.16,2.01,6.12,1.49,5.02,7.66,12.36-2.65,18.28,2.64,5.02-.81,6.97,5.74,11.51,5.59,1.39,2.69,4.29,5.61,7.61,4.77,4.38,1.93-5.77,5.68,.38,6.74,1.21,3.25-2.93,4.28-5.07,5.29-1.6,4.48-10.4,9.07-1.91,11.63,1.04,3.54-2.78,4.6-4.22,1.47-3.94,.65-3.18,6.27-8.26,4.87,3.13,5.25-1.27,3.98-4.86,6.35-3.66-3.21-9.09-.59-12.35,2.04-3.36-2.7,.02-11.94-5.22-12.1-1.4-1.49-4.05-3.24-6.18-2.35"/><path class="cls-3" d="M434.15,155.64c-1.58-3.28,2.15-7.34-.27-9.05-4.5-2.64-1.16-6.04-9.71-3.05-5.35-1.29-6.52-9.88-12.8-6.33-1.55-.17,.29-1.89,.46-2.52-.73-1.93-1.29-5.96-1.29-8.02,3.36-.39,4.61-5.89,7.82-7.5,6.64-3.58,15.63,1.51,19.97-1.94,3.17-1.37,3.16,2.01,6.12,1.49,5.02,7.66,12.36-2.65,18.28,2.64,5.02-.81,6.97,5.74,11.51,5.59,1.39,2.69,4.29,5.61,7.61,4.77,4.38,1.93-5.77,5.68,.38,6.74,1.21,3.25-2.93,4.28-5.07,5.29-1.6,4.48-10.4,9.07-1.91,11.63,1.04,3.54-2.78,4.6-4.22,1.47-3.94,.65-3.18,6.27-8.26,4.87,3.13,5.25-1.27,3.98-4.86,6.35-3.66-3.21-9.09-.59-12.35,2.04-3.36-2.7,.02-11.94-5.22-12.1-1.4-1.49-4.05-3.24-6.18-2.35Z"/><path class="cls-5" d="M507.99,121.83c-.89-.66-1.96-.61-3.54,.95-2.48-2.62-6.83-1.6-7.18,2.12-2.45,.28-3.08,3.12-3.19,5.07-2.89,.12-8.33,1.37-10.78,2.96-5.46,5.72-.76,3.24-1.06,8.47-3.29,.7-6.77,4.06-7.82,7.2-4.39,.34-3.1,6.36,.83,6.76,.86,7.21-3.99,.15-6.76,2.32-.59,6.55-8.06,1.11-4.24,8.26-1.8-.28-4.8,1.3-6.35,2.11-3.68-3.19-9.06-.6-12.35,2.03,1.75,7.33,13.14,21.79,4.39,26.26-5.1,4.51,1.51,9.6,1.78,14.14,7.37,2.36,16.29-.71,24.54-.94,2.34-3.09,5.66-2.77,8.44-.41,2.74,.29,9.86,1.28,12.04,3.05,.82,4.01,6.14-2.9,8.12,1.9,.99-.22,2.04-.51,3.12-.74V121.83Z"/><path class="cls-3" d="M507.99,121.83c-.89-.66-1.96-.61-3.54,.95-2.48-2.62-6.83-1.6-7.18,2.12-2.45,.28-3.08,3.12-3.19,5.07-2.89,.12-8.33,1.37-10.78,2.96-5.46,5.72-.76,3.24-1.06,8.47-3.29,.7-6.77,4.06-7.82,7.2-4.39,.34-3.1,6.36,.83,6.76,.86,7.21-3.99,.15-6.76,2.32-.59,6.55-8.06,1.11-4.24,8.26-1.8-.28-4.8,1.3-6.35,2.11-3.68-3.19-9.06-.6-12.35,2.03,1.75,7.33,13.14,21.79,4.39,26.26-5.1,4.51,1.51,9.6,1.78,14.14,7.37,2.36,16.29-.71,24.54-.94,2.34-3.09,5.66-2.77,8.44-.41,2.74,.29,9.86,1.28,12.04,3.05,.82,4.01,6.14-2.9,8.12,1.9,.99-.22,2.04-.51,3.12-.74V121.83Z"/><path class="cls-5" d="M507.99,212.87c-3.39,3.37-5.32-3.15-10.6,1.02-2.71-5.29-13.25-4.14-18.06-6.88-4.47,5-15.12,1.73-20.52,5.6-1.46-.77-5.38-3.15-7.09-2.13-1.03,6.41,1,14.55,7.06,17.6-1.95,1.44-.95,4.11,.21,5.72-.51,1.86-.12,5.49-3.24,4.48-2.86,4.03-7.93,13.44-12.47,16.78,.12,2.74,2.58,10.02-2.38,8.28-2.14,4.73-6.53,12.01-.79,15.08,3.46,.97,3.96,6.1,7.61,4.97,3.8-5.3,9.29,2.88,14.15,1.37,3.45,.69,5.15,4.66,8.35,5.6,6.56-1.3,12.88-6.06,19.97-6.23,8.08-4.28,6.99-1.78,6.12-11.94,.88,.22,2.61,1.63,2.96,0,1.33,.57,3.13,2.75,3.8,.2,2.35,.14,3.76-.78,4.91-.1v-59.43Z"/><path class="cls-3" d="M507.99,212.87c-3.39,3.37-5.32-3.15-10.6,1.02-2.71-5.29-13.25-4.14-18.06-6.88-4.47,5-15.12,1.73-20.52,5.6-1.46-.77-5.38-3.15-7.09-2.13-1.03,6.41,1,14.55,7.06,17.6-1.95,1.44-.95,4.11,.21,5.72-.51,1.86-.12,5.49-3.24,4.48-2.86,4.03-7.93,13.44-12.47,16.78,.12,2.74,2.58,10.02-2.38,8.28-2.14,4.73-6.53,12.01-.79,15.08,3.46,.97,3.96,6.1,7.61,4.97,3.8-5.3,9.29,2.88,14.15,1.37,3.45,.69,5.15,4.66,8.35,5.6,6.56-1.3,12.88-6.06,19.97-6.23,8.08-4.28,6.99-1.78,6.12-11.94,.88,.22,2.61,1.63,2.96,0,1.33,.57,3.13,2.75,3.8,.2,2.35,.14,3.76-.78,4.91-.1v-59.43Z"/><path class="cls-5" d="M507.99,272.03c-.48-.69-1.03-.93-1.73,.37-1.37-.06-3.73-.31-4.12,1.49-2.03-1.99-3.73-.49-5.82-1.69,.86,2.73-.1,6.51,.65,9.23,5.43-2.19,6.82,.53,7.47,5.54,.72,.67,2.18,1.81,3.54,3.11v-18.06Z"/><path class="cls-3" d="M507.99,272.03c-.48-.69-1.03-.93-1.73,.37-1.37-.06-3.73-.31-4.12,1.49-2.03-1.99-3.73-.49-5.82-1.69,.86,2.73-.1,6.51,.65,9.23,5.43-2.19,6.82,.53,7.47,5.54,.72,.67,2.18,1.81,3.54,3.11v-18.06Z"/><path class="cls-5" d="M502.76,280.42c-11.37,1.51-22.14,6.83-32.53,9.95-4.12-2.04-6.92-6.89-12.47-5.71-5.9-4.77-7.13-2.23-12.92-1.16,.99,2.67-2.02,5.12-4.62,4.86-4.71,8.61-8.22,20.59-13.83,27.79-2.33-.45-4.58-.51-5.29,2.22-2.02-.02-4.17,2.39-5.44,3.72,5.86,1.6,7.21,11.2,13.06,12.97,5.8,2.86,1.79,4.05,2.75,8.11,1.93,.53,5.86,1.58,6.23,4.02,1.92-1.29,4.06-1.23,5.38,.85,1.25-3.47,4.6-3.32,7.5-2.22-8.77,10.66,9.69,6.08,3.48,13.84,1.49,5.1,5.3-1.28,9.1,.53,2.73,2.35,8.92,3.88,12.36,1.17,4.97,.79,10.83,.45,16.26,1.47,4.94-2.53,10.31-6.98,16.21-8.57v-64.23c-2.51-2.82-5.57-5.58-5.23-9.61"/><path class="cls-3" d="M502.76,280.42c-11.37,1.51-22.14,6.83-32.53,9.95-4.12-2.04-6.92-6.89-12.47-5.71-5.9-4.77-7.13-2.23-12.92-1.16,.99,2.67-2.02,5.12-4.62,4.86-4.71,8.61-8.22,20.59-13.83,27.79-2.33-.45-4.58-.51-5.29,2.22-2.02-.02-4.17,2.39-5.44,3.72,5.86,1.6,7.21,11.2,13.06,12.97,5.8,2.86,1.79,4.05,2.75,8.11,1.93,.53,5.86,1.58,6.23,4.02,1.92-1.29,4.06-1.23,5.38,.85,1.25-3.47,4.6-3.32,7.5-2.22-8.77,10.66,9.69,6.08,3.48,13.84,1.49,5.1,5.3-1.28,9.1,.53,2.73,2.35,8.92,3.88,12.36,1.17,4.97,.79,10.83,.45,16.26,1.47,4.94-2.53,10.31-6.98,16.21-8.57v-64.23c-2.51-2.82-5.57-5.58-5.23-9.61Z"/><path class="cls-5" d="M413.59,321.39c-3.87-1.64-7.64-1.2-9.66,2.89-2.88-1.07-6.23,1.4-7.85,3.63-1.72-2.05-2.89,1.07-3.92,2.08-8.56-2.66-18.59-4.06-24.4-11.83-3.2,.45-2.92-3.22-3.17-5.36-7.27-7.98,.39-.27-2.01-12.82,1.76-2.39,.68-4.76-1.37-6.45,4.99-3.72,9.29,2.63,6.8-9.04,8.55,7.46,17.65,6.11,27.75,4.19-.5-2.78,2.45-3.59,4.54-4.13,9.96-10.58,3.42,8.73,14.36-8.44,5.81-.21,12.96-.07,18.7,1.17,3.4-4.5,10.76,3.41,11.83,7.18-1.3,4.32-6.78,3.92-8.02,9.6-.53,6.31-8.11,13.77-8.14,19.56-1.42,2.13-4.13,2.93-6.54,2.2-.57,1.64-2.06,3.25-3.92,3.28-1.29,1.15-2.97,3.99-4.98,2.29"/><path class="cls-3" d="M413.59,321.39c-3.87-1.64-7.64-1.2-9.66,2.89-2.88-1.07-6.23,1.4-7.85,3.63-1.72-2.05-2.89,1.07-3.92,2.08-8.56-2.66-18.59-4.06-24.4-11.83-3.2,.45-2.92-3.22-3.17-5.36-7.27-7.98,.39-.27-2.01-12.82,1.76-2.39,.68-4.76-1.37-6.45,4.99-3.72,9.29,2.63,6.8-9.04,8.55,7.46,17.65,6.11,27.75,4.19-.5-2.78,2.45-3.59,4.54-4.13,9.96-10.58,3.42,8.73,14.36-8.44,5.81-.21,12.96-.07,18.7,1.17,3.4-4.5,10.76,3.41,11.83,7.18-1.3,4.32-6.78,3.92-8.02,9.6-.53,6.31-8.11,13.77-8.14,19.56-1.42,2.13-4.13,2.93-6.54,2.2-.57,1.64-2.06,3.25-3.92,3.28-1.29,1.15-2.97,3.99-4.98,2.29Z"/><path class="cls-5" d="M367.12,278.31c-.73-9.89,9.34-4.57,14.9-7.81,3.45,.32,7.62-2.08,9.52-4.86,2.42,.39,5.41-1.34,6.86-3.17,2.7,.14,7.84,1.04,10.27,.82,1.65-4.54,8.66-4.13,11.91-1.75,1.41-2.29,4.36-2.76,6.51-1.17,3.95-2.52,10.16,.58,13.45,2.95-.12,1.87-3.84,8.44-3.26,11.4-4.36,3.71-12.37,1.69-17.75,.96-4.77-.71-9.74,4.92-10.36,9.18-3.05-4.58-5.38-4.2-8.87-.32-2.07,.51-5.06,1.35-4.54,4.13-9.91,2.14-28.31,3.8-28.64-10.37"/><path class="cls-3" d="M367.12,278.31c-.73-9.89,9.34-4.57,14.9-7.81,3.45,.32,7.62-2.08,9.52-4.86,2.42,.39,5.41-1.34,6.86-3.17,2.7,.14,7.84,1.04,10.27,.82,1.65-4.54,8.66-4.13,11.91-1.75,1.41-2.29,4.36-2.76,6.51-1.17,3.95-2.52,10.16,.58,13.45,2.95-.12,1.87-3.84,8.44-3.26,11.4-4.36,3.71-12.37,1.69-17.75,.96-4.77-.71-9.74,4.92-10.36,9.18-3.05-4.58-5.38-4.2-8.87-.32-2.07,.51-5.06,1.35-4.54,4.13-9.91,2.14-28.31,3.8-28.64-10.37Z"/><path class="cls-5" d="M507.99,354.4c-7.3,2.48-14.03,9.35-21.7,7.8-5.08-.25-10.36-1.76-15,1.17-5.25-1.37-10.81-5.76-15.63-1.06-3.18-4.22,3.32-8.46-6.18-8.38-5.18,17.6,15.47,14.37,.05,26.88-.23,2.9,3.4,5.22,1.28,8.02-.93-.24,5.92,4.63,5.71,4.65,3.66,3.29,3.32,11.86,6.55,13.95,5.72,1.85,9.8-3.99,14.68-2.64,8.82-.79-1.69,4.72,11.83,.96,23.72,2.84,5.57-4.06,16.07-9.61,.87,.35,1.65-.14,2.36-.81v-40.91Z"/><path class="cls-3" d="M507.99,354.4c-7.3,2.48-14.03,9.35-21.7,7.8-5.08-.25-10.36-1.76-15,1.17-5.25-1.37-10.81-5.76-15.63-1.06-3.18-4.22,3.32-8.46-6.18-8.38-5.18,17.6,15.47,14.37,.05,26.88-.23,2.9,3.4,5.22,1.28,8.02-.93-.24,5.92,4.63,5.71,4.65,3.66,3.29,3.32,11.86,6.55,13.95,5.72,1.85,9.8-3.99,14.68-2.64,8.82-.79-1.69,4.72,11.83,.96,23.72,2.84,5.57-4.06,16.07-9.61,.87,.35,1.65-.14,2.36-.81v-40.91Z"/><path class="cls-5" d="M450.58,388.82c5.34,3.25,14.29,13.9,9.08,19.54-1.81-.43-4.65,1.17-6.02,2.22-2.51-.19-8.45-.77-10.36,1.38-.7,2.77-8.6,3.84-10.19,6.64-5.92-3.99-9.12-13.29-7.37-20.26,1.64,1.2,.54-4.35,4.68-4.98,6.21-3.08,13.2-4.37,20.17-4.54"/><path class="cls-3" d="M450.58,388.82c5.34,3.25,14.29,13.9,9.08,19.54-1.81-.43-4.65,1.17-6.02,2.22-2.51-.19-8.45-.77-10.36,1.38-.7,2.77-8.6,3.84-10.19,6.64-5.92-3.99-9.12-13.29-7.37-20.26,1.64,1.2,.54-4.35,4.68-4.98,6.21-3.08,13.2-4.37,20.17-4.54Z"/><path class="cls-5" d="M425.74,398.34c-3.88,11.08,7.63,16.75,6.79,24.08-.82,3.44-4.92,5.62-8.14,6.13-.32,11.29-7.42,9.91-9.38,.03-3.74,.15-8.78-.36-5.77-5.33-3.77-4.2,1.36-9.58-1.99-13.99-.15-5.44,6.58-9.44-1.18-11.48-.34-4.18,1.92-12.46,6.38-13.09,1.74,3.77,2.5,1.69,4.34-.53,7.25,8.26,7.48,2.24,8.96,14.17"/><path class="cls-3" d="M425.74,398.34c-3.88,11.08,7.63,16.75,6.79,24.08-.82,3.44-4.92,5.62-8.14,6.13-.32,11.29-7.42,9.91-9.38,.03-3.74,.15-8.78-.36-5.77-5.33-3.77-4.2,1.36-9.58-1.99-13.99-.15-5.44,6.58-9.44-1.18-11.48-.34-4.18,1.92-12.46,6.38-13.09,1.74,3.77,2.5,1.69,4.34-.53,7.25,8.26,7.48,2.24,8.96,14.17Z"/><path class="cls-5" d="M396.08,327.91c3.27-4.53,8.91-3.37,12.22-7.94,12.72,1.1,14.05,12.75,24.3,18.01-4.99,6.4,3.56,4.73,5.1,9.22,4.04-2.88,5.1,3.27,7.8-2.43,9.17,1.21-.41,1.76,4.75,11.94-6.46,4.89,3.69,11.44,5.39,16.39-.72,5.11-9.94,7.6-3.92,13.11-.39,3.95-6.99,3.4-10.15,3.16-4.94,.86-10.2,3.71-14.61,5.92,0,7-2.88,.57-1.85-2.75-.39-2.19-3.17-4.09-5.24-4.46-5.91-7.06,.26-4.24-.68-10.65-1.98-.05-4.92-1.09-6.03-2.86-1.49,.09-3.99,.19-4.65-1.58,.8-2.02-1.83-4.2-3.1-5.35,2.26-1.79-3.96-4.87-2.28-7.97,1.07-1.49,2.76-.22,3.9,.43,2.23-2.04-.69-3.91-2.86-3.59-1.06-1.02-5.26-3.36-4.33-5.39,2.02-1.79,6.15-11.33,.3-7.4-2.6-2.62,.09-4.78,3.07-4.43-6.9-4.97-3-3.97-7.17-11.37"/><path class="cls-3" d="M396.08,327.91c3.27-4.53,8.91-3.37,12.22-7.94,12.72,1.1,14.05,12.75,24.3,18.01-4.99,6.4,3.56,4.73,5.1,9.22,4.04-2.88,5.1,3.27,7.8-2.43,9.17,1.21-.41,1.76,4.75,11.94-6.46,4.89,3.69,11.44,5.39,16.39-.72,5.11-9.94,7.6-3.92,13.11-.39,3.95-6.99,3.4-10.15,3.16-4.94,.86-10.2,3.71-14.61,5.92,0,7-2.88,.57-1.85-2.75-.39-2.19-3.17-4.09-5.24-4.46-5.91-7.06,.26-4.24-.68-10.65-1.98-.05-4.92-1.09-6.03-2.86-1.49,.09-3.99,.19-4.65-1.58,.8-2.02-1.83-4.2-3.1-5.35,2.26-1.79-3.96-4.87-2.28-7.97,1.07-1.49,2.76-.22,3.9,.43,2.23-2.04-.69-3.91-2.86-3.59-1.06-1.02-5.26-3.36-4.33-5.39,2.02-1.79,6.15-11.33,.3-7.4-2.6-2.62,.09-4.78,3.07-4.43-6.9-4.97-3-3.97-7.17-11.37Z"/><path class="cls-5" d="M402.79,396.15c-.37-4.63-6.88-9.12-9.8-11.65,5.15-1.45,.85-11.21,6.45-11,6.5-2.03-6.06-5.69,.32-8.46,1.22,.77,4.27,3.35,5.66,2.58,2.81,1.51,2.75,4.97,4.46,6.93,3.52-.87,5.76,3.13,9.31,2.85,.48,2,0,4.22-2.01,5.18-.92,2.74-3.04,6.61-4.76,2.11-2.74-.46-4.99,5.67-6.12,7.71-.52,3.05,1.02,7.14-3.52,3.74"/><path class="cls-3" d="M402.79,396.15c-.37-4.63-6.88-9.12-9.8-11.65,5.15-1.45,.85-11.21,6.45-11,6.5-2.03-6.06-5.69,.32-8.46,1.22,.77,4.27,3.35,5.66,2.58,2.81,1.51,2.75,4.97,4.46,6.93,3.52-.87,5.76,3.13,9.31,2.85,.48,2,0,4.22-2.01,5.18-.92,2.74-3.04,6.61-4.76,2.11-2.74-.46-4.99,5.67-6.12,7.71-.52,3.05,1.02,7.14-3.52,3.74Z"/><path class="cls-5" d="M349.63,353.34c1.06-.29,3.04,2.41,3.66,2.99-3.65-2.18-7.6,.91-4.56,4.56,2.43-.75,5.04,1.37,6.44,3.11,4.54,.17,4.1,7.35,9.2,4.75,6.28-3.07,24.3,14.44,11.77,8.08,16.9,9.98-12.13-19.71-16.2-21.52-.01-3.37-2.05-11.19-6.77-10.88-.25-2.38,1.75-4.76,1.08-7.07,2.47-4.04,5.08,5.11,7.7,2.83-.72-3.08,3.02-2.19,4.54-2.32,1.19-2.22,2.6-.9,3.81-.21,1.86-2.61,4.36,.16,4.86,1.79,1.41-1.98,3.88-.66,5.18-.19,2.89-.98,6.85-.34,9.72,.75,1.82-1.13,4,1.56,4.86,2.12,7.65,1.03,1.03-2.54,8.31-2.94,.71-1.77-2.5-1.32-2.82-1.78-3.13-2.37-2-9.79-6-10.31-2.54,5.61-11.24-1.05-15.32-.34-4.57-1.49-11.3-10.54-13.98-8.47-11.67-1.86-14.08,7.49-20.45,10.9-.21,3.67-1.11,5.91-3.87,5.14-6.85-5.46-10.98,2.15-17.34,1.48-.83,4.24,3.65,7.81,3.95,10.29,4.96,2.23,4.21-13.65,11.15-10.4,.68,4.04,4.88,5.22,4.52,9.45"/><path class="cls-3" d="M349.63,353.34c1.06-.29,3.04,2.41,3.66,2.99-3.65-2.18-7.6,.91-4.56,4.56,2.43-.75,5.04,1.37,6.44,3.11,4.54,.17,4.1,7.35,9.2,4.75,6.28-3.07,24.3,14.44,11.77,8.08,16.9,9.98-12.13-19.71-16.2-21.52-.01-3.37-2.05-11.19-6.77-10.88-.25-2.38,1.75-4.76,1.08-7.07,2.47-4.04,5.08,5.11,7.7,2.83-.72-3.08,3.02-2.19,4.54-2.32,1.19-2.22,2.6-.9,3.81-.21,1.86-2.61,4.36,.16,4.86,1.79,1.41-1.98,3.88-.66,5.18-.19,2.89-.98,6.85-.34,9.72,.75,1.82-1.13,4,1.56,4.86,2.12,7.65,1.03,1.03-2.54,8.31-2.94,.71-1.77-2.5-1.32-2.82-1.78-3.13-2.37-2-9.79-6-10.31-2.54,5.61-11.24-1.05-15.32-.34-4.57-1.49-11.3-10.54-13.98-8.47-11.67-1.86-14.08,7.49-20.45,10.9-.21,3.67-1.11,5.91-3.87,5.14-6.85-5.46-10.98,2.15-17.34,1.48-.83,4.24,3.65,7.81,3.95,10.29,4.96,2.23,4.21-13.65,11.15-10.4,.68,4.04,4.88,5.22,4.52,9.45"/></g><g class="cls-8"><path class="cls-5" d="M380.96,379.75c1.68-7.76-16.01-18.74-21-24.42,.16-3.62-1.71-7.89-4.88-10.98-2.54,.87-2.54-2.03-.83-3.17-1.16-6.72,3.64-4.97,5.8-.52,3.19-.52,1.14-3.81,6.44-2.76,1.53-3.14,3.44,1.12,5.07-1.37,3.13-.38,2.85,4.61,5.5,1.58,1.92,1.82,5.26-.37,6.35,1.17,2.73-1.08,5.98,1.1,8.55,.41,1.46,1.96,4.74,2.94,7.08,2.55,.7,1.24,1.38,1.72,2.44,.52,6.58,1.69-9.27,12.02,4.95,13.85,5.14,6.61-5.13-1.55-3.27,6.23,.48,1.19,4.96,3.95,2,5.07-2.8-.64-7.89-5.39-7.08,.64,4.13,1.68,4.27,5.4-.74,5.16-1.7,4.66-2.03,16.11-7.47,6.59-1.93,1.56-6.76-.29-8.91-.55"/><path class="cls-3" d="M380.96,379.75c1.68-7.76-16.01-18.74-21-24.42,.16-3.62-1.71-7.89-4.88-10.98-2.54,.87-2.54-2.03-.83-3.17-1.16-6.72,3.64-4.97,5.8-.52,3.19-.52,1.14-3.81,6.44-2.76,1.53-3.14,3.44,1.12,5.07-1.37,3.13-.38,2.85,4.61,5.5,1.58,1.92,1.82,5.26-.37,6.35,1.17,2.73-1.08,5.98,1.1,8.55,.41,1.46,1.96,4.74,2.94,7.08,2.55,.7,1.24,1.38,1.72,2.44,.52,6.58,1.69-9.27,12.02,4.95,13.85,5.14,6.61-5.13-1.55-3.27,6.23,.48,1.19,4.96,3.95,2,5.07-2.8-.64-7.89-5.39-7.08,.64,4.13,1.68,4.27,5.4-.74,5.16-1.7,4.66-2.03,16.11-7.47,6.59-1.93,1.56-6.76-.29-8.91-.55Z"/><path class="cls-5" d="M323.57,333.06c4.01-.37,2.71-3.27-.34-3.99-.48,.31-.82-4.99-.96-5.06,2.4-3.02,.54-7.12,4.22-10.14,3.06,.87,9.24-1.32,10.78,2.49,4.25-1.22,9.24-3.02,13.65-3.02,4.64-2.58,10.47-7.46,13.65-.53,1.59,5.74-.62,5.86-5.71,5.49-2.61,1.58-10.73,4.15-9.52,8.46-3.49,.86-5.71,3.82-5.5,7.41-2.15,.91-6.61-1.4-8.46-2.32-3.19,.39-12.68,8.12-11.83,1.22"/><path class="cls-3" d="M323.57,333.06c4.01-.37,2.71-3.27-.34-3.99-.48,.31-.82-4.99-.96-5.06,2.4-3.02,.54-7.12,4.22-10.14,3.06,.87,9.24-1.32,10.78,2.49,4.25-1.22,9.24-3.02,13.65-3.02,4.64-2.58,10.47-7.46,13.65-.53,1.59,5.74-.62,5.86-5.71,5.49-2.61,1.58-10.73,4.15-9.52,8.46-3.49,.86-5.71,3.82-5.5,7.41-2.15,.91-6.61-1.4-8.46-2.32-3.19,.39-12.68,8.12-11.83,1.22Z"/><path class="cls-5" d="M326.51,313.86c-2.87-3.19-11.76-1.23-15.88-3.19-13.38-6.32-.24-6.36-15.02-7.62-10.13,7.08-8.01,3.19-16.05,0-4.22,4.82-2.85-1.77-9.71-.03,.33-1.51,.04-3.4-1.58-4.02,.55-1.5-.23-2.72-1.62-3.3,1.37-.05,3.7-1.52,5.09-1.84,1.05,1.72,5.32,4.55,6.65,2-.48-6.34,13.09,1.46,17.11-.96,3.86-4.44,9.03-2.02,13.64-3.37,2.59,2.09,5.72,2.35,4.31-1.92-9.83-3.3,3.79-9,5.41-13.24,3.81,1.04,1.54-3.36,2.69-5.57,2.79-1.04,9.19,6.92,10.83,2.87,4.26,.67,3.47-1.54,5.7-3.8,.6-2.68,1.85-2.92,4.13-1.59,2.7-.26,7.11,.54,8.98,2.75,5.81-.71,10.77,.91,16.28,2.58-1.28,5.65,2.08,13.22,.73,18.75-1.23,.27-7.03-1.04-6.97,1.15,3.71,2.45,1.36,5.71,1.05,9.2,3.58,3.63-1.55,6.34-4.92,7-5.78,4.31-13.64,4.18-20.06,6.62-1.55-3.81-7.72-1.61-10.78-2.49h.02Z"/><path class="cls-3" d="M326.51,313.86c-2.87-3.19-11.76-1.23-15.88-3.19-13.38-6.32-.24-6.36-15.02-7.62-10.13,7.08-8.01,3.19-16.05,0-4.22,4.82-2.85-1.77-9.71-.03,.33-1.51,.04-3.4-1.58-4.02,.55-1.5-.23-2.72-1.62-3.3,1.37-.05,3.7-1.52,5.09-1.84,1.05,1.72,5.32,4.55,6.65,2-.48-6.34,13.09,1.46,17.11-.96,3.86-4.44,9.03-2.02,13.64-3.37,2.59,2.09,5.72,2.35,4.31-1.92-9.83-3.3,3.79-9,5.41-13.24,3.81,1.04,1.54-3.36,2.69-5.57,2.79-1.04,9.19,6.92,10.83,2.87,4.26,.67,3.47-1.54,5.7-3.8,.6-2.68,1.85-2.92,4.13-1.59,2.7-.26,7.11,.54,8.98,2.75,5.81-.71,10.77,.91,16.28,2.58-1.28,5.65,2.08,13.22,.73,18.75-1.23,.27-7.03-1.04-6.97,1.15,3.71,2.45,1.36,5.71,1.05,9.2,3.58,3.63-1.55,6.34-4.92,7-5.78,4.31-13.64,4.18-20.06,6.62-1.55-3.81-7.72-1.61-10.78-2.49h.02Z"/><path class="cls-5" d="M404.31,259.2c-2.66-4.77-6.47-.83-9.93-1.06-.94-3.89-8.51-9.14-11.62-11.19-2.5-1.54-7.21-1.09-9.83-.1-5.34-2.6,.12-6.18-6.76-4.54-4.09-2.83-12-6.27-4.86,1.58-1.2-.38-2.66,.45-3.28,1.47-2.02-.34-2.2-1.87-1.87-3.65-.88-.17-1.82-1.63-2.23-2.32,5.02-6.62-6.95-3.18-5.44-9.07-2.62-1.02-7.51-.14-9.96-.64-1.27,2.23-1.63,.78-2.34-.84,1.69-3.17,1.36-11.32-3.1-12.42-2.61-4.26-1.98-9.3-2.73-13.85-1.39-1.35-2.63-3.72-1.59-5.69-10.05-8.47,.76-5.45,0-13.85-2.7-6.36,1.12-9.46,3.45-15.75,5.35,.81,10.72-5.29,16.07-4.21-.93-6.71,7.93-3.83,9.54-9.1,2.14-1.13,6.15-2.04,8.55-1.33,3.37-2.97,9.27-2.91,13.18-1.11,1.38,.26,6.98,4.23,2.45,1.99-12.21-.01,3.87,13.99,11.86,1.56,4.61,.14-9.25,6.16-5.65,7.2,14.48-7.49,12.31-6.26,29.52-5.02,8.59-.66,29.42-5.71,25.98,9.83,4.39,8.76,9.98,18.36,9.19,28.21-10.9,2.77,1.55,14.38-1.22,24.36,2.75,2.32,3.11,7.32,7.1,8.43-1.31,.87-1.26,2.65-.84,3.93,1.58,1.86,1.2,7.31-2.19,6.27-2.54,4.19-8.26,13.28-12.47,16.78,.16,3.02,2.61,10.13-2.75,8.25-5.17-4.57-12.26-3.62-18.12-3.69-1.34,1.57-2.27,2.22-3.92,.49-1.45-.07-4.38,.08-5.77-.27-3.85,1.48-7.55,7.73-8.43-.64"/><path class="cls-3" d="M404.31,259.2c-2.66-4.77-6.47-.83-9.93-1.06-.94-3.89-8.51-9.14-11.62-11.19-2.5-1.54-7.21-1.09-9.83-.1-5.34-2.6,.12-6.18-6.76-4.54-4.09-2.83-12-6.27-4.86,1.58-1.2-.38-2.66,.45-3.28,1.47-2.02-.34-2.2-1.87-1.87-3.65-.88-.17-1.82-1.63-2.23-2.32,5.02-6.62-6.95-3.18-5.44-9.07-2.62-1.02-7.51-.14-9.96-.64-1.27,2.23-1.63,.78-2.34-.84,1.69-3.17,1.36-11.32-3.1-12.42-2.61-4.26-1.98-9.3-2.73-13.85-1.39-1.35-2.63-3.72-1.59-5.69-10.05-8.47,.76-5.45,0-13.85-2.7-6.36,1.12-9.46,3.45-15.75,5.35,.81,10.72-5.29,16.07-4.21-.93-6.71,7.93-3.83,9.54-9.1,2.14-1.13,6.15-2.04,8.55-1.33,3.37-2.97,9.27-2.91,13.18-1.11,1.38,.26,6.98,4.23,2.45,1.99-12.21-.01,3.87,13.99,11.86,1.56,4.61,.14-9.25,6.16-5.65,7.2,14.48-7.49,12.31-6.26,29.52-5.02,8.59-.66,29.42-5.71,25.98,9.83,4.39,8.76,9.98,18.36,9.19,28.21-10.9,2.77,1.55,14.38-1.22,24.36,2.75,2.32,3.11,7.32,7.1,8.43-1.31,.87-1.26,2.65-.84,3.93,1.58,1.86,1.2,7.31-2.19,6.27-2.54,4.19-8.26,13.28-12.47,16.78,.16,3.02,2.61,10.13-2.75,8.25-5.17-4.57-12.26-3.62-18.12-3.69-1.34,1.57-2.27,2.22-3.92,.49-1.45-.07-4.38,.08-5.77-.27-3.85,1.48-7.55,7.73-8.43-.64Z"/><path class="cls-5" d="M336.2,228.85c.87,1.67,.87,3.07,2.34,.84,1.09,.35,3.07,.6,3.98-.26,5.01-.18,5.61,2.01,8.31,5.18,3.64-1.1,5.34,1.93,3.11,4.78,.39,.73,1.38,2.12,2.23,2.32-.31,1.74-.21,3.37,1.87,3.64,4.17-2.88,2.64-1.8-.11-5.91,.99-2.42,7.04,2.61,8.25,2.86,6.87-1.64,1.44,1.96,6.76,4.54,7.96-3.67,18.07,4.45,21.44,11.3,5.34-1,9.99-3.41,10.78,4.97-5.32-2.15-8.93,2.35-13.62,2.54-1.96,2.76-6.05,5.2-9.52,4.86-4.56,3.02-9.81-1-13.83,3.28-5.76-1.61-11.01-3.52-17.01-2.75-2.85-3.46-8.4-2.02-11.94-3.9-.45,2.26-3.16,3.96-2.86,6.33-5.54,1.12-7.64,1.43-12.79-2.43-3.73,.16-7.17-7.98-10.77-9-3.64-2.92-10.5-4.81-8.47-10.77-.38-3.94-10.27-7.07-5.83-10.23,3.12,4.36,6.52-.11,9.02-2.43,2.18,.6,4.27-2.02,5.39-3.48,2.12,.38,3.98-.52,4.75-2.54,3.36-.57,10.58,2.09,9.4-3.7,1.73,.5,5.15,1.6,6.45-.21,.86,.35,2.28,1.71,2.66,.18"/><path class="cls-3" d="M336.2,228.85c.87,1.67,.87,3.07,2.34,.84,1.09,.35,3.07,.6,3.98-.26,5.01-.18,5.61,2.01,8.31,5.18,3.64-1.1,5.34,1.93,3.11,4.78,.39,.73,1.38,2.12,2.23,2.32-.31,1.74-.21,3.37,1.87,3.64,4.17-2.88,2.64-1.8-.11-5.91,.99-2.42,7.04,2.61,8.25,2.86,6.87-1.64,1.44,1.96,6.76,4.54,7.96-3.67,18.07,4.45,21.44,11.3,5.34-1,9.99-3.41,10.78,4.97-5.32-2.15-8.93,2.35-13.62,2.54-1.96,2.76-6.05,5.2-9.52,4.86-4.56,3.02-9.81-1-13.83,3.28-5.76-1.61-11.01-3.52-17.01-2.75-2.85-3.46-8.4-2.02-11.94-3.9-.45,2.26-3.16,3.96-2.86,6.33-5.54,1.12-7.64,1.43-12.79-2.43-3.73,.16-7.17-7.98-10.77-9-3.64-2.92-10.5-4.81-8.47-10.77-.38-3.94-10.27-7.07-5.83-10.23,3.12,4.36,6.52-.11,9.02-2.43,2.18,.6,4.27-2.02,5.39-3.48,2.12,.38,3.98-.52,4.75-2.54,3.36-.57,10.58,2.09,9.4-3.7,1.73,.5,5.15,1.6,6.45-.21,.86,.35,2.28,1.71,2.66,.18Z"/><path class="cls-5" d="M268.27,298.99c1.66,.63,1.86,2.5,1.58,4.03-2.71,.37-2.39-2.36-1.58-4.03"/><path class="cls-3" d="M268.27,298.99c1.66,.63,1.86,2.5,1.58,4.03-2.71,.37-2.39-2.36-1.58-4.03Z"/><path class="cls-5" d="M242.5,293.77c2.85,1.38,5.69-1.75,8.64,.52,1.43-2.15,.31-4.36,3.7-4.66,.37,1.4,1.09,3.45,2.85,3.38,3.1-4.06,7.7,2.65,10.78,3.9-.83,3.93-1.58,6.92,3.7,6.24,1.71-1.77,3.69,1.23,4.84,2.22,4.08-5.32,8.31-.13,3.14,3.62,4.28,8.32-6.26,2.19-4.86,11.42-1.23-1.33-3.22-2.58-5.07-1.9-3.47-.48-7.66-3.8-6.35,2.32-3.77,8.61-2.89,1.61-9.1,0,1.07-2.76-.52-4.45-2.96-5.5-6.12,13.98-6.36,3.74-14.81,11.63-4.91-1.08-5.29-7.43-7.85-11.34-4.04-.86-7.92,.74-4.96,5.18-4.02,3.73-11.69-1.4-3.65-1.92-.25-1.7,.31-5.58,.59-7.29,1.01-6.13,17.93-12.34,7.92-16.05,4.21-6.43,6.55,2.64,13.45-1.78"/><path class="cls-3" d="M242.5,293.77c2.85,1.38,5.69-1.75,8.64,.52,1.43-2.15,.31-4.36,3.7-4.66,.37,1.4,1.09,3.45,2.85,3.38,3.1-4.06,7.7,2.65,10.78,3.9-.83,3.93-1.58,6.92,3.7,6.24,1.71-1.77,3.69,1.23,4.84,2.22,4.08-5.32,8.31-.13,3.14,3.62,4.28,8.32-6.26,2.19-4.86,11.42-1.23-1.33-3.22-2.58-5.07-1.9-3.47-.48-7.66-3.8-6.35,2.32-3.77,8.61-2.89,1.61-9.1,0,1.07-2.76-.52-4.45-2.96-5.5-6.12,13.98-6.36,3.74-14.81,11.63-4.91-1.08-5.29-7.43-7.85-11.34-4.04-.86-7.92,.74-4.96,5.18-4.02,3.73-11.69-1.4-3.65-1.92-.25-1.7,.31-5.58,.59-7.29,1.01-6.13,17.93-12.34,7.92-16.05,4.21-6.43,6.55,2.64,13.45-1.78Z"/><path class="cls-5" d="M214.85,230.67c3.17-7.17-.15-22.08,12.62-17.74,2.69-.82,1.67-2.1,.53-3.9,2.66-.94,1.85-4.38,3.16-6.35-1.28-2.65-5.71,.35-5.49-3.17,3.45-8.21,3.39,7.57,8.58-11.8-5.16-1.91-11.03-8.47-16.02-2.12-3.55-1.66-8.7,.33-10.87,3.77-2.61,2.3-6.82,2.25-9.54,3.33,1.1,4.17-4.55,5.16-2.1,9.2-.69,7.38-10.88,11.86,1.32,15.19-2.21-.4-4.5,.45-5.87,2.23,.65,1.93,3.48,1.26,3.1,3.33-3.19,1.05-4.81-3-7.65-3.68-6.6,1.83,4.87,3.91,6.43,6.12-3.23-.89-7.61-2.4-10.97-2.14,1.24,.23,2.51,1.85,3.03,2.9,1.41-.31,2.96,.33,3.69,1.58,1.75-1.86,4.75-2.82,7.07-3.28,.18-3.36,6.21-2.51,7.5-.32,3.04-.48,4.33,3.14,7.82,1.81,1.66,1.98,.43,4.99,3.65,5.06"/><path class="cls-3" d="M214.85,230.67c3.17-7.17-.15-22.08,12.62-17.74,2.69-.82,1.67-2.1,.53-3.9,2.66-.94,1.85-4.38,3.16-6.35-1.28-2.65-5.71,.35-5.49-3.17,3.45-8.21,3.39,7.57,8.58-11.8-5.16-1.91-11.03-8.47-16.02-2.12-3.55-1.66-8.7,.33-10.87,3.77-2.61,2.3-6.82,2.25-9.54,3.33,1.1,4.17-4.55,5.16-2.1,9.2-.69,7.38-10.88,11.86,1.32,15.19-2.21-.4-4.5,.45-5.87,2.23,.65,1.93,3.48,1.26,3.1,3.33-3.19,1.05-4.81-3-7.65-3.68-6.6,1.83,4.87,3.91,6.43,6.12-3.23-.89-7.61-2.4-10.97-2.14,1.24,.23,2.51,1.85,3.03,2.9,1.41-.31,2.96,.33,3.69,1.58,1.75-1.86,4.75-2.82,7.07-3.28,.18-3.36,6.21-2.51,7.5-.32,3.04-.48,4.33,3.14,7.82,1.81,1.66,1.98,.43,4.99,3.65,5.06Z"/><path class="cls-5" d="M215.54,246.01c-.28,1.36-1.46,3.65-2.44,4.65,1,1.78,1.84,3.97,2.12,5.91-2.37,.03-4.17,1.2-6.02-1.05-2.68,.81-5.05-2.66-6.34-4.45-2.05,.1-2.9-2.47-4.97-1.9-2.98,2.7-5.49-1.66-4.85-4.54-3.38-2.36-9.83-3.04-10.26-8.14-3.43-.16-3.96-3.56-4.02-6.33-3.92-1.27,2.48-8.8,4.96-6.44,.8,2.77,3.8,1.46,5.08,3.69,.77-1.28,2.91-2.06,4.33-2.11,.23-1.1,1.89-1.12,2.74-1.17,.18-3.37,6.2-2.51,7.5-.32,1.68-.32,3.29,.33,3.9,2.02,2.11-.28,4.73-.49,5.24,2.22-.9,2.12,1.26,2.27,2.7,2.73-2.77,4.4,6.71,12.38,.32,15.23"/><path class="cls-3" d="M215.54,246.01c-.28,1.36-1.46,3.65-2.44,4.65,1,1.78,1.84,3.97,2.12,5.91-2.37,.03-4.17,1.2-6.02-1.05-2.68,.81-5.05-2.66-6.34-4.45-2.05,.1-2.9-2.47-4.97-1.9-2.98,2.7-5.49-1.66-4.85-4.54-3.38-2.36-9.83-3.04-10.26-8.14-3.43-.16-3.96-3.56-4.02-6.33-3.92-1.27,2.48-8.8,4.96-6.44,.8,2.77,3.8,1.46,5.08,3.69,.77-1.28,2.91-2.06,4.33-2.11,.23-1.1,1.89-1.12,2.74-1.17,.18-3.37,6.2-2.51,7.5-.32,1.68-.32,3.29,.33,3.9,2.02,2.11-.28,4.73-.49,5.24,2.22-.9,2.12,1.26,2.27,2.7,2.73-2.77,4.4,6.71,12.38,.32,15.23Z"/><path class="cls-5" d="M215.22,256.56c.07-2.84-3.53-5.57-.53-8.03,3.34-11.72,16.31,23.07,.53,8.03"/><path class="cls-3" d="M215.22,256.56c.07-2.84-3.53-5.57-.53-8.03,3.34-11.72,16.31,23.07,.53,8.03Z"/><path class="cls-5" d="M16.8,217.67c-5.38,1.94-1.35-.99-5.15-.49,1.28-.71,4.98-1.57,4.26-3.73-1.94,1.35-5.91,3.27-8.36,2.63,1.28-1.32,5.72-4.14,7.32-5.16l-6.81,2.23c-.07-1.84-1.47-1.89-2.95-1.73,.48-4.24,5.86-3.39,8.05-6.52-.69-.37-10.04,1.67-9.38-.53,1.48-1.38,4.92-1.49,5.33-2.38,1.02,1.29,2.78,1.97,4.33,1.23-1.51-.21-1.38-.65-.66-1.81-2.42-2.1,.7-1.8,2.05-2.55,1.63-3.35,9.26-1.79,12.48-3.81-2.96,.02-3.37-1.94-5.43,.97-1.34,.05-4.16-.01-5.16-1.09-1.08,.85-3.37,2.27-4.83,1.82,6.61-3.26,6.24-6.82,9.2-11.71,1.73,2.06,3.14-.24,4.39-1.47-2.99-.29-9.49,1.67-8.82-3.52-.94-.31-5.19,2.24-2.28-.67-1.25,1.19-5.7-.64-2.5-1.29-2.21-3.53,.95-2.19,3.17-2.54-2.78-2.62,.9-3.65,3.1-3.84-.42-2.48-1.83-2.31-3.82-1.56-6.63-4.27-2.82-3.32,1.39-1.75-1.5-2.06-1.57-7.27-3.94-3.48,.28-3.55,.82-4.57,4.37-3.07-.43-2.39,8.55-.48,7.6,2.5,1.5-3.16,5.25-.48,8.1-1.88-3.54-1.93,5.32-3.42,6.04-6.45-3.39-.3-6.59,1.89-7.71-2.34,2.7,.01,2.45-2.26,4.72-1.93,1.31-2.18-2.88-1.07-.5-4.34,1.56,.39,1.29-.91,1.33-1.98,2.68-1.53,5.01,.26,7.49,.09-2.88-3.2,4.17-2.95,.77,3.93,1.58-1.53,2.48-4.26,1.62-6.36,2.03-.12,3.8,.59,1.99-2.03,5.99,4.59,5.5,2.87-.28,7.38l1.34-.27c-1.4,1.71-4.07,2.53-4.2,5.09-3.39-1.05-5,4.97-6.14,6.99,2.92,2.46,8.92,10.19,9.1,1.26,3.51-3.57,7.62,3.42,8.67,6.35,1.51-.08,4.13,1.67,5.27,2.54-3.07-.79-3.25,2.02-.64,3.02-.94,1.94,0,4.4,1.34,5.88,.28,1.87-.17,3.64-2.11,4.3,2.43,.15,2.45,6.13,2.89,7.67-.11,1.83-1.74,4.4-3.12,5.54,.99,1.81-.52,3.87-1.78,5.09-4.15,.58,.07,2.97,.78,4.63-1.31,0-4.81,.21-5.9-.65-1.55,1.79-2.04,1.75-3-.44,.6,2.89-7.57,2.21-8.9,2.75-.27,1.61-.58,3.33-2.67,2.61-.74,1.87-7.05,5.06-4.78,1.16-3.13-.62-2.76,.15-1.56,2.6-3.63,2.71-11.08,6.21-15.11,3.14"/><path class="cls-3" d="M16.8,217.67c-5.38,1.94-1.35-.99-5.15-.49,1.28-.71,4.98-1.57,4.26-3.73-1.94,1.35-5.91,3.27-8.36,2.63,1.28-1.32,5.72-4.14,7.32-5.16l-6.81,2.23c-.07-1.84-1.47-1.89-2.95-1.73,.48-4.24,5.86-3.39,8.05-6.52-.69-.37-10.04,1.67-9.38-.53,1.48-1.38,4.92-1.49,5.33-2.38,1.02,1.29,2.78,1.97,4.33,1.23-1.51-.21-1.38-.65-.66-1.81-2.42-2.1,.7-1.8,2.05-2.55,1.63-3.35,9.26-1.79,12.48-3.81-2.96,.02-3.37-1.94-5.43,.97-1.34,.05-4.16-.01-5.16-1.09-1.08,.85-3.37,2.27-4.83,1.82,6.61-3.26,6.24-6.82,9.2-11.71,1.73,2.06,3.14-.24,4.39-1.47-2.99-.29-9.49,1.67-8.82-3.52-.94-.31-5.19,2.24-2.28-.67-1.25,1.19-5.7-.64-2.5-1.29-2.21-3.53,.95-2.19,3.17-2.54-2.78-2.62,.9-3.65,3.1-3.84-.42-2.48-1.83-2.31-3.82-1.56-6.63-4.27-2.82-3.32,1.39-1.75-1.5-2.06-1.57-7.27-3.94-3.48,.28-3.55,.82-4.57,4.37-3.07-.43-2.39,8.55-.48,7.6,2.5,1.5-3.16,5.25-.48,8.1-1.88-3.54-1.93,5.32-3.42,6.04-6.45-3.39-.3-6.59,1.89-7.71-2.34,2.7,.01,2.45-2.26,4.72-1.93,1.31-2.18-2.88-1.07-.5-4.34,1.56,.39,1.29-.91,1.33-1.98,2.68-1.53,5.01,.26,7.49,.09-2.88-3.2,4.17-2.95,.77,3.93,1.58-1.53,2.48-4.26,1.62-6.36,2.03-.12,3.8,.59,1.99-2.03,5.99,4.59,5.5,2.87-.28,7.38l1.34-.27c-1.4,1.71-4.07,2.53-4.2,5.09-3.39-1.05-5,4.97-6.14,6.99,2.92,2.46,8.92,10.19,9.1,1.26,3.51-3.57,7.62,3.42,8.67,6.35,1.51-.08,4.13,1.67,5.27,2.54-3.07-.79-3.25,2.02-.64,3.02-.94,1.94,0,4.4,1.34,5.88,.28,1.87-.17,3.64-2.11,4.3,2.43,.15,2.45,6.13,2.89,7.67-.11,1.83-1.74,4.4-3.12,5.54,.99,1.81-.52,3.87-1.78,5.09-4.15,.58,.07,2.97,.78,4.63-1.31,0-4.81,.21-5.9-.65-1.55,1.79-2.04,1.75-3-.44,.6,2.89-7.57,2.21-8.9,2.75-.27,1.61-.58,3.33-2.67,2.61-.74,1.87-7.05,5.06-4.78,1.16-3.13-.62-2.76,.15-1.56,2.6-3.63,2.71-11.08,6.21-15.11,3.14Z"/><path class="cls-5" d="M61.36,170.38c-1.16-.9-3.75-2.59-5.27-2.54-11.91-20.4-4.62,8.79-17.77-7.61,0,0,3.17-6.57,3.17-6.57,2.07,.09,3.62-.76,3.81-2.95,4.84-2.71,9.99-6.84,15.88-5.66,1.79,.48,2.61,2.1,2.44,3.87,.6,1.96,6.82,6.49,2.11,7.65,4.74-1.24,4.36,3.41,4.83,6.62-1.56-4.88-2.38-7.58-3.28-.82,2.21,.05,2.29,.98,1.68,2.85-3.95-1.53-3.11,1.76-5.89,3.42-3-1.49,.14,2.13-1.7,1.73"/><path class="cls-3" d="M61.36,170.38c-1.16-.9-3.75-2.59-5.27-2.54-11.91-20.4-4.62,8.79-17.77-7.61,0,0,3.17-6.57,3.17-6.57,2.07,.09,3.62-.76,3.81-2.95,4.84-2.71,9.99-6.84,15.88-5.66,1.79,.48,2.61,2.1,2.44,3.87,.6,1.96,6.82,6.49,2.11,7.65,4.74-1.24,4.36,3.41,4.83,6.62-1.56-4.88-2.38-7.58-3.28-.82,2.21,.05,2.29,.98,1.68,2.85-3.95-1.53-3.11,1.76-5.89,3.42-3-1.49,.14,2.13-1.7,1.73Z"/><path class="cls-5" d="M151.79,222.27c-2.24-.42,.79-.91,.97-1.69-1.19-.53-3.19-.59-4.31,.15,1.77-2.06,4.83-1.54,6.9-2.84-.6-3.95-4.54-.34,0-4.57,.95,2.55,5.68-1.64,3.22-1.87,1.69-1.71-.89-.88-1.73-1.29,.48-1.2,1.18-1.85,2.44-1.18,.48,2.7,2.08-2.14,3.84-1.82,.45-4.87,1.96-8.8-.07-13.4-3.66-4.55-10.61-4.41-15.9-3.99,0,1.38-.43,3.95-1.45,4.96-3.9-4.25-6.13-2.49-.66-7.33,1.1-6.22-6.41-7.99-8.82-12.01-1.8,.78-3.59,.2-5.38,.01,1.6-.7,3.8,0,5.43-.64,1.48,.37,2.34,2.38,3.99,1.5,4.43,.89-8.87-7.84-2.11-9.17-2.62-1.13-4.68-4.27-5.92-6.87-5.87-2.4-10.56-3.59-11.23-10.8-2.7-2.76-1.92-9.17-4.45-11.97-2.97,.54-4.33-7.48-7.9-6.62-2.78-3.14-5.83-2.84-8.67-.08-2.56-1.63-7.51,.06-8.7-3.31,2.56,1.59,8.13,1.82,8.6-2,1.8,.5,4.17-.48,5.38-1.82-1.08-.55-3.21-1.11-2.78-2.75-1.18-2.44-4.31,2.49-5.27,.37,4.68-3.88,5.76,.29,9.71-5.91,2.88-4.4,3.82-8.98,5.11-13.7,1.31-.85,2.9-2.49,2.32-4.24-2.17-3.54-6.43-2.52-10.04-2.38-2.02-.85-4.53-.06-6.43,.08-.98-.26-3.89-1.74-3.99,.08-8.48,3.04-8.56,4.73-3.22-3.42-9.26,3.93,5.2-9.35,7.27-10.17,.4-1.09,1.44-2.89-.05-3.66,2.01-2.41,.83-3.32-1.89-2.92-3.11,2.62-9.62,.5-12.98,3.77,1.02-3.3-2.4-.77-3.27,.3,2.04-2.27-3.38-4.86-3.11-1.35-2.49,1.49,.5,5.71-3.71,5.59,1.3,1.23,1.29,4.27-1,4.01,1.06,.84,3.44,2.97,3.82,4.31-2.11-1.86-4.22-.06-6.04-1.94-.39,1.19,.96,2.42-.23,3.39-2.17-5.95-3.01,5.95,1.5,4.56-1.23,.88-2.85,.54-3.94-.38,.29,3.42,.24,4.96,4.05,3.71-3.36,1.02-2.92,3.26,.44,1.47-.97,.54,0,1.23,.39,1.78-4.3-2.27-1.34,2.66-3.33,2.22-2,2.02,1.12,1.13,1.08,3.15-6.3-3.05,1.21,4.6-6.48,3.58-2.93,2.47,2.2,1.21,3.5,2.05-.05,.91-1.44,.62-2,.65,.53,.25,2.25,2.81,2.98,1.84,.98,3.7,6.02-4.53,7.1-4.75-1.87,3.48-2.86,6.15-4.93,10.78,1.95,.46-3.84,12.06,.39,9.73-1.53,1.55-2.36,5.06-2.22,7.17-2.92,2.17-.42,2.62,1.83,2.35-.56-2.83,.62-6.93,2.38-9.13-2.31-4.49,.89-6.25,3.61-9.6-1.11,1.76-4.98,6.46-2.05,8,.17-3.05,2.59-4.26,2.88-.5,1.72-1.69,.46-5.72,2.39-6.39-1.18,2.49,.55,4.25,2.61,5.41-4.02-2.36-3.71,3.49-3,6.04,1.62-.18,2.19,1.71,2.56,2.92-2.72,2.2-5.57,8.1-4.24,11.57-4.76-3.74-.69,4.36,.88,5.76-2.83-7.35,3.53-2.81,6.23-.59,.45-1.86-.2-3.79-2-4.62,2.09-1.19,7.96,5.16,8.35,.53,4.7,.18,1.96-3.8,10.68-2.08-7.9,.27-8.66,11.14-4.11,15.95,2.83-2.31,1.4,.76,1.78,2.37,1.95-3.71,6.76-3.85,4.23,1.11,2.41,.53-1.76,2.19-1.99,2.82,1.61,4.69-2.7,10.04,4.93,11.24-1.81,1.92-3.86,.62-4.78-1.38-3,.3-.24,3.09,1.17,3.83-1.47,.03-3.29-1.21-4.11-2.35-3.43,1.44-8.48,1.18-11.59,3.54-1.37,3.28-5.86,4.93-7.48,7.87,1.38-.75,3.74,.7,3.66-1.32,2.02,.11,6.38-3.4,4.49,1.27,1.58,1.38,1.95,2.06-.11,3.16,3.15,2.28,.46,8.28-3.33,9.2-3.37,3.06-8.6,3.15-12.14,5.95,3.06-.33,4.25,2.48,.94,3.39l3.55,.61c-1.32,.88-.46,1.06,.49,1.62,7.33-2.65,4.7-3.98,11.42-.79-6.69,1.26,.92,3.67,1.39,1.41,2.74-1.74,4.31,2.55,6.04,4.08,5.52,.71,9.99-4.7,14.81-6.93-1.59,2.01-5.08,5.72-6.99,7.4,1.07,4.45-3.42,5.22-6.6,3.36-13.06-3.02-7.59,4.21-14.59,4.45,.41,4.02-2.13,9-6.44,9.15,.16,2.49-2.01,2.64-2.61,4.4-.95,.63-3.7,3.37-4.98,1.93-2.6,1.19-3.88,4.65,.23,4.06-.46-3.01,1.57-1.32,3.27-1.14,1.07,1.68,1.17,2.96,2.84,.84-2.26-3.57,4.92-2.05,5.31-6,3.01,1.9,7.27-2.33,8.97,.99,2.06-.55,3.46,2.4,5.77,1.44-.95-2.36,3.38-2.75,1.38-6.32,3.41-3.48,10.49-5.82,14.59-1.58,1.65-.85,4.82-.38,6.44,.36,.87-4.98,6.65-2.2,9.26-5.21,4.05,1.35,3.59-1.85,7.05,1.37,4.51-4.15,12.41,.93,16.36-2.66,2.87,.16,4.45-3.76,7.44-2.23-1.3-2.4,3.37-4.11,5.16-4.4,.58-5.59-.98-6.64-6.33-4.25"/><path class="cls-3" d="M151.79,222.27c-2.24-.42,.79-.91,.97-1.69-1.19-.53-3.19-.59-4.31,.15,1.77-2.06,4.83-1.54,6.9-2.84-.6-3.95-4.54-.34,0-4.57,.95,2.55,5.68-1.64,3.22-1.87,1.69-1.71-.89-.88-1.73-1.29,.48-1.2,1.18-1.85,2.44-1.18,.48,2.7,2.08-2.14,3.84-1.82,.45-4.87,1.96-8.8-.07-13.4-3.66-4.55-10.61-4.41-15.9-3.99,0,1.38-.43,3.95-1.45,4.96-3.9-4.25-6.13-2.49-.66-7.33,1.1-6.22-6.41-7.99-8.82-12.01-1.8,.78-3.59,.2-5.38,.01,1.6-.7,3.8,0,5.43-.64,1.48,.37,2.34,2.38,3.99,1.5,4.43,.89-8.87-7.84-2.11-9.17-2.62-1.13-4.68-4.27-5.92-6.87-5.87-2.4-10.56-3.59-11.23-10.8-2.7-2.76-1.92-9.17-4.45-11.97-2.97,.54-4.33-7.48-7.9-6.62-2.78-3.14-5.83-2.84-8.67-.08-2.56-1.63-7.51,.06-8.7-3.31,2.56,1.59,8.13,1.82,8.6-2,1.8,.5,4.17-.48,5.38-1.82-1.08-.55-3.21-1.11-2.78-2.75-1.18-2.44-4.31,2.49-5.27,.37,4.68-3.88,5.76,.29,9.71-5.91,2.88-4.4,3.82-8.98,5.11-13.7,1.31-.85,2.9-2.49,2.32-4.24-2.17-3.54-6.43-2.52-10.04-2.38-2.02-.85-4.53-.06-6.43,.08-.98-.26-3.89-1.74-3.99,.08-8.48,3.04-8.56,4.73-3.22-3.42-9.26,3.93,5.2-9.35,7.27-10.17,.4-1.09,1.44-2.89-.05-3.66,2.01-2.41,.83-3.32-1.89-2.92-3.11,2.62-9.62,.5-12.98,3.77,1.02-3.3-2.4-.77-3.27,.3,2.04-2.27-3.38-4.86-3.11-1.35-2.49,1.49,.5,5.71-3.71,5.59,1.3,1.23,1.29,4.27-1,4.01,1.06,.84,3.44,2.97,3.82,4.31-2.11-1.86-4.22-.06-6.04-1.94-.39,1.19,.96,2.42-.23,3.39-2.17-5.95-3.01,5.95,1.5,4.56-1.23,.88-2.85,.54-3.94-.38,.29,3.42,.24,4.96,4.05,3.71-3.36,1.02-2.92,3.26,.44,1.47-.97,.54,0,1.23,.39,1.78-4.3-2.27-1.34,2.66-3.33,2.22-2,2.02,1.12,1.13,1.08,3.15-6.3-3.05,1.21,4.6-6.48,3.58-2.93,2.47,2.2,1.21,3.5,2.05-.05,.91-1.44,.62-2,.65,.53,.25,2.25,2.81,2.98,1.84,.98,3.7,6.02-4.53,7.1-4.75-1.87,3.48-2.86,6.15-4.93,10.78,1.95,.46-3.84,12.06,.39,9.73-1.53,1.55-2.36,5.06-2.22,7.17-2.92,2.17-.42,2.62,1.83,2.35-.56-2.83,.62-6.93,2.38-9.13-2.31-4.49,.89-6.25,3.61-9.6-1.11,1.76-4.98,6.46-2.05,8,.17-3.05,2.59-4.26,2.88-.5,1.72-1.69,.46-5.72,2.39-6.39-1.18,2.49,.55,4.25,2.61,5.41-4.02-2.36-3.71,3.49-3,6.04,1.62-.18,2.19,1.71,2.56,2.92-2.72,2.2-5.57,8.1-4.24,11.57-4.76-3.74-.69,4.36,.88,5.76-2.83-7.35,3.53-2.81,6.23-.59,.45-1.86-.2-3.79-2-4.62,2.09-1.19,7.96,5.16,8.35,.53,4.7,.18,1.96-3.8,10.68-2.08-7.9,.27-8.66,11.14-4.11,15.95,2.83-2.31,1.4,.76,1.78,2.37,1.95-3.71,6.76-3.85,4.23,1.11,2.41,.53-1.76,2.19-1.99,2.82,1.61,4.69-2.7,10.04,4.93,11.24-1.81,1.92-3.86,.62-4.78-1.38-3,.3-.24,3.09,1.17,3.83-1.47,.03-3.29-1.21-4.11-2.35-3.43,1.44-8.48,1.18-11.59,3.54-1.37,3.28-5.86,4.93-7.48,7.87,1.38-.75,3.74,.7,3.66-1.32,2.02,.11,6.38-3.4,4.49,1.27,1.58,1.38,1.95,2.06-.11,3.16,3.15,2.28,.46,8.28-3.33,9.2-3.37,3.06-8.6,3.15-12.14,5.95,3.06-.33,4.25,2.48,.94,3.39l3.55,.61c-1.32,.88-.46,1.06,.49,1.62,7.33-2.65,4.7-3.98,11.42-.79-6.69,1.26,.92,3.67,1.39,1.41,2.74-1.74,4.31,2.55,6.04,4.08,5.52,.71,9.99-4.7,14.81-6.93-1.59,2.01-5.08,5.72-6.99,7.4,1.07,4.45-3.42,5.22-6.6,3.36-13.06-3.02-7.59,4.21-14.59,4.45,.41,4.02-2.13,9-6.44,9.15,.16,2.49-2.01,2.64-2.61,4.4-.95,.63-3.7,3.37-4.98,1.93-2.6,1.19-3.88,4.65,.23,4.06-.46-3.01,1.57-1.32,3.27-1.14,1.07,1.68,1.17,2.96,2.84,.84-2.26-3.57,4.92-2.05,5.31-6,3.01,1.9,7.27-2.33,8.97,.99,2.06-.55,3.46,2.4,5.77,1.44-.95-2.36,3.38-2.75,1.38-6.32,3.41-3.48,10.49-5.82,14.59-1.58,1.65-.85,4.82-.38,6.44,.36,.87-4.98,6.65-2.2,9.26-5.21,4.05,1.35,3.59-1.85,7.05,1.37,4.51-4.15,12.41,.93,16.36-2.66,2.87,.16,4.45-3.76,7.44-2.23-1.3-2.4,3.37-4.11,5.16-4.4,.58-5.59-.98-6.64-6.33-4.25"/><path class="cls-5" d="M233.85,325.8c-.88-3.26-3.37-6.78-4.69-10.17-4.28-.95-7.75,.81-4.96,5.18-2.29,1.02-7.53,3.13-7.07-1.17,2.15-1.3,4.19-.18,3.38-3.58-2.29-9.45,19.48-16.53,8.55-20.5,4.33-6.44,6.48,2.66,13.53-1.79-3.46-4.59-5.59-7.67-2.64-13.74,3.33-2.87,2.23-9.36,6.87-11.93-5.33-3.2-12.58-4.13-18.59-2.54-2.65-1.37-2.49-4.78-5.29-6.01-2.84,1.13-6.52,.07-7.5-2.96-1.16-.05-2.78-.06-3.6,.85-1.32-1.24-3.75-2.39-5.6-2.11-1.92-2.59-5.13-6.21-8.35-6.14-1.25,1.76-3.31,.14-4.65-.53,.68-3.46-2.33-6.65-5.8-6.33-3.5-1.6-4.24-6.62-8.03-7.08-.07-1.13-.86-8.3-2.76-5.51-3.48,1.89-7.67,.51-10.65,3.22-1.55,3.18,.11,8.3-1.22,11.75-.88,1.18-5.16,4.01-4.22,5.86-4.99,2.29-10.95-.36-15.3,3.55-4.4,5.6,8.49,5.21-5.43,8.53-3.14,.49-8.06-3.14-10.42-.88-.57-2.43-3.9-3.13-1.89-5.77-2.78-2.15-6.73,1.15-9.76-.99,.49,1.15,1.29,3.7,.44,4.77,3.84,2.58,5.49,6.1,4.1,10.42,7.56,8.74-11.87,.9-14.3,6.42-6.83-12.62-10.43-1-17.19-3.1-1.54-.12-4.07,.71-4.88,2.22-2.44-.23-8.49,1.13-5.32,4.54,1.73-.9,4.8-1.17,5.77,.9-2.58-.66-5.68-1.2-3.44,2.44,.8-1.6,.75-2.51,2.66-1.44,2.17,3.36-4.16,2-3.76,4.33,2.58-.69,3.05,1.13,3.66,3.1-1.32,4.06,2.76-1.78,4.77,.33,3.62-1.57,6.51,3.42,9.32,3.22,3.41,3.57,3.86-.11,6.98,.32-1.31,2.94,.85,2.73,2.66,1.23,2,.92,.94,2.89,.33,4.31,2.06,5.63,8.4-3.46,10.76,3.32-2.25-1.82-5.48-1.89-6.65,1.11,2.8,.51,2.13,4.33,.77,6,.04,1.8,1.45,2.2,2.99,2.22,1.98,4.38,7.06,4.9,10.65,7.09-.66,2.67,2.65,6-.56,7.88-1.73,3.96,7.86,4.05,9.64,14.85-9.5-13.45-10.16-9.69-10.54,4.88,0,0,2.33,1.56,2.33,1.56-2.94,.24-2.19,9.7-2.66,11.42-.67,2.81-2.42,10.16-6.04,10.66,.79,.31,2.69,1.35,2.84,2.13,2.21-.36,2.01,1.95,2.33,3.39-1.54,3.74,1.93,1.62,3.91,1.79,0,0,5.82,2.32,5.82,2.32,1.69,2.08,3.18,3.62,5.7,1.59,1.63,2.24,4.41,4.14,7.3,3.26,2.74,1.97,8.21-4.98,13.73-.42,2.51-.93,6.23,.37,8.24,1.91,3.53-.95,9.04-.4,11.73,2.31,5.07,2-5.71-8.81,10.44-20.85,4.12-.13,8.41,3.8,12.64,3.66,3.95-5.38,12.14,3.4,15.63,5.65,8.11,1.49,7.79-1.1,11.32-6.67,1.46-2.19,12.57-6.49,8.73-10.11,4.6-7.03-3.64-2.84-7.19-7.61-.03-3.52-.65-9.49-4.24-11.42,.92-1.76,3.57-2.92,5.51-2.75,3.1-4.58-5.54-9.17-.83-12.39"/><path class="cls-3" d="M233.85,325.8c-.88-3.26-3.37-6.78-4.69-10.17-4.28-.95-7.75,.81-4.96,5.18-2.29,1.02-7.53,3.13-7.07-1.17,2.15-1.3,4.19-.18,3.38-3.58-2.29-9.45,19.48-16.53,8.55-20.5,4.33-6.44,6.48,2.66,13.53-1.79-3.46-4.59-5.59-7.67-2.64-13.74,3.33-2.87,2.23-9.36,6.87-11.93-5.33-3.2-12.58-4.13-18.59-2.54-2.65-1.37-2.49-4.78-5.29-6.01-2.84,1.13-6.52,.07-7.5-2.96-1.16-.05-2.78-.06-3.6,.85-1.32-1.24-3.75-2.39-5.6-2.11-1.92-2.59-5.13-6.21-8.35-6.14-1.25,1.76-3.31,.14-4.65-.53,.68-3.46-2.33-6.65-5.8-6.33-3.5-1.6-4.24-6.62-8.03-7.08-.07-1.13-.86-8.3-2.76-5.51-3.48,1.89-7.67,.51-10.65,3.22-1.55,3.18,.11,8.3-1.22,11.75-.88,1.18-5.16,4.01-4.22,5.86-4.99,2.29-10.95-.36-15.3,3.55-4.4,5.6,8.49,5.21-5.43,8.53-3.14,.49-8.06-3.14-10.42-.88-.57-2.43-3.9-3.13-1.89-5.77-2.78-2.15-6.73,1.15-9.76-.99,.49,1.15,1.29,3.7,.44,4.77,3.84,2.58,5.49,6.1,4.1,10.42,7.56,8.74-11.87,.9-14.3,6.42-6.83-12.62-10.43-1-17.19-3.1-1.54-.12-4.07,.71-4.88,2.22-2.44-.23-8.49,1.13-5.32,4.54,1.73-.9,4.8-1.17,5.77,.9-2.58-.66-5.68-1.2-3.44,2.44,.8-1.6,.75-2.51,2.66-1.44,2.17,3.36-4.16,2-3.76,4.33,2.58-.69,3.05,1.13,3.66,3.1-1.32,4.06,2.76-1.78,4.77,.33,3.62-1.57,6.51,3.42,9.32,3.22,3.41,3.57,3.86-.11,6.98,.32-1.31,2.94,.85,2.73,2.66,1.23,2,.92,.94,2.89,.33,4.31,2.06,5.63,8.4-3.46,10.76,3.32-2.25-1.82-5.48-1.89-6.65,1.11,2.8,.51,2.13,4.33,.77,6,.04,1.8,1.45,2.2,2.99,2.22,1.98,4.38,7.06,4.9,10.65,7.09-.66,2.67,2.65,6-.56,7.88-1.73,3.96,7.86,4.05,9.64,14.85-9.5-13.45-10.16-9.69-10.54,4.88,0,0,2.33,1.56,2.33,1.56-2.94,.24-2.19,9.7-2.66,11.42-.67,2.81-2.42,10.16-6.04,10.66,.79,.31,2.69,1.35,2.84,2.13,2.21-.36,2.01,1.95,2.33,3.39-1.54,3.74,1.93,1.62,3.91,1.79,0,0,5.82,2.32,5.82,2.32,1.69,2.08,3.18,3.62,5.7,1.59,1.63,2.24,4.41,4.14,7.3,3.26,2.74,1.97,8.21-4.98,13.73-.42,2.51-.93,6.23,.37,8.24,1.91,3.53-.95,9.04-.4,11.73,2.31,5.07,2-5.71-8.81,10.44-20.85,4.12-.13,8.41,3.8,12.64,3.66,3.95-5.38,12.14,3.4,15.63,5.65,8.11,1.49,7.79-1.1,11.32-6.67,1.46-2.19,12.57-6.49,8.73-10.11,4.6-7.03-3.64-2.84-7.19-7.61-.03-3.52-.65-9.49-4.24-11.42,.92-1.76,3.57-2.92,5.51-2.75,3.1-4.58-5.54-9.17-.83-12.39Z"/><path class="cls-5" d="M264.47,406.36c-10.27-2.93-.43-5.28-4.88-5.88,.72-4.03-4.12-1.86-1.66-6.33-4.61-2.45-1.8-2.31-.44-4.54-4.96-3.99,4.69-5.85,6.54-8.43,2.58,4.12,4.33,.12,2.44-2.66,3.46-12.31,5.7,28.94-2,27.84"/><path class="cls-3" d="M264.47,406.36c-10.27-2.93-.43-5.28-4.88-5.88,.72-4.03-4.12-1.86-1.66-6.33-4.61-2.45-1.8-2.31-.44-4.54-4.96-3.99,4.69-5.85,6.54-8.43,2.58,4.12,4.33,.12,2.44-2.66,3.46-12.31,5.7,28.94-2,27.84Z"/><path class="cls-5" d="M241.59,363.12c-2.94-4.12,4.51-8.94-3.53-7.59-7-2.12-3.21-11.14-8.89-14.59,1.14-1.72,3.41-2.94,5.51-2.75,3.09-4.85-5.18-8.39-1.07-12.48,2.99,2.74,6.8-1.37,9.11-2.98,4.83,5.03,6.81-5.05,9.09-7.4,2.65,1.25,3.89,2.61,2.96,5.5,6.35,1.72,5.28,8.57,9.1,0-1.23-5.99,2.87-2.88,6.35-2.32,1.87-.61,3.85,.53,5.07,1.9-1.39-9.15,9.11-3.17,4.86-11.42,2.01-3.57,4.53-3.66,7.85-1.49,4.34-3.74,10.51-4.27,15.85-4.01-1.9,6.35,11.32,7.94,15.67,8.87,6.5-1.29,8.14,1.59,3.58,6.35,1.9,2.8-2.03,6.74-.12,10.29-2.8-1.32-5.65-.2-7.41,2.28-2.22-.56-4.86,.96-6.19,2.67-9.85,.33,2.5,7.99-3.01,11.65-2.66,13.9,8.93,11.69,14.09,18.95,10.3,7.42,11.52,21.07,22.14,28.05,4.99,6.13,14.53,2.25,20.65,5.21,.22,1.89-2.96,3.71-4.22,4.56-.84,5.14,6.79,3.41,9.87,4.98,5.25,2.83,15.35,7.68,18.97,12.63,4.47,.56,9.97,3.23,7.88,8.66-2.2,4.64-.94,8.56-6.44,2.03-1.82-4.88-.46-6.6-6.99-5.91-8.72-9.4-7.68,6.51-12.3,9.2-.37,6.92,11.5,2.88,7.53,16.73-7.76,.58-2.7,10.93-9.32,13.2,.51,7.46-10.17,8.44-10.19,.89,2.96-2.58,5.74-5.3,4.21-9.76,3.82-.71,4.8-4.79,1.99-7.55-2.36-5.21-2.37-14.23-6.86-17.63-2.1,1.86-6.13,.43-6.65-2.32-4.7,.43-4.17-2.23-3.45-5.76-1-4.48-8-.52-6.87-4.54-5.62-.61-6.71-1.67-9.1-7.22-1.6,.1-4.48-.68-5.88-1.44-.92,1.35-2.92,2.16-4.54,1.78-1.24-5.27-12.68-6.38-17.52-16.52-2.67-.34-2.94-4.95-5.11-6.54-4.85,1.26-4.92-4.36-8.64-6.55-1.92-3.45-7.14-3.73-5.56-8.53-3.45-2.32-4.24-8.52-7.11-12.15-5.32-6.21-18.74-10.41-25.7-3.83,.99,5.34-5.93,6.52-9.68,6.89"/><path class="cls-3" d="M241.59,363.12c-2.94-4.12,4.51-8.94-3.53-7.59-7-2.12-3.21-11.14-8.89-14.59,1.14-1.72,3.41-2.94,5.51-2.75,3.09-4.85-5.18-8.39-1.07-12.48,2.99,2.74,6.8-1.37,9.11-2.98,4.83,5.03,6.81-5.05,9.09-7.4,2.65,1.25,3.89,2.61,2.96,5.5,6.35,1.72,5.28,8.57,9.1,0-1.23-5.99,2.87-2.88,6.35-2.32,1.87-.61,3.85,.53,5.07,1.9-1.39-9.15,9.11-3.17,4.86-11.42,2.01-3.57,4.53-3.66,7.85-1.49,4.34-3.74,10.51-4.27,15.85-4.01-1.9,6.35,11.32,7.94,15.67,8.87,6.5-1.29,8.14,1.59,3.58,6.35,1.9,2.8-2.03,6.74-.12,10.29-2.8-1.32-5.65-.2-7.41,2.28-2.22-.56-4.86,.96-6.19,2.67-9.85,.33,2.5,7.99-3.01,11.65-2.66,13.9,8.93,11.69,14.09,18.95,10.3,7.42,11.52,21.07,22.14,28.05,4.99,6.13,14.53,2.25,20.65,5.21,.22,1.89-2.96,3.71-4.22,4.56-.84,5.14,6.79,3.41,9.87,4.98,5.25,2.83,15.35,7.68,18.97,12.63,4.47,.56,9.97,3.23,7.88,8.66-2.2,4.64-.94,8.56-6.44,2.03-1.82-4.88-.46-6.6-6.99-5.91-8.72-9.4-7.68,6.51-12.3,9.2-.37,6.92,11.5,2.88,7.53,16.73-7.76,.58-2.7,10.93-9.32,13.2,.51,7.46-10.17,8.44-10.19,.89,2.96-2.58,5.74-5.3,4.21-9.76,3.82-.71,4.8-4.79,1.99-7.55-2.36-5.21-2.37-14.23-6.86-17.63-2.1,1.86-6.13,.43-6.65-2.32-4.7,.43-4.17-2.23-3.45-5.76-1-4.48-8-.52-6.87-4.54-5.62-.61-6.71-1.67-9.1-7.22-1.6,.1-4.48-.68-5.88-1.44-.92,1.35-2.92,2.16-4.54,1.78-1.24-5.27-12.68-6.38-17.52-16.52-2.67-.34-2.94-4.95-5.11-6.54-4.85,1.26-4.92-4.36-8.64-6.55-1.92-3.45-7.14-3.73-5.56-8.53-3.45-2.32-4.24-8.52-7.11-12.15-5.32-6.21-18.74-10.41-25.7-3.83,.99,5.34-5.93,6.52-9.68,6.89Z"/><path class="cls-5" d="M259.91,452.04c1.3-1.06,3.16,.45,4.67-.88-.63-4.33,2.49-7.51,5.65-3.33,1.53,.47,2.3-.9,2.77-2.13-1.18-6.87,3.79-17.37-2.77-21.5,7.41-2.87,1.19-9.39-1.11-13.74-7.72,.14-3.65-3.55-11.2,5.65-1.68,.65-4.36-.96-5.65-1.89-.78,4.59,.86,8.4,4.22,11.54,1.1,3.58-5.26,8.01,1.66,7.64-3.51,5.52-3.22,13.6,1.76,18.63"/><path class="cls-3" d="M259.91,452.04c1.3-1.06,3.16,.45,4.67-.88-.63-4.33,2.49-7.51,5.65-3.33,1.53,.47,2.3-.9,2.77-2.13-1.18-6.87,3.79-17.37-2.77-21.5,7.41-2.87,1.19-9.39-1.11-13.74-7.72,.14-3.65-3.55-11.2,5.65-1.68,.65-4.36-.96-5.65-1.89-.78,4.59,.86,8.4,4.22,11.54,1.1,3.58-5.26,8.01,1.66,7.64-3.51,5.52-3.22,13.6,1.76,18.63Z"/><path class="cls-5" d="M352.74,490.63c3.08-14.49-4.78-7.25,.88-19.41,3.26-1.96,4.32-6.53,.99-8.97-2.34,3.12-5.18,4.44-8.41,1.55-1.66,3.62-6.5,3.45-9.77,2.89-2.32,1-6.9,2.05-9.31,.88-3.15-4.21-7.18,.96-8.76-1.44-5.06,.99-5.03,7-.89,9.32,3.99-2,7.75,3.96,11.65,3.98,1.58,2.38,8,6.61,10.64,4.56,3.35,2.97,7.32,8.45,12.98,6.65"/><path class="cls-3" d="M352.74,490.63c3.08-14.49-4.78-7.25,.88-19.41,3.26-1.96,4.32-6.53,.99-8.97-2.34,3.12-5.18,4.44-8.41,1.55-1.66,3.62-6.5,3.45-9.77,2.89-2.32,1-6.9,2.05-9.31,.88-3.15-4.21-7.18,.96-8.76-1.44-5.06,.99-5.03,7-.89,9.32,3.99-2,7.75,3.96,11.65,3.98,1.58,2.38,8,6.61,10.64,4.56,3.35,2.97,7.32,8.45,12.98,6.65Z"/><path class="cls-5" d="M120.26,370c3.36,1.7,6.34,3.47,4.74,7.84,6.47-3.12,11.24,6.31,15.85,3.39,1.43,2.4,4.55,4.02,7.3,3.26,1.76,2.02,3.35-.29,4.54-1.58,5.63-.1,12.62,.09,17.43,3.07,4.17-1.13,12.5,.19,13.74,4.51-3.15,.83-1.88,3.99-1.55,6.21,.61,4.73-3.59,7.99-7.4,9.7-2.13,4.54-8.38,5.53-12.78,4.77-1.69,1.29-5.05,3.5-6.96,4.36,3.97,1.24-1.54,7.83-1.03,5.24-1.59-1.91-13.07,14.9-14.41,17.52-3.92,4.89,4.88,10.99,7.32,15.42-1.55,2.25-5.41,4.11-8.09,4.31,1.33,2.87-3.09,7.91-4.55,9.98-.9,5.23,2.28,8.45-5.54,7.65-7.56,1.87-9.08,6.79-12.31,12.76-6.5-3.07-4.35-5.12-9.65,.67-1.43-1.48-4.72-3.28-5.99-.79-2.43,.06-7.65-1.41-9.99-2.09-3.99,1.93-9.72,2.04-12.28,6.58-2.83,.11-8.57,.62-7.57,4.86-13.09,9-14.51-11.87-22.12-16.69-7.59,.38-5.8-2.94-8.94-7.97,1.09-4.47,6.99-7.96,7.4-12.06-13.27-1.35,7.54-12.39-4.24-17.14-8.17-12.45,2.51-3.61,6.15-12.91-4.89-3.2,2.68-5.07,1.05-15.02-3.11-6.48,7.36-7.68,7.84-12.06-1.42-1.67-3.81-5.45-3.39-7.84-2.73-.34-8.31-1.71-9.73,1.91-7.17-3.71-13.1,2.7-14.18-1.28,2.5-5.94-5.64-3.02-8.55-2.81-1.17-2.31,7.25-3.91,.92-4.27,2.46-1.57-.06-3.49,1.22-5.98l-2.33,2.2c-2.81-.14,1.43-4.95-1.56-5.1,.55-2.08-.39-1.49-1.76-.99-3.87-4.67,3.6-9.75,7.65-7.43,15.1-1.57-4.74-4.26,13.08-8.99,2.73-.18,5.48,2.52,6.77,4.66,3.48-4.96,8.74,.93,12.86-2.34,3.69-2.18,6.27,.21,9.42,2.11,3.22,.51,12.17,1.87,15.2,2.76,11.93-8.46,14.68,5.73,21.29-1.87,7.54,.14,7.16,6.97,15.13,1.46"/><path class="cls-3" d="M120.26,370c3.36,1.7,6.34,3.47,4.74,7.84,6.47-3.12,11.24,6.31,15.85,3.39,1.43,2.4,4.55,4.02,7.3,3.26,1.76,2.02,3.35-.29,4.54-1.58,5.63-.1,12.62,.09,17.43,3.07,4.17-1.13,12.5,.19,13.74,4.51-3.15,.83-1.88,3.99-1.55,6.21,.61,4.73-3.59,7.99-7.4,9.7-2.13,4.54-8.38,5.53-12.78,4.77-1.69,1.29-5.05,3.5-6.96,4.36,3.97,1.24-1.54,7.83-1.03,5.24-1.59-1.91-13.07,14.9-14.41,17.52-3.92,4.89,4.88,10.99,7.32,15.42-1.55,2.25-5.41,4.11-8.09,4.31,1.33,2.87-3.09,7.91-4.55,9.98-.9,5.23,2.28,8.45-5.54,7.65-7.56,1.87-9.08,6.79-12.31,12.76-6.5-3.07-4.35-5.12-9.65,.67-1.43-1.48-4.72-3.28-5.99-.79-2.43,.06-7.65-1.41-9.99-2.09-3.99,1.93-9.72,2.04-12.28,6.58-2.83,.11-8.57,.62-7.57,4.86-13.09,9-14.51-11.87-22.12-16.69-7.59,.38-5.8-2.94-8.94-7.97,1.09-4.47,6.99-7.96,7.4-12.06-13.27-1.35,7.54-12.39-4.24-17.14-8.17-12.45,2.51-3.61,6.15-12.91-4.89-3.2,2.68-5.07,1.05-15.02-3.11-6.48,7.36-7.68,7.84-12.06-1.42-1.67-3.81-5.45-3.39-7.84-2.73-.34-8.31-1.71-9.73,1.91-7.17-3.71-13.1,2.7-14.18-1.28,2.5-5.94-5.64-3.02-8.55-2.81-1.17-2.31,7.25-3.91,.92-4.27,2.46-1.57-.06-3.49,1.22-5.98l-2.33,2.2c-2.81-.14,1.43-4.95-1.56-5.1,.55-2.08-.39-1.49-1.76-.99-3.87-4.67,3.6-9.75,7.65-7.43,15.1-1.57-4.74-4.26,13.08-8.99,2.73-.18,5.48,2.52,6.77,4.66,3.48-4.96,8.74,.93,12.86-2.34,3.69-2.18,6.27,.21,9.42,2.11,3.22,.51,12.17,1.87,15.2,2.76,11.93-8.46,14.68,5.73,21.29-1.87,7.54,.14,7.16,6.97,15.13,1.46Z"/><path class="cls-5" d="M42.14,479.75c-1.27,2.26-6.85,1.53-8.87,4-1.66-1.22-6.86-3.41-8.87-4.1-.97,.13-4.55,4.44-5.44,2.11,4.74-6.89,.91-17.89,4.32-24.3-4.08-1.3-8.26,5.25-7.08-2.54,3.8-1.36,3.9-1.98,3.98-5.54-15.89,14.06-1.97-14.77,1.66-19.74-.29-3.5,1.09-8.06,3.55-10.65-3.7-3.43-.37-12.26-.56-17.19-3.26-5.55-3.35-9.31,4.03-9.06,5.87,.52-2.12,10.05,8.18,3.41,7.76,3.39,10.39-2.37,17.78-.21-.35,2.44,1.87,6.09,3.39,7.84-9.99,11.35-7.84,3.14-8.26,21.38-2.44,2.14-3.94,3.48-.63,5.69-1.98,4.56-5.54,5.29-9.95,5.71,1.2,2.54,4.1,8.6,7.2,9.31,1.15,4-1.11,8.37-4.44,10.58,.86,2.21,2.34,5.27,5.29,4.45-.3,4.08-6.46,7.64-7.4,12.06,1.25,1.41,2.86,5.11,2.12,6.79"/><path class="cls-3" d="M42.14,479.75c-1.27,2.26-6.85,1.53-8.87,4-1.66-1.22-6.86-3.41-8.87-4.1-.97,.13-4.55,4.44-5.44,2.11,4.74-6.89,.91-17.89,4.32-24.3-4.08-1.3-8.26,5.25-7.08-2.54,3.8-1.36,3.9-1.98,3.98-5.54-15.89,14.06-1.97-14.77,1.66-19.74-.29-3.5,1.09-8.06,3.55-10.65-3.7-3.43-.37-12.26-.56-17.19-3.26-5.55-3.35-9.31,4.03-9.06,5.87,.52-2.12,10.05,8.18,3.41,7.76,3.39,10.39-2.37,17.78-.21-.35,2.44,1.87,6.09,3.39,7.84-9.99,11.35-7.84,3.14-8.26,21.38-2.44,2.14-3.94,3.48-.63,5.69-1.98,4.56-5.54,5.29-9.95,5.71,1.2,2.54,4.1,8.6,7.2,9.31,1.15,4-1.11,8.37-4.44,10.58,.86,2.21,2.34,5.27,5.29,4.45-.3,4.08-6.46,7.64-7.4,12.06,1.25,1.41,2.86,5.11,2.12,6.79Z"/><path class="cls-5" d="M507.4,396.12c-14.92,3.11,9.02,13.04-20.68,9.61-1.82,2.08-5.44,2.41-5.18-1.06-1.9,.24-5.55-.05-7.4-.52-2.57,3.5-8.83,4.35-12.57,2.52-3.73,2.94-10.23,4.4-15.2,3.58-9.47,6.86-11.8,3.92-16.17,16.39-7.61,.42-5.3,7.84-9.63,10.83-1.03,3.67,2.9,6.57,5.56,8.22,.87,.86,2.8,5.14,4.45,4.69-1.36,1.16,3.39,6.15,3.77,7.08,.48,4.3,2.78,6.33,5.33,1.78,3.85,6.41,5.4,.79,9.54,1.23,3.15,3.47,6.61,0,6.65,3.22,2.14-.5,4.25,1.82,6.55,1.66-2.5,.86-3.97,4.9-6.21,1.67-4.71-.8-8.81-6.96-13.42-2.11-3.04-2.77-3.46,1.52-6.2,1.9-2.93,8.72,11.88,4.9,7.74,16.84,4.77,5.58,4.06,7.43,5.67-.44-.05,4.66,7.84,4.07,5.21,9.43,3.61,5.66-.36-7.67,5.54-5.44,.15,2.28,3.72,4.53,5.43,5.54-1.85-5.12-4.5-11.33-6.55-16.52,1.33-.7,3.89,.81,5,1.44-.94,.78-1.08,1.58,0,2.32,1.05-3.42,5.03,.73,5.1-1.78-.77-.45-1.66-1.26-1.61-2.23-1.35-.4-4.36-1.46-3.39-3.31-4.71-2.52-1.08-3.62,2.44-3.31,1.31-2.71,5.46,.95,5.98,2.64,4.95,1.43,3.15-2.62,1.11-4.88,3.07-7.91-10.39-9.07-13.3-13.09-2,.33-4.55-1.45-5.77-2.87,1.8,.08,4.06-.88,4.87-2.57,.58-1.85-1.83-1.95-2.99-2.32,2.16-1.53,.53-4.77,3.67-2.82,2.52,1.15,.86,2.63,1.32,4.65,3.08-.16,2.84-4.75,.67-6.14-3.34-3.57-6.56-8.84-10.2-11.77,2.61-3.47-1.48-11.42,6.11-11.07,1.47,3.73-1.73,1.91-.9,4.42,5.89,.69,4.27,9.6,11.09,7.88-3.39-1.24-5.51-7.61-.11-4.77,2.97,6.77,9.07,2.15,1.22-.33-.69-3.28,6.74-1.46,7.55,.55,3.14-4.08-12.26-4.42-6.54-9.2,5.65,3.43,4.63-4.33,8.43-5.09,5.37,5.46,6.4,.84,9.64-1.55,.97,2.88,5.71,2.36,7.99,2.31,4.88,2.55,11.14-.06,8.73-6.17,.94-.47,1.68-.91,2.27-1.31v-5.47c-.78-1.1-1.36-2.41-.59-4.26"/><path class="cls-3" d="M507.4,396.12c-14.92,3.11,9.02,13.04-20.68,9.61-1.82,2.08-5.44,2.41-5.18-1.06-1.9,.24-5.55-.05-7.4-.52-2.57,3.5-8.83,4.35-12.57,2.52-3.73,2.94-10.23,4.4-15.2,3.58-9.47,6.86-11.8,3.92-16.17,16.39-7.61,.42-5.3,7.84-9.63,10.83-1.03,3.67,2.9,6.57,5.56,8.22,.87,.86,2.8,5.14,4.45,4.69-1.36,1.16,3.39,6.15,3.77,7.08,.48,4.3,2.78,6.33,5.33,1.78,3.85,6.41,5.4,.79,9.54,1.23,3.15,3.47,6.61,0,6.65,3.22,2.14-.5,4.25,1.82,6.55,1.66-2.5,.86-3.97,4.9-6.21,1.67-4.71-.8-8.81-6.96-13.42-2.11-3.04-2.77-3.46,1.52-6.2,1.9-2.93,8.72,11.88,4.9,7.74,16.84,4.77,5.58,4.06,7.43,5.67-.44-.05,4.66,7.84,4.07,5.21,9.43,3.61,5.66-.36-7.67,5.54-5.44,.15,2.28,3.72,4.53,5.43,5.54-1.85-5.12-4.5-11.33-6.55-16.52,1.33-.7,3.89,.81,5,1.44-.94,.78-1.08,1.58,0,2.32,1.05-3.42,5.03,.73,5.1-1.78-.77-.45-1.66-1.26-1.61-2.23-1.35-.4-4.36-1.46-3.39-3.31-4.71-2.52-1.08-3.62,2.44-3.31,1.31-2.71,5.46,.95,5.98,2.64,4.95,1.43,3.15-2.62,1.11-4.88,3.07-7.91-10.39-9.07-13.3-13.09-2,.33-4.55-1.45-5.77-2.87,1.8,.08,4.06-.88,4.87-2.57,.58-1.85-1.83-1.95-2.99-2.32,2.16-1.53,.53-4.77,3.67-2.82,2.52,1.15,.86,2.63,1.32,4.65,3.08-.16,2.84-4.75,.67-6.14-3.34-3.57-6.56-8.84-10.2-11.77,2.61-3.47-1.48-11.42,6.11-11.07,1.47,3.73-1.73,1.91-.9,4.42,5.89,.69,4.27,9.6,11.09,7.88-3.39-1.24-5.51-7.61-.11-4.77,2.97,6.77,9.07,2.15,1.22-.33-.69-3.28,6.74-1.46,7.55,.55,3.14-4.08-12.26-4.42-6.54-9.2,5.65,3.43,4.63-4.33,8.43-5.09,5.37,5.46,6.4,.84,9.64-1.55,.97,2.88,5.71,2.36,7.99,2.31,4.88,2.55,11.14-.06,8.73-6.17,.94-.47,1.68-.91,2.27-1.31v-5.47c-.78-1.1-1.36-2.41-.59-4.26Z"/><path class="cls-5" d="M248.44,150.79c7.24-.93,13.23,3.13,19.13,4.97-.31,2.23-3.94,4.46-2.22,6.42,3.43-.07,2.31,4.92,5.47,1.46,2.86-6.3,5.18,6.04,10.06-1.05,4.48,3.66-2.7,5.36-5.07,6.97,1.06,.24,4.09,1.64,5.03,.5,7.18,1.82,4.54,4.07,9.19-3.33,3.58,.26,5.82-2.19,8.46-3.64-.25-3,3.7-1.89,5.41-1.78-11.22,5.23-4.79,4.49,2.49,1.53,1.36,1.87,5.75,3.1,7.21,5.65,2.14-.67,3.82-.33,4.65,2.01-2.33,5.43,4.22,3.59,6.32,6.09,4.95-1.61,4.01,8.33,3.81,11.3-1.44,1.05-5.09,1.67-4.13,4.13,5.15,4.04,4.92,10.26,7.39,15.84-3.06,4.3,2.75,9,5.16,11.92,1.07,9.71-.3,10.94-9.7,9.1,1.17,5.81-6.05,3.12-9.4,3.7-.74,2.06-2.69,2.86-4.75,2.54-2.25,3.39-8.05,4.65-10.57,8.25-6.09-4.5-6.97,.82-1.09,3.11,2.87,2.66,2.77,7.22,3.66,10.49,6.99,4.3,18.21,9.96,16.25,19.41-2.13-.75-3.26,1.35-4.02,2.92-16.25,9.09,1.41,9.32-4.75,14.14-3.32-2.47-8.26-1.25-12.25-1.6-2.42,1.58-6.43,4.92-9.51,2.86-21.92-3.98-5.78,4.21-16.9,1.38-2.11-4.82-5.77,1.54-8.55-1.38-5.28-6.45-8.68,1.89-10.36-5.07-3.29,.2-2.34,2.59-3.7,4.66-2.88-2.36-5.84,.93-8.64-.52-3.16-4.84-5.68-7.21-2.56-13.76,3.26-2.82,2.28-9.4,6.87-11.93-3.87-3.17-9.35-2.47-13.63-3.37-2.81-.19-5.54,1.63-7.51-1.28,.69-1.71-1.67-3.17-2.81-3.9,.9-4.84-2.27-9.83-5.42-13.52-2.33,.92,.92-3.53,.73-4.02-1.94-2.22-2.1-6.61-3.91-9.08,3.49-6.05,.45-14.36,5.6-19.86,2.94-1.99,12.74,2.13,8.14-4.01,1.77-.58,2.33-2.92,2.33-4.54,3.11-4.86-5.24-1.29-4.65-4.98,3.44-8.22,3.39,7.58,8.58-11.8,1.16-4.01-7.24-2.38-4.37-8.67,3.66-.49,8.87-4.22,11.63-.33-1.78,4.88,6.21,8.63,2.56,2.1-.63-3.27,1.93-2.77,3.43-.76-1.03,2.57,1.27,5.37,2.99,6.98-1.65-3.47-2.85-9.2-.22-12.32,2.64-.94,5.2,1.61,7.76-.44,2.04,3.41,6.95,6.45,10.98,6.32-6.03-1.77-10.27-7.56-16.2-8.76-.56-1.74,1.02-3.09,2.34-3.88-4.25-.72-.84-6.93-5.22-3.99-1.18-3.78,2.79-2.01,4.99-3.55-1.18-1.09-4.1-3.13-2.99-5.1-3.07,.27-3.66-2.08-3.5-4.51"/><path class="cls-3" d="M248.44,150.79c7.24-.93,13.23,3.13,19.13,4.97-.31,2.23-3.94,4.46-2.22,6.42,3.43-.07,2.31,4.92,5.47,1.46,2.86-6.3,5.18,6.04,10.06-1.05,4.48,3.66-2.7,5.36-5.07,6.97,1.06,.24,4.09,1.64,5.03,.5,7.18,1.82,4.54,4.07,9.19-3.33,3.58,.26,5.82-2.19,8.46-3.64-.25-3,3.7-1.89,5.41-1.78-11.22,5.23-4.79,4.49,2.49,1.53,1.36,1.87,5.75,3.1,7.21,5.65,2.14-.67,3.82-.33,4.65,2.01-2.33,5.43,4.22,3.59,6.32,6.09,4.95-1.61,4.01,8.33,3.81,11.3-1.44,1.05-5.09,1.67-4.13,4.13,5.15,4.04,4.92,10.26,7.39,15.84-3.06,4.3,2.75,9,5.16,11.92,1.07,9.71-.3,10.94-9.7,9.1,1.17,5.81-6.05,3.12-9.4,3.7-.74,2.06-2.69,2.86-4.75,2.54-2.25,3.39-8.05,4.65-10.57,8.25-6.09-4.5-6.97,.82-1.09,3.11,2.87,2.66,2.77,7.22,3.66,10.49,6.99,4.3,18.21,9.96,16.25,19.41-2.13-.75-3.26,1.35-4.02,2.92-16.25,9.09,1.41,9.32-4.75,14.14-3.32-2.47-8.26-1.25-12.25-1.6-2.42,1.58-6.43,4.92-9.51,2.86-21.92-3.98-5.78,4.21-16.9,1.38-2.11-4.82-5.77,1.54-8.55-1.38-5.28-6.45-8.68,1.89-10.36-5.07-3.29,.2-2.34,2.59-3.7,4.66-2.88-2.36-5.84,.93-8.64-.52-3.16-4.84-5.68-7.21-2.56-13.76,3.26-2.82,2.28-9.4,6.87-11.93-3.87-3.17-9.35-2.47-13.63-3.37-2.81-.19-5.54,1.63-7.51-1.28,.69-1.71-1.67-3.17-2.81-3.9,.9-4.84-2.27-9.83-5.42-13.52-2.33,.92,.92-3.53,.73-4.02-1.94-2.22-2.1-6.61-3.91-9.08,3.49-6.05,.45-14.36,5.6-19.86,2.94-1.99,12.74,2.13,8.14-4.01,1.77-.58,2.33-2.92,2.33-4.54,3.11-4.86-5.24-1.29-4.65-4.98,3.44-8.22,3.39,7.58,8.58-11.8,1.16-4.01-7.24-2.38-4.37-8.67,3.66-.49,8.87-4.22,11.63-.33-1.78,4.88,6.21,8.63,2.56,2.1-.63-3.27,1.93-2.77,3.43-.76-1.03,2.57,1.27,5.37,2.99,6.98-1.65-3.47-2.85-9.2-.22-12.32,2.64-.94,5.2,1.61,7.76-.44,2.04,3.41,6.95,6.45,10.98,6.32-6.03-1.77-10.27-7.56-16.2-8.76-.56-1.74,1.02-3.09,2.34-3.88-4.25-.72-.84-6.93-5.22-3.99-1.18-3.78,2.79-2.01,4.99-3.55-1.18-1.09-4.1-3.13-2.99-5.1-3.07,.27-3.66-2.08-3.5-4.51Z"/><path class="cls-7" d="M283.1,46.84c.95,0,1.72-.77,1.72-1.72s-.77-1.72-1.72-1.72-1.72,.77-1.72,1.72,.77,1.72,1.72,1.72"/><path class="cls-7" d="M198.37,69.57c.95,0,1.72-.77,1.72-1.72s-.77-1.72-1.72-1.72-1.72,.77-1.72,1.72,.77,1.72,1.72,1.72"/><path class="cls-7" d="M311.34,3.44c.95,0,1.72-.77,1.72-1.72S312.29,0,311.34,0s-1.72,.77-1.72,1.72,.77,1.72,1.72,1.72"/><path class="cls-7" d="M375.4,79.9c.95,0,1.72-.77,1.72-1.72s-.77-1.72-1.72-1.72-1.72,.77-1.72,1.72,.77,1.72,1.72,1.72"/><path class="cls-7" d="M96.43,16.53c.95,0,1.72-.77,1.72-1.72s-.77-1.72-1.72-1.72-1.72,.77-1.72,1.72,.77,1.72,1.72,1.72"/><path class="cls-7" d="M73.01,288.61c.95,0,1.72-.77,1.72-1.72s-.77-1.72-1.72-1.72-1.72,.77-1.72,1.72,.77,1.72,1.72,1.72"/><path class="cls-7" d="M1.72,307.2c.95,0,1.72-.77,1.72-1.72s-.77-1.72-1.72-1.72-1.72,.77-1.72,1.72,.77,1.72,1.72,1.72"/><path class="cls-7" d="M200.1,478.03c.95,0,1.72-.77,1.72-1.72s-.77-1.72-1.72-1.72-1.72,.77-1.72,1.72,.77,1.72,1.72,1.72"/><path class="cls-7" d="M228.68,427.06c.95,0,1.72-.77,1.72-1.72s-.77-1.72-1.72-1.72-1.72,.77-1.72,1.72,.77,1.72,1.72,1.72"/><path class="cls-7" d="M313.06,443.59c.95,0,1.72-.77,1.72-1.72s-.77-1.72-1.72-1.72-1.72,.77-1.72,1.72,.77,1.72,1.72,1.72"/><path class="cls-7" d="M391.24,500.15c.95,0,1.72-.77,1.72-1.72s-.77-1.72-1.72-1.72-1.72,.77-1.72,1.72,.77,1.72,1.72,1.72"/><path class="cls-7" d="M492.49,443.59c.95,0,1.72-.77,1.72-1.72s-.77-1.72-1.72-1.72-1.72,.77-1.72,1.72,.77,1.72,1.72,1.72"/><path class="cls-6" d="M219.38,491.11c1.9,0,3.44-1.54,3.44-3.44s-1.54-3.44-3.44-3.44-3.44,1.54-3.44,3.44,1.54,3.44,3.44,3.44"/><path class="cls-6" d="M366.1,498c1.9,0,3.44-1.54,3.44-3.44s-1.54-3.44-3.44-3.44-3.44,1.54-3.44,3.44,1.54,3.44,3.44,3.44"/><path class="cls-6" d="M182.19,102.63c1.9,0,3.44-1.54,3.44-3.44s-1.54-3.44-3.44-3.44-3.44,1.54-3.44,3.44,1.54,3.44,3.44,3.44"/><path class="cls-6" d="M281.37,81.97c1.9,0,3.44-1.54,3.44-3.44s-1.54-3.44-3.44-3.44-3.44,1.54-3.44,3.44,1.54,3.44,3.44,3.44"/><path class="cls-6" d="M268.98,69.57c1.9,0,3.44-1.54,3.44-3.44s-1.54-3.44-3.44-3.44-3.44,1.54-3.44,3.44,1.54,3.44,3.44,3.44"/><path class="cls-6" d="M366.1,31c1.9,0,3.44-1.54,3.44-3.44s-1.54-3.44-3.44-3.44-3.44,1.54-3.44,3.44,1.54,3.44,3.44,3.44"/><path class="cls-6" d="M145.68,27.55c1.9,0,3.44-1.54,3.44-3.44s-1.54-3.44-3.44-3.44-3.44,1.54-3.44,3.44,1.54,3.44,3.44,3.44"/><path class="cls-6" d="M29.27,271.77c1.9,0,3.44-1.54,3.44-3.44s-1.54-3.44-3.44-3.44-3.44,1.54-3.44,3.44,1.54,3.44,3.44,3.44"/><path class="cls-6" d="M59.58,305.83c1.9,0,3.44-1.54,3.44-3.44s-1.54-3.44-3.44-3.44-3.44,1.54-3.44,3.44,1.54,3.44,3.44,3.44"/><path class="cls-6" d="M189.08,435.32c1.9,0,3.44-1.54,3.44-3.44s-1.54-3.44-3.44-3.44-3.44,1.54-3.44,3.44,1.54,3.44,3.44,3.44"/><path class="cls-6" d="M306.86,428.43c1.9,0,3.44-1.54,3.44-3.44s-1.54-3.44-3.44-3.44-3.44,1.54-3.44,3.44,1.54,3.44,3.44,3.44"/><path class="cls-6" d="M400.54,478.72c1.9,0,3.44-1.54,3.44-3.44s-1.54-3.44-3.44-3.44-3.44,1.54-3.44,3.44,1.54,3.44,3.44,3.44"/><path class="cls-6" d="M388.14,143.21c1.9,0,3.44-1.54,3.44-3.44s-1.54-3.44-3.44-3.44-3.44,1.54-3.44,3.44,1.54,3.44,3.44,3.44"/></g></g></svg>