<?xml version="1.0" encoding="UTF-8"?><svg id="Ebene_2" xmlns="http://www.w3.org/2000/svg" xmlns:xlink="http://www.w3.org/1999/xlink" viewBox="0 0 53.5 50.83"><defs><style>.cls-1{fill:none;}.cls-2{clip-path:url(#clippath);}.cls-3{fill:#fff;}.cls-4{fill:#2a7de1;}</style><clipPath id="clippath"><rect class="cls-1" width="53.5" height="50.83"/></clipPath></defs><g id="Ebene_1-2"><rect class="cls-4" width="53.5" height="50.83"/><g class="cls-2"><path class="cls-3" d="M37.16,35.83H16.33v-11.8c5.18,4.32,7.03,5.86,9.94,8.28,.28,.23,.68,.23,.95,0,1.39-1.16,7.38-6.15,9.94-8.28v11.8Zm-17.85-11.26l-2.56-2.13,2.56-2.13v4.26Zm13.39-9.57v10.81l-5.95,4.96-5.95-4.96V15h11.9Zm4.04,7.44l-2.56,2.13v-4.26l2.56,2.13Zm1.91,0c0-.19-.07-.38-.21-.52-.05-.05,.25,.2-4.26-3.55v-4.12c0-.41-.33-.74-.74-.74h-13.39c-.41,0-.74,.33-.74,.74v4.12c-4.56,3.8-4.23,3.51-4.29,3.6-.11,.13-.17,.3-.17,.48v14.13c0,.41,.33,.74,.74,.74h22.32c.41,0,.74-.33,.74-.74,0-14.4,0-14.13,0-14.13"/></g></g></svg>