<?xml version="1.0" encoding="UTF-8"?><svg id="Ebene_2" xmlns="http://www.w3.org/2000/svg" xmlns:xlink="http://www.w3.org/1999/xlink" viewBox="0 0 48.99 56.51"><defs><style>.cls-1{fill:none;}.cls-2{clip-path:url(#clippath);}.cls-3{fill:#00358e;}.cls-4{fill:#2a7de1;}</style><clipPath id="clippath"><rect class="cls-1" width="48.99" height="56.51"/></clipPath></defs><g id="Ebene_2-2"><g class="cls-2"><path class="cls-4" d="m3.42,24.85l22.56,23.45c4.42,4.43,11.37,4.43,15.79,0,4.36-4.51,4.42-11.88.13-16.47-.04-.05-.08-.09-.13-.13L17.92,7.12c-2.44-2.72-6.53-2.85-9.12-.28-.09.09-.18.18-.26.28-2.59,2.58-2.69,6.87-.24,9.59.08.09.16.17.24.25l18.95,19.92c1.05.7,2.45.37,3.11-.73.47-.77.47-1.76,0-2.54l-15.79-16.6,3.11-3.42,15.79,16.43c2.59,2.6,2.68,6.91.21,9.62-.07.08-.14.15-.21.22-2.62,2.64-6.74,2.64-9.36,0L5.43,19.92C1.05,15.46.94,8.12,5.19,3.52,7.29,1.24,10.2-.03,13.23,0c2.96-.05,5.79,1.23,7.8,3.51l23.6,24.95c6.02,6.63,5.78,17.14-.53,23.47-2.85,2.86-6.63,4.5-10.57,4.59-4.1,0-8.03-1.71-10.94-4.74L.3,28.06l3.11-3.2Z"/><path class="cls-3" d="m19.23,18.3c1.41-1.32,1.49-3.53.17-4.95-1.32-1.41-3.53-1.49-4.94-.17-1.41,1.32-1.5,3.53-.17,4.95,1.32,1.41,3.53,1.49,4.95.17"/><path class="cls-3" d="m5.89,30.75c1.41-1.32,1.49-3.53.17-4.95-1.32-1.41-3.53-1.49-4.94-.17-1.41,1.32-1.5,3.53-.17,4.95,1.32,1.41,3.53,1.49,4.95.17"/></g></g></svg>