<?xml version="1.0" encoding="UTF-8"?><svg id="Ebene_2" xmlns="http://www.w3.org/2000/svg" xmlns:xlink="http://www.w3.org/1999/xlink" viewBox="0 0 100.81 101.69"><defs><style>.cls-1{fill:none;}.cls-2{clip-path:url(#clippath);}.cls-3{fill:#00358e;}.cls-4{fill:#fff;}.cls-5{fill:#2a7de1;}</style><clipPath id="clippath"><rect class="cls-1" width="100.81" height="101.69"/></clipPath></defs><g id="Ebene_1-2"><g class="cls-2"><path class="cls-4" d="M50.4,101.69c27.84,0,50.4-22.76,50.4-50.84S78.24,0,50.4,0,0,22.76,0,50.84s22.57,50.84,50.4,50.84"/><path class="cls-3" d="M72.13,76.59h-20.22v-6.79c0-1.14,.01-2.28,0-3.42-.01-.99-.69-1.68-1.62-1.56-.4,.05-.81,.3-1.15,.54-1.25,.86-2.99,.69-3.98-.44-1.05-1.19-1.04-2.9,.03-4.07,1.02-1.12,2.75-1.29,4.01-.34,.59,.44,1.19,.7,1.9,.33,.69-.36,.82-.99,.82-1.7-.01-2.08,0-4.16,0-6.24v-.53h4.71c-.54,2.68,.23,4.87,2.44,6.42,2,1.4,4.19,1.52,6.31,.32,2.6-1.48,3.49-3.83,2.99-6.73h7.77c.01,.07,.02,.1,.02,.14,0,6.5,.01,13.01,0,19.51,0,1.51-.6,2.8-1.87,3.65-.64,.42-1.42,.61-2.14,.9"/><path class="cls-5" d="M24.65,49.33V29.12c.15-.48,.24-.98,.46-1.42,.88-1.76,2.35-2.6,4.3-2.6,6.35,0,12.7,0,19.06,0h.43v5.97c0,1.37,0,2.75,0,4.12,0,.67,.21,1.23,.84,1.54,.62,.31,1.2,.18,1.73-.25,.09-.07,.19-.14,.28-.21,1.62-1.09,3.88-.34,4.51,1.5,.44,1.29,.03,2.64-1.06,3.44-1.07,.79-2.48,.78-3.6-.06-.58-.43-1.17-.67-1.86-.33-.69,.35-.84,.97-.83,1.69,.01,2.08,0,4.15,0,6.23v.55h-4.69c.5-2.69-.25-4.91-2.5-6.45-2.02-1.39-4.24-1.49-6.36-.24-2.54,1.5-3.4,3.82-2.9,6.72h-7.8Z"/><path class="cls-5" d="M48.89,76.59H28.67c-.06-.02-.12-.06-.18-.07-1.16-.18-2.09-.74-2.84-1.64-.56-.68-.81-1.48-1.01-2.31v-20.22h6.64c1.19,0,2.38,.01,3.57,0,1.03-.02,1.73-.76,1.56-1.71-.07-.39-.33-.76-.56-1.1-.68-1-.7-2.33-.03-3.36,.65-1,1.89-1.53,3.05-1.31,2.22,.42,3.21,2.94,1.87,4.76-.44,.59-.71,1.19-.35,1.9,.36,.72,1.02,.83,1.75,.83,1.91-.01,3.82,0,5.73,0h1v4.69c-3.23-.66-5.42,.9-6.46,2.49-1.33,2.04-1.48,4.21-.25,6.32,1.49,2.57,3.83,3.44,6.75,2.94v7.8Z"/><path class="cls-5" d="M76.14,49.33h-.58c-3.17,0-6.34,0-9.5,0-1.12,0-1.86,.76-1.66,1.76,.07,.34,.29,.67,.5,.97,1.3,1.82,.33,4.31-1.86,4.74-1.18,.24-2.44-.3-3.09-1.32-.67-1.05-.63-2.36,.05-3.36,.23-.34,.49-.71,.55-1.1,.15-.96-.56-1.68-1.59-1.69-2.11-.01-4.22,0-6.34,0h-.68v-4.68c2.75,.5,5.02-.29,6.55-2.66,1.37-2.12,1.36-4.37-.03-6.49-1.53-2.34-3.79-3.11-6.53-2.61v-7.78c.16,0,.32-.02,.48-.02,6.32,0,12.64,0,18.96,0,2.31,0,3.99,1.23,4.6,3.37,.11,.4,.17,.82,.17,1.24,.01,6.45,0,12.9,0,19.35,0,.07,0,.13-.02,.27"/></g></g></svg>