<?xml version="1.0" encoding="UTF-8"?><svg id="Ebene_2" xmlns="http://www.w3.org/2000/svg" xmlns:xlink="http://www.w3.org/1999/xlink" viewBox="0 0 67.35 67.35"><defs><style>.cls-1{fill:none;}.cls-2{clip-path:url(#clippath);}.cls-3{fill:#00358e;}.cls-4{fill:#2a7de1;}</style><clipPath id="clippath"><rect class="cls-1" width="67.35" height="67.35"/></clipPath></defs><g id="Ebene_1-2"><g class="cls-2"><path class="cls-4" d="M22.46,51.64c-3.65,5.05-.28,11.51,5.61,11.79v-2.81c-3.37-1.68-3.93-4.77,.84-7.3-1.68-.28-3.93-1.12-6.45-1.68m-6.45-12.07c-.28,7.84,9.23,9.82,14.84,11.22v-5.89c-3.09-.56-8.95-1.97-9.23-5.05-.28-1.4,1.4-3.37,3.65-3.37,1.68,0,2.81-1.4,2.81-2.81,0-1.68-1.12-2.81-2.81-2.81-5.05,0-9.26,3.93-9.26,8.7"/><path class="cls-4" d="M45.47,47.71c3.09-1.4,5.61-4.49,5.61-8.14,0-4.77-4.21-8.7-9.26-8.7-1.68,0-2.81,1.12-2.81,2.81,0,1.4,1.4,2.81,2.81,2.81,2.53,0,3.93,1.96,3.93,3.37-.28,2.81-3.93,3.65-6.45,4.49,2.81,.84,5.05,1.96,6.17,3.37m-8.98,4.77c7.02,2.53,6.45,6.45,2.81,8.14v2.81c6.45-.28,9.82-8.14,4.21-13.47-1.68-1.68-4.77-2.52-7.02-3.37v5.89Z"/><path class="cls-3" d="M67.35,13.75c-1.4-.28-2.81-.28-4.21-.56-5.05-1.4-8.42-7.86-14.59-7.86-5.61,.28-7.58,5.33-10.94,6.74-.28,0-.84,.28-1.12,.28v-1.97c1.68-.84,2.81-2.81,2.81-4.77C39.29,2.53,36.76,0,33.68,0s-5.61,2.53-5.61,5.61c0,1.96,1.12,3.93,2.81,4.77v2.25c-.56,0-.84-.28-1.12-.28-3.37-1.4-5.05-6.45-10.94-6.73-6.17,0-9.54,6.45-14.59,7.58C2.81,13.75,1.4,13.75,0,13.75c.56,3.93,2.81,7.3,6.17,9.54,3.37-1.4,5.89-3.37,8.42-5.89-.84,2.81-2.25,5.89-4.21,8.14,1.97,.84,4.21,1.4,6.17,1.96,2.81-2.25,5.05-4.77,7.3-8.42,0,3.37-.84,6.17-1.97,8.98,3.09,0,6.17-.28,8.98-.84v37.32c0,1.68,1.12,2.81,2.81,2.81s2.68-1.02,2.79-2.57V30h.02v-2.78c2.81,.56,5.89,.84,9.26,.84-1.4-3.09-1.96-5.89-1.96-8.98,1.96,3.37,4.21,5.89,7.02,8.14,1.96-.56,4.21-1.12,6.17-1.96-1.96-2.24-3.65-5.05-4.21-8.14,2.53,2.53,5.33,4.49,8.42,5.89,3.37-2.24,5.61-5.33,6.17-9.26"/></g></g></svg>