<?xml version="1.0" encoding="UTF-8"?><svg id="Ebene_2" xmlns="http://www.w3.org/2000/svg" xmlns:xlink="http://www.w3.org/1999/xlink" viewBox="0 0 72.76 59.69"><defs><style>.cls-1{fill:none;}.cls-2{clip-path:url(#clippath);}.cls-3{fill:#00358e;}.cls-4{fill:#2a7de1;}.cls-5{clip-path:url(#clippath-1);}</style><clipPath id="clippath"><rect class="cls-1" width="72.76" height="59.69"/></clipPath><clipPath id="clippath-1"><rect class="cls-1" width="72.76" height="59.69"/></clipPath></defs><g id="Ebene_1-2"><g class="cls-2"><path class="cls-3" d="M66.85,43.27c.5-7.99-4.72-13.89-11.47-13.93-12.8-.08-25.6-.07-38.4,.01-5.52,.03-10.25,4.36-11.16,9.89-.99,6.05,2.06,11.87,7.21,13.93,4.66,1.87,8.58,.5,12.36-2.38,7.21-5.5,14.7-5.35,21.71,.25,3.84,3.07,8.09,4.1,12.65,2.01,4.58-2.1,6.88-5.9,7.09-9.78m-10.09-19.44c6.68,.33,11.35,4.2,14.11,10.07,2.85,6.06,2.53,12.28-1.31,17.84-6.53,9.44-16.86,10.5-26.45,2.99-4.43-3.47-9.06-3.48-13.52,.09-6.31,5.06-13.17,6.05-20.43,2.51C2.26,53.98-1.23,45.78,.39,37.62c1.46-7.34,7.98-13.44,15.38-13.75,7.12-.3,34.48-.35,40.99-.03"/><path class="cls-4" d="M36.3,20.64c-.23-5.4-1.66-6.12-10.45-8.14-3.03-.7-5.24-2.19-6.56-4.42C17.14,4.43,18.32,.18,18.37,0l3.85,1.1s-.76,2.82,.53,4.97c.74,1.24,2.08,2.09,4,2.53,8.89,2.05,13.19,3.4,13.55,11.86l-4,.17Z"/></g><rect class="cls-4" x="16" y="32.95" width="5" height="17"/><rect class="cls-4" x="10" y="38.95" width="17" height="5"/><g class="cls-5"><path class="cls-4" d="M54.5,38c1.38,0,2.5-1.12,2.5-2.5s-1.12-2.5-2.5-2.5-2.5,1.12-2.5,2.5,1.12,2.5,2.5,2.5"/><path class="cls-4" d="M54.5,50c1.38,0,2.5-1.12,2.5-2.5s-1.12-2.5-2.5-2.5-2.5,1.12-2.5,2.5,1.12,2.5,2.5,2.5"/><path class="cls-4" d="M51,41.5c0-1.38-1.12-2.5-2.5-2.5s-2.5,1.12-2.5,2.5,1.12,2.5,2.5,2.5,2.5-1.12,2.5-2.5"/><path class="cls-4" d="M63,41.5c0-1.38-1.12-2.5-2.5-2.5s-2.5,1.12-2.5,2.5,1.12,2.5,2.5,2.5,2.5-1.12,2.5-2.5"/></g></g></svg>