<?xml version="1.0" encoding="UTF-8"?><svg id="Ebene_2" xmlns="http://www.w3.org/2000/svg" xmlns:xlink="http://www.w3.org/1999/xlink" viewBox="0 0 74.73 74.73"><defs><style>.cls-1{fill:none;}.cls-2{clip-path:url(#clippath);}.cls-3{fill:#00358e;}.cls-4{fill:#2a7de1;}</style><clipPath id="clippath"><rect class="cls-1" width="74.73" height="74.73"/></clipPath></defs><g id="Ebene_1-2"><g class="cls-2"><path class="cls-3" d="M19.2,37.38c0,4.68,0,9.37,0,14.05,.01,3.79,.81,4.62,4.6,4.63,9.18,.02,18.36,.02,27.54,0,3.34,0,4.36-.8,4.39-4.02,.1-9.74,.04-19.48,.04-29.22,0-2.57-1.23-3.67-3.83-3.65-9.74,.06-19.48,.05-29.22,.01-2.5-.01-3.57,1.11-3.54,3.58,.06,4.87,.02,9.74,.01,14.61m18.17,24.34c-5.62,0-11.25,.02-16.87,0-5.05-.03-7.38-2.09-7.42-7.03-.11-11.44-.11-22.87,0-34.31,.05-5.14,2.38-7.3,7.53-7.33,11.06-.06,22.12-.07,33.18,0,5.91,.04,7.92,2.17,7.93,8.01,.01,10.97,.02,21.94,0,32.9,0,5.8-1.97,7.75-7.76,7.76-5.53,.01-11.06,0-16.59,0"/></g><rect class="cls-4" x="22.86" y="0" width="3" height="8.78"/><rect class="cls-4" x="29.36" y="0" width="3" height="8.78"/><rect class="cls-4" x="35.86" y="0" width="3" height="8.78"/><rect class="cls-4" x="42.36" y="0" width="3" height="8.78"/><rect class="cls-4" x="48.86" y="0" width="3" height="8.78"/><rect class="cls-4" x="22.86" y="65.95" width="3" height="8.78"/><rect class="cls-4" x="29.36" y="65.95" width="3" height="8.78"/><rect class="cls-4" x="35.86" y="65.95" width="3" height="8.78"/><rect class="cls-4" x="42.36" y="65.95" width="3" height="8.78"/><rect class="cls-4" x="48.86" y="65.95" width="3" height="8.78"/><rect class="cls-4" y="49.12" width="8.78" height="3"/><rect class="cls-4" y="42.62" width="8.78" height="3"/><rect class="cls-4" y="36.12" width="8.78" height="3"/><rect class="cls-4" y="29.62" width="8.78" height="3"/><rect class="cls-4" y="23.12" width="8.78" height="3"/><rect class="cls-4" x="65.94" y="49.12" width="8.78" height="3"/><rect class="cls-4" x="65.94" y="42.62" width="8.78" height="3"/><rect class="cls-4" x="65.94" y="36.12" width="8.78" height="3"/><rect class="cls-4" x="65.94" y="29.62" width="8.78" height="3"/><rect class="cls-4" x="65.94" y="23.12" width="8.78" height="3"/></g></svg>