<?xml version="1.0" encoding="UTF-8"?><svg id="Ebene_2" xmlns="http://www.w3.org/2000/svg" xmlns:xlink="http://www.w3.org/1999/xlink" viewBox="0 0 100.81 101.69"><defs><style>.cls-1{fill:none;}.cls-2{clip-path:url(#clippath);}.cls-3{fill:#00358e;}.cls-4{fill:#fff;}.cls-5{fill:#2a7de1;}</style><clipPath id="clippath"><rect class="cls-1" width="100.81" height="101.69"/></clipPath></defs><g id="Ebene_1-2"><g class="cls-2"><path class="cls-4" d="M50.4,101.69c27.84,0,50.4-22.76,50.4-50.84S78.24,0,50.4,0,0,22.76,0,50.84s22.57,50.84,50.4,50.84"/><path class="cls-5" d="M33.72,70.84c0,.55,.45,1,1,1h31.36c.55,0,1-.45,1-1V30.84c0-.55-.45-1-1-1h-31.36c-.55,0-1,.45-1,1v40Zm36.36,3c0,.55-.45,1-1,1H31.72c-.55,0-1-.45-1-1V27.84c0-.55,.45-1,1-1h37.36c.55,0,1,.45,1,1v46Z"/><path class="cls-3" d="M47.09,52.01c.23-.28,.45-.56,.67-.84,2.2-2.71,4.61-5.23,7.37-7.39,.58-.46,1.2-.88,1.81-1.3,.12-.08,.28-.12,.42-.13,.61-.01,1.22,0,1.84,0,.19,0,.36,.06,.43,.25,.08,.19,.02,.36-.14,.5-2.34,2.13-4.3,4.59-6.17,7.13-2.07,2.83-3.96,5.76-5.74,8.78-.07,.12-.19,.24-.32,.3-.19,.08-.35-.02-.45-.19-1.71-2.79-3.65-5.43-5.56-8.08-.17-.24-.16-.42,.06-.64,.37-.37,.74-.74,1.11-1.1,.24-.24,.39-.25,.67-.06,1.27,.88,2.54,1.77,3.8,2.65,.06,.04,.11,.08,.18,.12"/></g></g></svg>