<?xml version="1.0" encoding="UTF-8"?><svg id="Ebene_2" xmlns="http://www.w3.org/2000/svg" xmlns:xlink="http://www.w3.org/1999/xlink" viewBox="0 0 65.48 48.91"><defs><style>.cls-1{fill:none;}.cls-2{clip-path:url(#clippath);}.cls-3{fill:#00358e;}.cls-4{fill:#2a7de1;}</style><clipPath id="clippath"><rect class="cls-1" width="65.48" height="48.91"/></clipPath></defs><g id="Ebene_1-2"><g class="cls-2"><path class="cls-3" d="M61.1,48.8c-1.38-.82-2.64-1.57-4.01-2.38,3.99-8.07,4.47-16.22,1.18-24.43-2-4.98-5.31-9.05-9.79-12.08-10.52-7.11-23.64-6.61-33.44,1.5C6.47,18.5,1.31,31.39,8.43,46.38c-1.36,.8-2.74,1.61-4.11,2.42C-2.84,36.8-1.53,19.09,11.5,7.66c11.43-10.03,30.31-10.28,42.02-.37,13.31,11.26,14.99,28.93,7.57,41.5"/><path class="cls-4" d="M33.62,23h-1.1l-2.05,13.52c-2.42,.92-4.15,3.24-4.15,5.98,0,3.54,2.87,6.41,6.41,6.41s6.41-2.87,6.41-6.41c0-2.46-1.4-4.57-3.44-5.65l-2.09-13.85Z"/></g><rect class="cls-4" x="24.27" y="11.36" width="2.36" height="7" transform="translate(-3.71 10.62) rotate(-22)"/><rect class="cls-4" x="17.7" y="15.71" width="2.36" height="7" transform="translate(-8.05 18.98) rotate(-45)"/><rect class="cls-4" x="13.35" y="22.28" width="2.36" height="7" transform="translate(-14.81 29.6) rotate(-68)"/><rect class="cls-4" x="31.44" y="9.92" width="2.36" height="7"/><rect class="cls-4" x="36.52" y="13.68" width="7" height="2.36" transform="translate(11.25 46.4) rotate(-68)"/><rect class="cls-4" x="43.09" y="18.03" width="7" height="2.36" transform="translate(.06 38.57) rotate(-45)"/><rect class="cls-4" x="47.44" y="24.6" width="7" height="2.36" transform="translate(-5.95 20.96) rotate(-22)"/></g></svg>