<?xml version="1.0" encoding="UTF-8"?><svg id="Ebene_2" xmlns="http://www.w3.org/2000/svg" xmlns:xlink="http://www.w3.org/1999/xlink" viewBox="0 0 100.81 101.69"><defs><style>.cls-1{fill:none;}.cls-2{clip-path:url(#clippath);}.cls-3{fill:#00368f;}.cls-4{fill:#fff;}.cls-5{fill:#297de0;}</style><clipPath id="clippath"><rect class="cls-1" width="100.81" height="101.69"/></clipPath></defs><g id="Ebene_1-2"><g class="cls-2"><path class="cls-4" d="M50.4,101.69c27.84,0,50.4-22.76,50.4-50.84S78.24,0,50.4,0,0,22.76,0,50.84s22.57,50.84,50.4,50.84"/><path class="cls-5" d="M54.13,47.12h12.19l-.71-1.08c-1.95-2.98-4.56-6.94-5.88-8.86l-.2-.3h-5.4v10.25Zm9.55,11.06c1.69,0,3.3,.72,4.42,1.98l.15,.17,.28,.07h4.69v-5.12c0-1.25-.05-1.45-.92-2.19l-3.39-2.93h-17.81v-13.27H27.59v23.52h4.92l.15-.17c1.18-1.31,2.79-2.04,4.47-2.04s3.3,.72,4.42,1.98l.15,.17,.28,.07h17.06l.15-.17c1.18-1.32,2.79-2.04,4.48-2.04m-26.38,2.45c-1.9,0-3.44,1.55-3.44,3.45s1.55,3.44,3.44,3.44,3.45-1.54,3.45-3.44-1.54-3.45-3.45-3.45m26.59,0c-1.9,0-3.44,1.55-3.44,3.45s1.55,3.44,3.44,3.44,3.44-1.54,3.44-3.44-1.55-3.45-3.44-3.45m-.21,9.41c-3.27,0-5.93-2.66-5.93-5.93v-.7h-14.67v.7c0,3.27-2.66,5.93-5.94,5.93s-5.93-2.66-5.93-5.93v-.7h-5.12c-.83,0-1.51-.68-1.51-1.51v-26.54c0-.83,.68-1.51,1.51-1.51h27.24v-2.21h3.02v2.21h3.4c.85,0,1.65,.42,2.14,1.11,1.66,2.36,6.38,9.6,7.79,11.76l.1,.14c.09,.1,3.76,3.28,4.51,3.92,1.68,1.45,1.97,2.55,1.97,4.49v5.53c0,1.44-1.17,2.62-2.62,2.62h-4.02v.7c0,3.27-2.66,5.93-5.94,5.93"/></g><polygon class="cls-3" points="38.51 52.76 38.51 48.33 34.09 48.33 34.09 44.91 38.51 44.91 38.51 40.48 41.93 40.48 41.93 44.91 46.36 44.91 46.36 48.33 41.93 48.33 41.93 52.76 38.51 52.76"/></g></svg>