<?xml version="1.0" encoding="UTF-8"?><svg id="Ebene_2" xmlns="http://www.w3.org/2000/svg" xmlns:xlink="http://www.w3.org/1999/xlink" viewBox="0 0 53.5 50.83"><defs><style>.cls-1{fill:none;}.cls-2{clip-path:url(#clippath);}.cls-3{fill:#fff;}.cls-4{fill:#2a7de1;}</style><clipPath id="clippath"><rect class="cls-1" width="53.5" height="50.83"/></clipPath></defs><g id="Ebene_1-2"><rect class="cls-4" width="53.5" height="50.83"/><g class="cls-2"><path class="cls-3" d="M26.75,15.56c-5.44,0-9.86,4.42-9.86,9.86,0,2.32,.82,4.58,2.32,6.35,.35,.42,.75,.81,1.16,1.17,1.78,1.51,4.04,2.34,6.37,2.34s4.6-.83,6.37-2.34c.42-.35,.81-.75,1.16-1.17,1.5-1.77,2.32-4.03,2.32-6.35,0-5.43-4.42-9.86-9.86-9.86m0,21.12c-2.67,0-5.25-.95-7.28-2.67-.48-.4-.92-.85-1.33-1.33-1.71-2.03-2.65-4.6-2.65-7.26,0-3.01,1.17-5.84,3.3-7.97,2.13-2.13,4.96-3.3,7.97-3.3s5.84,1.17,7.97,3.3,3.3,4.96,3.3,7.97c0,2.66-.94,5.23-2.65,7.26-.4,.48-.85,.93-1.33,1.33-2.03,1.72-4.62,2.67-7.28,2.67Z"/><path class="cls-3" d="M26.75,18.37c-1.55,0-2.82,1.26-2.82,2.82s1.26,2.82,2.82,2.82,2.82-1.26,2.82-2.82-1.26-2.82-2.82-2.82m0,7.04c-2.33,0-4.22-1.89-4.22-4.22s1.9-4.22,4.22-4.22,4.22,1.9,4.22,4.22-1.9,4.22-4.22,4.22"/><path class="cls-3" d="M33.58,34.17c-.06,0-.11,0-.17-.02-.38-.09-.61-.48-.51-.85,.13-.5,.19-1.02,.19-1.55,0-3.44-2.8-6.29-6.24-6.34h-.19c-3.44,.05-6.24,2.89-6.24,6.34,0,.52,.06,1.05,.19,1.55,.09,.38-.13,.76-.51,.85-.38,.09-.76-.13-.85-.51-.15-.61-.23-1.25-.23-1.89,0-2.05,.79-3.98,2.23-5.44,1.44-1.46,3.36-2.28,5.4-2.3h.22c2.05,.03,3.96,.85,5.4,2.3,1.44,1.46,2.23,3.39,2.23,5.44,0,.64-.08,1.28-.23,1.89-.08,.32-.37,.53-.68,.53"/></g></g></svg>