<?xml version="1.0" encoding="UTF-8"?><svg id="Ebene_2" xmlns="http://www.w3.org/2000/svg" xmlns:xlink="http://www.w3.org/1999/xlink" viewBox="0 0 170 40.91"><defs><style>.cls-1{fill:none;}.cls-2{clip-path:url(#clippath);}.cls-3{fill:#2a7de1;}</style><clipPath id="clippath"><rect class="cls-1" width="170" height="40.91"/></clipPath></defs><g id="Ebene_1-2"><g class="cls-2"><path class="cls-3" d="M30.05,24.4c-.85-.08-1.47-.83-1.47-1.67V2.37c0-.87,.48-1.71,1.29-2.06,.93-.41,2.01-.12,2.61,.67l13.85,18.03c.13,.16,.39,.07,.39-.13V1.79c0-.84,.62-1.6,1.47-1.68,.97-.09,1.78,.66,1.78,1.61V22.15c0,.87-.48,1.7-1.28,2.06-.94,.41-2.01,.12-2.61-.67L32.22,5.52c-.13-.16-.39-.07-.39,.13V22.8c0,.94-.81,1.7-1.78,1.61"/><path class="cls-3" d="M141.52,24.57c-.9,0-1.62-.72-1.62-1.61V1.61c0-.89,.73-1.61,1.62-1.61s1.62,.72,1.62,1.61V22.96c0,.89-.73,1.61-1.62,1.61"/><path class="cls-3" d="M103.02,24.09h-12.5c-3.26,0-5.91-3.03-5.91-6.76V7.2c0-3.73,2.65-6.76,5.91-6.76h8.8c3.66,0,6.32,2.44,6.32,5.79s-1.96,5.61-5.98,6.9c-3.23,1.03-7.27,2.25-7.31,2.26-.86,.26-1.77-.22-2.03-1.08-.26-.85,.23-1.75,1.09-2.01,.04-.01,4.05-1.22,7.25-2.24,3.44-1.1,3.73-2.55,3.73-3.83,0-1.56-1.21-2.56-3.07-2.56h-8.8c-1.44,0-2.67,1.62-2.67,3.53v10.13c0,1.92,1.22,3.53,2.67,3.53h12.5c.9,0,1.62,.72,1.62,1.61s-.73,1.61-1.62,1.61"/><path class="cls-3" d="M80.19,3.66h-8.26c-.9,0-1.62-.72-1.62-1.61s.73-1.61,1.62-1.61h8.26c.9,0,1.62,.72,1.62,1.61s-.73,1.61-1.62,1.61"/><path class="cls-3" d="M163.27,24.09h-12.12c-.9,0-1.62-.72-1.62-1.61s.73-1.61,1.62-1.61h12.12c3.14,0,3.48-1.83,3.48-2.62,0-1.22-.34-2.58-2.85-3.35h0c-.23-.07-.53-.16-.92-.29-1.51-.48-4.66-1.48-7.95-2.46-4.42-1.32-5.35-4.16-5.35-6.31,0-2.6,2.03-5.41,6.49-5.41h11.07c.9,0,1.62,.72,1.62,1.61s-.73,1.61-1.62,1.61h-11.07c-2.39,0-3.24,1.13-3.24,2.18,0,1.15,.36,2.43,3.04,3.22,3.31,.99,6.48,1.99,8,2.47,.24,.08,.44,.14,.59,.18l.3,.09c4.25,1.3,5.14,4.21,5.14,6.43,0,2.91-2.08,5.85-6.73,5.85"/><path class="cls-3" d="M20.52,24.4c-.66,0-1.28-.4-1.52-1.04L11.54,3.7c-.11-.24-.26-.37-.46-.37h0c-.1,0-.34,.04-.49,.38L3.15,23.36c-.32,.83-1.25,1.25-2.09,.94-.84-.31-1.26-1.24-.95-2.08L7.59,2.47C8.22,1.01,9.55,.1,11.08,.1h.02c1.52,0,2.84,.92,3.45,2.38l.02,.05,7.46,19.69c.32,.83-.11,1.76-.95,2.08-.19,.07-.38,.1-.57,.1"/><path class="cls-3" d="M121.72,24.4h-.02c-1.52,0-2.85-.92-3.45-2.38l-.02-.05-7.46-19.69c-.32-.83,.11-1.76,.95-2.08,.84-.31,1.78,.11,2.09,.94l7.45,19.66c.11,.24,.26,.37,.46,.37h0c.1,0,.34-.04,.49-.38l7.45-19.65c.32-.83,1.25-1.26,2.09-.94,.84,.31,1.26,1.24,.95,2.08l-7.49,19.75c-.62,1.46-1.96,2.36-3.49,2.36"/><path class="cls-3" d="M67.84,24.42c-.9,0-1.62-.72-1.62-1.61V6.85c0-1.75-1.44-3.18-3.2-3.18h-6.88c-.9,0-1.62-.72-1.62-1.61s.73-1.61,1.62-1.61h6.88c3.56,0,6.45,2.87,6.45,6.41v15.96c0,.89-.73,1.61-1.62,1.61"/><path class="cls-3" d="M103.43,38.63c.2,0,.34-.03,.46-.09l-.1-.59c-.08,.02-.11,.02-.16,.02-.12,0-.23-.09-.23-.33v-5.92h-.79v5.86c0,.67,.24,1.05,.83,1.05m-4.2-.66c-.79,0-1.33-.71-1.33-1.77s.54-1.79,1.33-1.79,1.34,.72,1.34,1.79-.53,1.77-1.34,1.77m0,.66c1.14,0,2.16-.89,2.16-2.43s-1.02-2.44-2.16-2.44-2.15,.89-2.15,2.44,1.01,2.43,2.15,2.43m-5.03-.12h.79v-2.98c.32-.78,.78-1.06,1.17-1.06,.18,0,.29,.02,.42,.06l.17-.68c-.14-.07-.28-.1-.49-.1-.52,0-.99,.37-1.32,.95h-.03l-.07-.84h-.65v4.64Zm-1.78,.12c.32,0,.63-.09,.88-.2l-.16-.56c-.19,.09-.36,.11-.54,.11-.52,0-.72-.32-.72-.89v-2.58h1.26v-.64h-1.26v-1.49h-.66l-.1,1.49-.73,.05v.59h.69v2.56c0,.93,.33,1.56,1.33,1.56m-6.68-.12h.79v-3.36c.46-.47,.79-.71,1.26-.71,.61,0,.88,.36,.88,1.23v2.84h.79v-2.94c0-1.18-.44-1.81-1.42-1.81-.64,0-1.11,.34-1.55,.78h-.03l-.07-.67h-.65v4.64Zm-3.37-.54c-.79,0-1.33-.71-1.33-1.77s.53-1.79,1.33-1.79,1.34,.72,1.34,1.79-.54,1.77-1.34,1.77m0,.66c1.14,0,2.16-.89,2.16-2.43s-1.02-2.44-2.16-2.44-2.15,.89-2.15,2.44,1.01,2.43,2.15,2.43m-4.81,0c.8,0,1.41-.32,1.92-.91l-.44-.48c-.4,.44-.85,.68-1.45,.68-1.18,0-1.93-.98-1.93-2.56s.78-2.52,1.96-2.52c.54,0,.94,.22,1.28,.56l.44-.5c-.37-.41-.97-.77-1.73-.77-1.6,0-2.78,1.23-2.78,3.25s1.16,3.25,2.73,3.25m-6.57,2.27h.55v-9.55h-.55v9.55Zm-4.79-2.27c1.1,0,1.7-.63,1.7-1.38,0-.84-.7-1.16-1.42-1.41-.58-.2-.99-.37-.99-.79,0-.34,.26-.67,.85-.67,.41,0,.75,.13,1.07,.37l.36-.46c-.36-.3-.86-.52-1.44-.52-1.01,0-1.6,.57-1.6,1.32s.67,1.1,1.36,1.35c.53,.19,1.04,.39,1.04,.87,0,.4-.3,.72-.91,.72-.57,0-.99-.17-1.39-.51l-.36,.46c.43,.42,1.05,.67,1.73,.67m-4,0c1.1,0,1.7-.63,1.7-1.38,0-.84-.7-1.16-1.42-1.41-.58-.2-.98-.37-.98-.79,0-.34,.26-.67,.85-.67,.41,0,.74,.13,1.07,.37l.36-.46c-.36-.3-.86-.52-1.44-.52-1.01,0-1.6,.57-1.6,1.32s.67,1.1,1.37,1.35c.53,.19,1.04,.39,1.04,.87,0,.4-.3,.72-.91,.72-.57,0-.99-.17-1.39-.51l-.36,.46c.43,.42,1.05,.67,1.73,.67m-5.51-2.84c.1-.89,.67-1.4,1.32-1.4,.71,0,1.14,.49,1.14,1.4h-2.46Zm1.43,2.84c.64,0,1.14-.19,1.54-.48l-.28-.51c-.32,.22-.72,.34-1.16,.34-.88,0-1.46-.63-1.53-1.59h3.12c.03-.15,.04-.3,.04-.47,0-1.34-.68-2.18-1.86-2.18-1.06,0-2.08,.93-2.08,2.43s.97,2.43,2.22,2.43m-4.66,0c1.1,0,1.7-.63,1.7-1.38,0-.84-.7-1.16-1.42-1.41-.58-.2-.98-.37-.98-.79,0-.34,.26-.67,.85-.67,.41,0,.75,.13,1.07,.37l.36-.46c-.36-.3-.86-.52-1.44-.52-1.01,0-1.6,.57-1.6,1.32s.67,1.1,1.37,1.35c.53,.19,1.04,.39,1.04,.87,0,.4-.3,.72-.91,.72-.57,0-.99-.17-1.39-.51l-.36,.46c.43,.42,1.05,.67,1.73,.67m-4,0c1.1,0,1.7-.63,1.7-1.38,0-.84-.7-1.16-1.42-1.41-.58-.2-.99-.37-.99-.79,0-.34,.26-.67,.85-.67,.41,0,.75,.13,1.07,.37l.36-.46c-.36-.3-.86-.52-1.44-.52-1.01,0-1.6,.57-1.6,1.32s.67,1.1,1.37,1.35c.52,.19,1.04,.39,1.04,.87,0,.4-.3,.72-.91,.72-.57,0-.99-.17-1.39-.51l-.36,.46c.43,.42,1.05,.67,1.73,.67m-7.38-.12h.81l.6-1.9h2.28l.59,1.9h.85l-2.11-6.26h-.92l-2.11,6.26Zm1.92-3.49c.22-.7,.42-1.39,.61-2.11h.04c.2,.73,.4,1.41,.63,2.11l.3,.95h-1.87l.3-.95Zm-5.29,5.88h.55v-9.55h-.55v9.55Zm-6.3-5.11c.1-.89,.67-1.4,1.32-1.4,.71,0,1.14,.49,1.14,1.4h-2.46Zm1.43,2.84c.64,0,1.14-.19,1.54-.48l-.28-.51c-.32,.22-.72,.34-1.16,.34-.88,0-1.46-.63-1.53-1.59h3.12c.03-.15,.04-.3,.04-.47,0-1.34-.68-2.18-1.86-2.18-1.06,0-2.08,.93-2.08,2.43s.97,2.43,2.22,2.43m-6.32-.12h3.52v-.65h-2.52l2.43-3.57v-.42h-3.17v.64h2.17l-2.43,3.58v.42Zm-1.47-5.6c.3,0,.52-.2,.52-.51s-.22-.52-.52-.52-.53,.21-.53,.52,.22,.51,.53,.51m-.4,5.6h.79v-4.64h-.79v4.64Zm-1.61,.12c.2,0,.34-.03,.46-.09l-.11-.59c-.08,.02-.11,.02-.16,.02-.12,0-.23-.09-.23-.33v-5.92h-.79v5.86c0,.67,.24,1.05,.83,1.05m-4.35-.65c-.45,0-.8-.2-.8-.72,0-.6,.51-.95,2.07-1.14v1.26c-.45,.39-.82,.59-1.27,.59m-.22,.65c.58,0,1.09-.3,1.53-.67h.03l.08,.55h.65v-2.85c0-1.15-.49-1.9-1.61-1.9-.75,0-1.4,.32-1.82,.6l.3,.53c.36-.24,.85-.48,1.39-.48,.76,0,.95,.56,.96,1.15-1.99,.22-2.85,.72-2.85,1.75,0,.84,.58,1.32,1.35,1.32m-2.65,0c.32,0,.63-.09,.88-.2l-.16-.56c-.19,.09-.36,.11-.53,.11-.53,0-.72-.32-.72-.89v-2.58h1.26v-.64h-1.26v-1.49h-.66l-.1,1.49-.73,.05v.59h.69v2.56c0,.93,.33,1.56,1.33,1.56m-3.42-5.71c.31,0,.53-.2,.53-.51s-.22-.52-.53-.52-.52,.21-.52,.52,.22,.51,.52,.51m-.4,5.6h.79v-4.64h-.79v4.64Zm-3.14,1.59c-.84,0-1.35-.31-1.35-.8,0-.27,.14-.54,.48-.78,.2,.06,.42,.08,.6,.08h.79c.61,0,.94,.14,.94,.57,0,.48-.58,.94-1.46,.94m-.11-3.59c-.53,0-.98-.42-.98-1.1s.44-1.08,.98-1.08,.98,.41,.98,1.08-.45,1.1-.98,1.1m0,4.14c1.44,0,2.35-.74,2.35-1.61,0-.76-.54-1.11-1.62-1.11h-.9c-.62,0-.81-.21-.81-.5,0-.26,.12-.41,.3-.55,.21,.1,.46,.16,.69,.16,.95,0,1.7-.62,1.7-1.61,0-.39-.15-.74-.37-.95h.95v-.61h-1.61c-.17-.07-.4-.12-.66-.12-.95,0-1.75,.64-1.75,1.65,0,.55,.3,1,.6,1.25v.04c-.24,.16-.51,.47-.51,.86,0,.36,.18,.61,.41,.75v.04c-.42,.29-.68,.66-.68,1.05,0,.8,.78,1.25,1.92,1.25m-3.52-7.73c.31,0,.53-.2,.53-.51s-.22-.52-.53-.52-.52,.21-.52,.52,.22,.51,.52,.51m-.4,5.6h.79v-4.64h-.79v4.64Zm-5.01-.66v-4.95h.71c1.46,0,2.19,.87,2.19,2.44s-.73,2.5-2.19,2.5H.8Zm-.8,.66H1.6c1.89,0,2.92-1.16,2.92-3.16s-1.03-3.1-2.96-3.1H0v6.26Z"/></g></g></svg>