<?xml version="1.0" encoding="UTF-8"?><svg id="Ebene_2" xmlns="http://www.w3.org/2000/svg" xmlns:xlink="http://www.w3.org/1999/xlink" viewBox="0 0 53.5 50.83"><defs><style>.cls-1{fill:none;}.cls-2{clip-path:url(#clippath);}.cls-3{fill:#00358e;}.cls-4{fill:#fff;}</style><clipPath id="clippath"><rect class="cls-1" width="53.5" height="50.83"/></clipPath></defs><g id="Ebene_1-2"><rect class="cls-3" width="53.5" height="50.83"/><g class="cls-2"><path class="cls-4" d="M26.75,35.36c-5.49,0-9.95-4.45-9.95-9.95s4.45-9.95,9.95-9.95,9.95,4.45,9.95,9.95-4.45,9.95-9.95,9.95m0-21.32c-6.28,0-11.37,5.09-11.37,11.37s5.09,11.37,11.37,11.37,11.37-5.09,11.37-11.37-5.09-11.37-11.37-11.37"/><path class="cls-4" d="M27.46,30.81v-13.21h-1.42v13.21l-3.76-3.77-1.01,1.01,4.97,4.97c.28,.27,.72,.27,1,0l4.97-4.97-1-1-3.76,3.76Z"/></g></g></svg>