<?xml version="1.0" encoding="UTF-8"?><svg id="Ebene_2" xmlns="http://www.w3.org/2000/svg" xmlns:xlink="http://www.w3.org/1999/xlink" viewBox="0 0 21 21"><defs><style>.cls-1{fill:none;}.cls-2{clip-path:url(#clippath);}.cls-3{fill:#fff;}.cls-4{fill:#bd4830;}</style><clipPath id="clippath"><rect class="cls-1" width="21" height="21"/></clipPath></defs><g id="Ebene_1-2"><g class="cls-2"><path class="cls-4" d="M10.5,21c5.8,0,10.5-4.7,10.5-10.5S16.3,0,10.5,0,0,4.7,0,10.5s4.7,10.5,10.5,10.5"/><path class="cls-3" d="M8.19,16c-.3,0-.61-.11-.84-.33-.46-.44-.46-1.15,0-1.59l3.78-3.58-3.78-3.58c-.46-.44-.46-1.15,0-1.59,.46-.44,1.22-.44,1.68,0l4.62,4.38c.46,.44,.46,1.15,0,1.59l-4.62,4.38c-.23,.22-.54,.33-.84,.33"/></g></g></svg>