<?xml version="1.0" encoding="UTF-8"?><svg id="Ebene_2" xmlns="http://www.w3.org/2000/svg" xmlns:xlink="http://www.w3.org/1999/xlink" viewBox="0 0 181.9 40"><defs><style>.cls-1{fill:none;}.cls-2{clip-path:url(#clippath);}.cls-3{fill:#00358e;}.cls-4{fill:#2a7de1;}.cls-5{clip-path:url(#clippath-1);}.cls-6{clip-path:url(#clippath-3);}.cls-7{clip-path:url(#clippath-2);}</style><clipPath id="clippath"><rect class="cls-1" width="181.9" height="40"/></clipPath><clipPath id="clippath-1"><rect class="cls-1" width="181.9" height="40"/></clipPath><clipPath id="clippath-2"><rect class="cls-1" width="181.9" height="40"/></clipPath><clipPath id="clippath-3"><rect class="cls-1" width="181.9" height="40"/></clipPath></defs><g id="Ebene_1-2"><g class="cls-2"><path class="cls-3" d="M40.71,18.12c.06,.64,.09,1.28,.09,1.94,0,.65-.04,1.3-.1,1.94-.02,.16-.16,.29-.32,.29l-19.85-.05c-.23,0-.39-.24-.29-.45l1.1-2.49c.4-.91,1.31-1.5,2.3-1.5l16.75,.04c.16,0,.3,.12,.32,.29m-24.4,12.53l1.68-3.8c.05-.12,.17-.19,.29-.19l20.87,.05c.22,0,.38,.23,.3,.43-.44,1.14-.99,2.23-1.63,3.26-.29,.47-.81,.75-1.36,.75l-19.86-.05c-.23,0-.39-.24-.29-.45m-2.24,5.08c.05-.12,.17-.19,.29-.19l17.86,.05c.31,0,.44,.4,.19,.58-3.38,2.42-7.55,3.85-12.06,3.83-2.55,0-4.98-.47-7.22-1.32-.17-.06-.25-.26-.18-.43l1.12-2.52ZM8.58,4.41c-.31,0-.44-.4-.19-.58C11.77,1.41,15.94-.01,20.45,0c4.51,.01,8.66,1.46,12.03,3.89,.25,.18,.12,.58-.19,.58l-23.72-.06ZM2.98,9.59c.29-.47,.81-.75,1.36-.75l6.29,.02c.23,0,.39,.24,.29,.45l-1.68,3.8c-.05,.12-.17,.19-.29,.19l-7.3-.03c-.22,0-.38-.23-.3-.43,.44-1.14,.99-2.22,1.63-3.25"/><path class="cls-4" d="M39.47,12.89c-.44-1.14-.99-2.23-1.62-3.26-.29-.47-.81-.75-1.36-.75H17.51c-.95,0-1.82,.56-2.2,1.44l-6.3,14.37c-.03,.06-.09,.1-.15,.1s-.12-.03-.15-.1l-2.39-5.48c-.38-.88-1.24-1.44-2.2-1.44H.42c-.16,0-.3,.12-.32,.29C.03,18.7,0,19.34,0,20s.03,1.29,.1,1.92c.02,.16,.16,.29,.32,.29h1.84c.13,0,.24,.07,.29,.19,.5,1.13,3.14,7.1,4.84,10.94,.28,.64,.87,.95,1.46,.95s1.18-.32,1.46-.96L18.47,14.76c.38-.87,1.25-1.43,2.2-1.43h18.51c.22,0,.38-.22,.3-.43"/><path class="cls-3" d="M54.2,32.37h-.8c-1.12,0-1.78,.32-1.78,1.08s.62,1.1,1.58,1.1c.26,0,.68-.02,1-.1v-2.08Zm0-2.08c0-.86-.72-1.22-1.6-1.22-1.06,0-1.88,.32-2.58,.74v-2.08c.8-.46,1.86-.72,3-.72,2.04,0,3.56,.8,3.56,3.18v5.76c-.86,.2-2.22,.36-3.36,.36-2.26,0-4-.68-4-2.74,0-1.86,1.5-2.74,4-2.74h.98v-.54Z"/></g><polygon class="cls-3" points="65.42 36.13 60.96 24.25 63.68 24.25 66.98 33.57 70.24 24.25 72.94 24.25 68.48 36.13 65.42 36.13"/><g class="cls-5"><path class="cls-3" d="M74.96,30.89h3.62c-.02-1.1-.54-1.9-1.68-1.9-1.04,0-1.72,.74-1.94,1.9m-.02,1.44v.04c.18,1.26,1.42,1.9,2.62,1.9s2.1-.28,2.98-.8v2.04c-.82,.58-2.02,.82-3.22,.82-2.9,0-4.72-1.78-4.72-4.56,0-2.94,1.86-4.76,4.36-4.76,2.78,0,3.86,1.84,3.86,4.2v1.12h-5.88Z"/><path class="cls-3" d="M85.01,36.13h-2.4v-8.24c.98-.52,2.26-.82,3.56-.82,.7,0,1.2,.06,1.86,.24v2.32c-.58-.24-1.22-.3-1.8-.3-.44,0-.84,.08-1.22,.2v6.6Z"/><path class="cls-3" d="M91.63,36.13h-2.4v-8.92h2.4v8.92Zm-2.64-11.62c0-.8,.64-1.44,1.44-1.44s1.44,.64,1.44,1.44-.66,1.42-1.44,1.42-1.44-.64-1.44-1.42"/><path class="cls-3" d="M93.57,33.39c.84,.62,1.96,1,2.84,1,.74,0,1.24-.22,1.24-.78s-.38-.76-1.36-.96c-2.02-.36-2.86-1.16-2.86-2.78,0-1.96,1.48-2.86,3.4-2.86,1.06,0,1.84,.22,2.62,.66v2.14c-.84-.56-1.62-.86-2.54-.86-.8,0-1.14,.34-1.14,.76,0,.46,.32,.7,1.16,.9,2.3,.42,3.08,1.3,3.08,2.9,0,1.94-1.46,2.82-3.54,2.82-1.08,0-2.18-.26-2.9-.72v-2.22Z"/></g><path class="cls-3" d="M104.2,31.29l3.36-4.08h2.88l-3.52,4.04,3.6,4.88h-2.8l-3.52-4.84Zm-.1,4.84h-2.4v-13.6h2.4v13.6Z"/><g class="cls-7"><path class="cls-3" d="M119.48,29.17c-.72,0-1.26,.22-1.62,.46v4.44c.34,.12,.8,.2,1.24,.2,1.52,0,2.72-.84,2.72-2.76,0-1.42-1.04-2.34-2.34-2.34m-4.02-6.64h2.4v4.92c.44-.26,1.24-.44,2-.44,2.54,0,4.42,1.7,4.42,4.44,0,2.9-1.82,4.88-5.28,4.88-1.48,0-2.64-.3-3.54-.64v-13.16Z"/><path class="cls-3" d="M133.62,35.87c-1.02,.28-2.56,.46-3.68,.46-2.58,0-4.2-.8-4.2-3.44v-5.68h2.42v5.48c0,1.14,.5,1.66,1.76,1.66,.34,0,.84-.04,1.28-.12v-7.02h2.42v8.66Z"/><path class="cls-3" d="M135.59,33.39c.84,.62,1.96,1,2.84,1,.74,0,1.24-.22,1.24-.78s-.38-.76-1.36-.96c-2.02-.36-2.86-1.16-2.86-2.78,0-1.96,1.48-2.86,3.4-2.86,1.06,0,1.84,.22,2.62,.66v2.14c-.84-.56-1.62-.86-2.54-.86-.8,0-1.14,.34-1.14,.76,0,.46,.32,.7,1.16,.9,2.3,.42,3.08,1.3,3.08,2.9,0,1.94-1.46,2.82-3.54,2.82-1.08,0-2.18-.26-2.9-.72v-2.22Z"/><path class="cls-3" d="M146.11,36.13h-2.4v-8.92h2.4v8.92Zm-2.64-11.62c0-.8,.64-1.44,1.44-1.44s1.44,.64,1.44,1.44-.66,1.42-1.44,1.42-1.44-.64-1.44-1.42"/><path class="cls-3" d="M148.27,27.79c1.26-.48,2.92-.78,4.26-.78,2.32,0,3.82,.86,3.82,3.52v5.6h-2.42v-5.44c0-1-.54-1.52-1.58-1.52-.58,0-1.18,.1-1.68,.26v6.7h-2.4v-8.34Z"/><path class="cls-3" d="M160.25,30.89h3.62c-.02-1.1-.54-1.9-1.68-1.9-1.04,0-1.72,.74-1.94,1.9m-.02,1.44v.04c.18,1.26,1.42,1.9,2.62,1.9s2.1-.28,2.98-.8v2.04c-.82,.58-2.02,.82-3.22,.82-2.9,0-4.72-1.78-4.72-4.56,0-2.94,1.86-4.76,4.36-4.76,2.78,0,3.86,1.84,3.86,4.2v1.12h-5.88Z"/><path class="cls-3" d="M167.63,33.39c.84,.62,1.96,1,2.84,1,.74,0,1.24-.22,1.24-.78s-.38-.76-1.36-.96c-2.02-.36-2.86-1.16-2.86-2.78,0-1.96,1.48-2.86,3.4-2.86,1.06,0,1.84,.22,2.62,.66v2.14c-.84-.56-1.62-.86-2.54-.86-.8,0-1.14,.34-1.14,.76,0,.46,.32,.7,1.16,.9,2.3,.42,3.08,1.3,3.08,2.9,0,1.94-1.46,2.82-3.54,2.82-1.08,0-2.18-.26-2.9-.72v-2.22Z"/><path class="cls-3" d="M175.46,33.39c.84,.62,1.96,1,2.84,1,.74,0,1.24-.22,1.24-.78s-.38-.76-1.36-.96c-2.02-.36-2.86-1.16-2.86-2.78,0-1.96,1.48-2.86,3.4-2.86,1.06,0,1.84,.22,2.62,.66v2.14c-.84-.56-1.62-.86-2.54-.86-.8,0-1.14,.34-1.14,.76,0,.46,.32,.7,1.16,.9,2.3,.42,3.08,1.3,3.08,2.9,0,1.94-1.46,2.82-3.54,2.82-1.08,0-2.18-.26-2.9-.72v-2.22Z"/></g><path class="cls-3" d="M54.93,13.02h4.42l-2.2-6.05-2.23,6.05Zm5.35,2.57h-6.3l-1.15,3.15h-3.33l5.75-14.85h3.83l5.8,14.85h-3.45l-1.15-3.15Z"/><g class="cls-6"><path class="cls-3" d="M74.09,11.02c-.93-.75-1.83-1.02-2.85-1.02-1.85,0-3.17,1.15-3.17,3.15s1.28,3.2,3.3,3.2c1.05,0,1.98-.35,2.83-1v2.83c-1,.6-2.1,.82-3.25,.82-3.6,0-5.9-2.3-5.9-5.8s2.47-5.85,5.88-5.85c1.28,0,2.22,.25,3.18,.83v2.85Z"/><path class="cls-3" d="M74.97,7.59h1.67v-2.75h3v2.75h3.18v2.5h-3.18v4.48c0,1.27,.6,1.67,1.5,1.67,.75,0,1.4-.22,2.05-.62v2.75c-.8,.42-1.75,.62-2.88,.62-1.93,0-3.68-.92-3.68-3.62v-5.28h-1.67v-2.5Z"/><path class="cls-3" d="M87.95,18.74h-3V7.59h3v11.15Zm-3.3-14.52c0-1,.8-1.8,1.8-1.8s1.8,.8,1.8,1.8-.83,1.78-1.8,1.78-1.8-.8-1.8-1.78"/><path class="cls-3" d="M90.47,8.32c1.57-.6,3.65-.97,5.32-.97,2.9,0,4.78,1.07,4.78,4.4v7h-3.03v-6.8c0-1.25-.68-1.9-1.97-1.9-.72,0-1.47,.12-2.1,.33v8.38h-3V8.32Z"/><path class="cls-3" d="M105.25,12.19h4.53c-.03-1.38-.67-2.38-2.1-2.38-1.3,0-2.15,.92-2.43,2.38m-.02,1.8v.05c.22,1.57,1.77,2.38,3.27,2.38s2.62-.35,3.73-1v2.55c-1.03,.73-2.53,1.02-4.03,1.02-3.62,0-5.9-2.22-5.9-5.7,0-3.68,2.32-5.95,5.45-5.95,3.47,0,4.83,2.3,4.83,5.25v1.4h-7.35Z"/><path class="cls-3" d="M119.7,9.94c-1.62,0-2.8,1.23-2.8,3.23s1.18,3.22,2.8,3.22,2.8-1.22,2.8-3.22-1.17-3.23-2.8-3.23m0-2.6c3.32,0,5.85,2.35,5.85,5.83s-2.53,5.82-5.85,5.82-5.83-2.35-5.83-5.82,2.5-5.83,5.83-5.83"/></g></g></svg>