<?xml version="1.0" encoding="UTF-8"?><svg id="Ebene_2" xmlns="http://www.w3.org/2000/svg" xmlns:xlink="http://www.w3.org/1999/xlink" viewBox="0 0 165.54 40"><defs><style>.cls-1{fill:none;}.cls-2{clip-path:url(#clippath);}.cls-3{fill:#fff;}.cls-4{clip-path:url(#clippath-1);}.cls-5{clip-path:url(#clippath-3);}.cls-6{clip-path:url(#clippath-2);}</style><clipPath id="clippath"><rect class="cls-1" width="165.54" height="40"/></clipPath><clipPath id="clippath-1"><rect class="cls-1" width="165.54" height="40"/></clipPath><clipPath id="clippath-2"><rect class="cls-1" width="165.54" height="40"/></clipPath><clipPath id="clippath-3"><rect class="cls-1" width="165.54" height="40"/></clipPath></defs><g id="Ebene_1-2"><g class="cls-2"><path class="cls-3" d="M40.71,18.12c.06,.64,.09,1.28,.09,1.94,0,.65-.04,1.3-.1,1.94-.02,.16-.16,.29-.32,.29l-19.85-.05c-.23,0-.39-.24-.29-.45l1.1-2.49c.4-.91,1.31-1.5,2.3-1.5l16.75,.04c.16,0,.3,.12,.32,.29m-24.4,12.53l1.68-3.8c.05-.12,.17-.19,.29-.19l20.87,.05c.22,0,.38,.23,.3,.43-.44,1.14-.99,2.23-1.63,3.26-.29,.47-.81,.75-1.36,.75l-19.86-.05c-.23,0-.39-.24-.29-.45m-2.24,5.08c.05-.12,.17-.19,.29-.19l17.86,.05c.31,0,.44,.4,.19,.58-3.38,2.42-7.55,3.85-12.06,3.84-2.55,0-4.98-.48-7.22-1.32-.17-.07-.25-.26-.18-.43l1.12-2.52ZM8.58,4.41c-.31,0-.44-.4-.19-.58C11.77,1.41,15.94-.01,20.45,0c4.51,.01,8.66,1.46,12.03,3.89,.25,.18,.12,.58-.19,.58l-23.72-.06ZM2.98,9.59c.29-.47,.81-.75,1.36-.75l6.29,.02c.23,0,.39,.24,.29,.45l-1.68,3.8c-.05,.12-.17,.19-.29,.19l-7.3-.03c-.22,0-.38-.23-.3-.43,.44-1.14,.99-2.22,1.63-3.25"/><path class="cls-3" d="M39.47,12.89c-.44-1.14-.99-2.23-1.62-3.26-.29-.47-.81-.75-1.36-.75H17.51c-.95,0-1.82,.56-2.2,1.44l-6.3,14.37c-.03,.06-.09,.1-.15,.1s-.12-.03-.15-.1l-2.39-5.48c-.38-.88-1.24-1.44-2.2-1.44H.42c-.16,0-.3,.12-.32,.29C.04,18.69,0,19.34,0,20s.03,1.29,.1,1.92c.02,.16,.16,.29,.32,.29h1.84c.13,0,.24,.07,.29,.19,.5,1.13,3.14,7.1,4.84,10.94,.28,.64,.87,.95,1.46,.95s1.18-.32,1.46-.96L18.47,14.76c.38-.87,1.25-1.43,2.2-1.43h18.51c.22,0,.38-.22,.3-.43"/><path class="cls-3" d="M55.03,33.22h-.75c-1.23,0-2.03,.36-2.03,1.15s.75,1.14,1.81,1.14c.27,0,.64-.03,.96-.09v-2.2Zm0-1.83c0-.85-.64-1.24-1.51-1.24s-1.62,.27-2.28,.64v-1.53c.69-.39,1.58-.64,2.56-.64,1.72,0,2.95,.71,2.95,2.68v5.21c-.75,.2-1.81,.32-2.7,.32-2.04,0-3.54-.62-3.54-2.4,0-1.6,1.37-2.38,3.64-2.38h.87v-.66Z"/></g><polygon class="cls-3" points="64.97 36.67 60.95 26.11 62.93 26.11 66.09 34.83 69.24 26.11 71.17 26.11 67.16 36.67 64.97 36.67"/><g class="cls-4"><path class="cls-3" d="M72.74,31.99h3.77c-.04-1.23-.64-1.9-1.78-1.9-1.01,0-1.76,.71-1.99,1.9m-.05,1.14v.04c.11,1.4,1.31,2.17,2.54,2.17,1.08,0,1.87-.25,2.65-.76v1.55c-.71,.5-1.76,.73-2.77,.73-2.45,0-4.12-1.56-4.12-4.05s1.64-4.18,3.8-4.18c2.29,0,3.38,1.48,3.38,3.63v.89h-5.47Z"/><path class="cls-3" d="M81.59,36.67h-1.76v-7.22c.85-.48,1.96-.78,3.07-.78,.55,0,.98,.05,1.51,.19v1.71c-.5-.2-1.05-.25-1.51-.25-.53,0-.96,.11-1.31,.25v6.1Z"/><path class="cls-3" d="M87.33,36.67h-1.76v-7.88h1.76v7.88Zm-1.99-10.27c0-.6,.52-1.08,1.12-1.08s1.1,.48,1.1,1.08-.51,1.1-1.1,1.1-1.12-.5-1.12-1.1"/><path class="cls-3" d="M89.13,34.53c.73,.55,1.6,.89,2.4,.89s1.3-.27,1.3-.89-.46-.87-1.48-1.14c-1.63-.37-2.33-1.03-2.33-2.4,0-1.6,1.21-2.38,2.81-2.38,.89,0,1.6,.2,2.26,.6v1.62c-.69-.5-1.37-.8-2.2-.8-.76,0-1.17,.37-1.17,.89s.34,.78,1.25,1.03c1.79,.39,2.58,1.07,2.58,2.49,0,1.65-1.26,2.4-2.97,2.4-.92,0-1.85-.25-2.43-.64v-1.67Z"/></g><path class="cls-3" d="M98,32.4l3.32-3.61h2.17l-3.47,3.57,3.54,4.3h-2.1l-3.47-4.27Zm-.07,4.27h-1.76v-12.09h1.76v12.09Z"/><g class="cls-6"><path class="cls-3" d="M111.44,30.19c-.69,0-1.23,.18-1.58,.37v4.6c.34,.11,.78,.16,1.23,.16,1.62,0,2.77-.89,2.77-2.7,0-1.53-1.08-2.44-2.42-2.44m-3.34-5.62h1.76v4.43c.37-.2,1.1-.39,1.79-.39,2.28,0,3.98,1.46,3.98,3.98s-1.69,4.25-4.6,4.25c-1.14,0-2.13-.23-2.93-.52v-11.75Z"/><path class="cls-3" d="M123.79,36.49c-.92,.23-2.13,.36-3.06,.36-2.26,0-3.64-.73-3.64-2.93v-5.12h1.74v4.99c0,1.17,.71,1.6,1.87,1.6,.39,0,.89-.04,1.35-.11v-6.49h1.74v7.7Z"/><path class="cls-3" d="M125.63,34.53c.73,.55,1.6,.89,2.4,.89s1.3-.27,1.3-.89-.46-.87-1.48-1.14c-1.64-.37-2.33-1.03-2.33-2.4,0-1.6,1.21-2.38,2.81-2.38,.89,0,1.6,.2,2.26,.6v1.62c-.69-.5-1.37-.8-2.2-.8-.76,0-1.17,.37-1.17,.89s.34,.78,1.24,1.03c1.8,.39,2.58,1.07,2.58,2.49,0,1.65-1.26,2.4-2.97,2.4-.92,0-1.85-.25-2.43-.64v-1.67Z"/><path class="cls-3" d="M134.41,36.67h-1.76v-7.88h1.76v7.88Zm-1.99-10.27c0-.6,.51-1.08,1.12-1.08s1.1,.48,1.1,1.08-.51,1.1-1.1,1.1-1.12-.5-1.12-1.1"/><path class="cls-3" d="M136.45,29.29c1.1-.43,2.45-.68,3.61-.68,2.01,0,3.29,.77,3.29,2.99v5.07h-1.74v-4.91c0-1.14-.71-1.55-1.69-1.55-.62,0-1.24,.09-1.71,.23v6.22h-1.76v-7.38Z"/><path class="cls-3" d="M146.62,31.99h3.77c-.04-1.23-.64-1.9-1.78-1.9-1.01,0-1.76,.71-1.99,1.9m-.05,1.14v.04c.11,1.4,1.32,2.17,2.54,2.17,1.08,0,1.87-.25,2.65-.76v1.55c-.71,.5-1.76,.73-2.77,.73-2.45,0-4.12-1.56-4.12-4.05s1.63-4.18,3.8-4.18c2.29,0,3.38,1.48,3.38,3.63v.89h-5.47Z"/><path class="cls-3" d="M153.43,34.53c.73,.55,1.6,.89,2.4,.89s1.3-.27,1.3-.89-.46-.87-1.48-1.14c-1.64-.37-2.33-1.03-2.33-2.4,0-1.6,1.21-2.38,2.81-2.38,.89,0,1.6,.2,2.26,.6v1.62c-.69-.5-1.37-.8-2.2-.8-.76,0-1.17,.37-1.17,.89s.34,.78,1.24,1.03c1.8,.39,2.58,1.07,2.58,2.49,0,1.65-1.26,2.4-2.97,2.4-.92,0-1.85-.25-2.43-.64v-1.67Z"/><path class="cls-3" d="M160.13,34.53c.73,.55,1.6,.89,2.4,.89s1.3-.27,1.3-.89-.46-.87-1.48-1.14c-1.64-.37-2.33-1.03-2.33-2.4,0-1.6,1.21-2.38,2.81-2.38,.89,0,1.6,.2,2.26,.6v1.62c-.69-.5-1.37-.8-2.2-.8-.76,0-1.17,.37-1.17,.89s.34,.78,1.24,1.03c1.8,.39,2.58,1.07,2.58,2.49,0,1.65-1.26,2.4-2.97,2.4-.92,0-1.85-.25-2.43-.64v-1.67Z"/></g><path class="cls-3" d="M55.79,13.02h4.42l-2.2-6.05-2.23,6.05Zm5.35,2.57h-6.3l-1.15,3.15h-3.33l5.75-14.85h3.83l5.8,14.85h-3.45l-1.15-3.15Z"/><g class="cls-5"><path class="cls-3" d="M74.96,11.02c-.93-.75-1.83-1.02-2.85-1.02-1.85,0-3.17,1.15-3.17,3.15s1.28,3.2,3.3,3.2c1.05,0,1.98-.35,2.83-1v2.82c-1,.6-2.1,.83-3.25,.83-3.6,0-5.9-2.3-5.9-5.8s2.47-5.85,5.88-5.85c1.28,0,2.22,.25,3.18,.82v2.85Z"/><path class="cls-3" d="M75.86,7.59h1.67v-2.75h3v2.75h3.18v2.5h-3.18v4.48c0,1.27,.6,1.67,1.5,1.67,.75,0,1.4-.22,2.05-.62v2.75c-.8,.42-1.75,.62-2.88,.62-1.93,0-3.68-.92-3.68-3.62v-5.28h-1.67v-2.5Z"/><path class="cls-3" d="M88.86,18.74h-3V7.59h3v11.15Zm-3.3-14.52c0-1,.8-1.8,1.8-1.8s1.8,.8,1.8,1.8-.83,1.78-1.8,1.78-1.8-.8-1.8-1.78"/><path class="cls-3" d="M91.39,8.32c1.57-.6,3.65-.97,5.32-.97,2.9,0,4.78,1.07,4.78,4.4v7h-3.03v-6.8c0-1.25-.68-1.9-1.97-1.9-.72,0-1.47,.12-2.1,.33v8.38h-3V8.32Z"/><path class="cls-3" d="M106.18,12.19h4.53c-.03-1.38-.67-2.38-2.1-2.38-1.3,0-2.15,.92-2.43,2.38m-.02,1.8v.05c.22,1.57,1.77,2.38,3.27,2.38s2.62-.35,3.73-1v2.55c-1.03,.73-2.53,1.02-4.03,1.02-3.62,0-5.9-2.22-5.9-5.7,0-3.68,2.32-5.95,5.45-5.95,3.47,0,4.83,2.3,4.83,5.25v1.4h-7.35Z"/><path class="cls-3" d="M120.63,9.94c-1.62,0-2.8,1.23-2.8,3.23s1.18,3.22,2.8,3.22,2.8-1.22,2.8-3.22-1.17-3.23-2.8-3.23m0-2.6c3.32,0,5.85,2.35,5.85,5.83s-2.53,5.82-5.85,5.82-5.83-2.35-5.83-5.82,2.5-5.83,5.83-5.83"/><path class="cls-3" d="M129.05,7.36v.74h.42c.14,0,.25-.03,.33-.08,.08-.06,.12-.15,.12-.27,0-.14-.03-.24-.1-.3-.07-.06-.2-.09-.39-.09h-.39Zm0,1.25v1.1h-.67v-2.88h1.07c.36,0,.64,.07,.85,.22,.21,.15,.31,.37,.31,.66,0,.22-.06,.4-.18,.54-.12,.14-.28,.24-.48,.28,.04,.03,.08,.06,.1,.09,.03,.03,.05,.07,.09,.13l.52,.88v.07h-.71l-.53-1.1h-.38Zm-1.06,1.18c.39,.4,.87,.6,1.45,.6s1.06-.2,1.45-.6c.39-.4,.59-.9,.59-1.5s-.2-1.1-.59-1.5c-.39-.4-.87-.6-1.45-.6s-1.06,.2-1.45,.6c-.39,.4-.58,.9-.58,1.5s.19,1.1,.58,1.5m-.34-3.33c.48-.49,1.08-.73,1.79-.73s1.3,.24,1.78,.73c.48,.49,.72,1.1,.72,1.83s-.24,1.34-.72,1.83c-.48,.49-1.07,.73-1.78,.73s-1.31-.24-1.79-.73c-.48-.49-.72-1.1-.72-1.83s.24-1.35,.72-1.83"/></g></g></svg>