<?xml version="1.0" encoding="UTF-8"?><svg id="Ebene_2" xmlns="http://www.w3.org/2000/svg" xmlns:xlink="http://www.w3.org/1999/xlink" viewBox="0 0 166.24 40"><defs><style>.cls-1{fill:none;}.cls-2{clip-path:url(#clippath);}.cls-3{fill:#2a7de1;}</style><clipPath id="clippath"><rect class="cls-1" width="166.24" height="40"/></clipPath></defs><g id="Ebene_1-2"><g class="cls-2"><path class="cls-3" d="M29.39,23.86c-.83-.08-1.43-.81-1.43-1.64V2.32c0-.85,.47-1.67,1.26-2.02,.91-.4,1.96-.12,2.55,.65l13.55,17.63c.12,.16,.38,.07,.38-.13V1.75c0-.82,.61-1.56,1.43-1.64,.95-.09,1.74,.65,1.74,1.57V21.66c0,.85-.47,1.67-1.25,2.01-.92,.4-1.96,.12-2.55-.65L31.51,5.39c-.12-.16-.38-.07-.38,.13V22.29c0,.92-.8,1.66-1.74,1.57"/><path class="cls-3" d="M138.38,24.03c-.88,0-1.59-.71-1.59-1.58V1.58C136.79,.71,137.5,0,138.38,0s1.59,.71,1.59,1.58V22.45c0,.87-.71,1.58-1.59,1.58"/><path class="cls-3" d="M100.74,23.56h-12.23c-3.19,0-5.78-2.97-5.78-6.61V7.04c0-3.64,2.6-6.61,5.78-6.61h8.61c3.58,0,6.18,2.38,6.18,5.66s-1.91,5.48-5.85,6.74c-3.16,1.01-7.11,2.2-7.15,2.21-.84,.25-1.73-.22-1.98-1.05-.25-.83,.22-1.72,1.06-1.97,.04-.01,3.96-1.19,7.09-2.19,3.36-1.08,3.64-2.49,3.64-3.74,0-1.52-1.18-2.51-3-2.51h-8.61c-1.41,0-2.61,1.58-2.61,3.45v9.91c0,1.87,1.19,3.45,2.61,3.45h12.23c.88,0,1.59,.71,1.59,1.58s-.71,1.58-1.59,1.58"/><path class="cls-3" d="M78.41,3.58h-8.08c-.88,0-1.59-.71-1.59-1.58s.71-1.58,1.59-1.58h8.08c.88,0,1.59,.71,1.59,1.58s-.71,1.58-1.59,1.58"/><path class="cls-3" d="M159.66,23.56h-11.85c-.88,0-1.59-.71-1.59-1.58s.71-1.58,1.59-1.58h11.85c3.07,0,3.4-1.79,3.4-2.56,0-1.2-.33-2.52-2.78-3.27h0c-.23-.07-.51-.16-.9-.28-1.48-.47-4.56-1.44-7.77-2.4-4.32-1.29-5.23-4.07-5.23-6.17,0-2.55,1.98-5.29,6.34-5.29h10.82c.88,0,1.59,.71,1.59,1.58s-.71,1.58-1.59,1.58h-10.82c-2.33,0-3.16,1.1-3.16,2.14,0,1.12,.35,2.37,2.97,3.15,3.24,.97,6.34,1.95,7.82,2.42,.24,.07,.43,.14,.57,.18l.3,.09c4.15,1.27,5.02,4.12,5.02,6.29,0,2.85-2.03,5.72-6.58,5.72"/><path class="cls-3" d="M20.06,23.86c-.64,0-1.25-.39-1.49-1.02L11.29,3.62c-.1-.23-.26-.36-.45-.36h0c-.1,0-.33,.04-.48,.37L3.08,22.84c-.31,.82-1.23,1.23-2.05,.92-.82-.31-1.24-1.22-.93-2.03L7.43,2.41C8.04,.99,9.34,.1,10.84,.1h.02c1.49,0,2.78,.9,3.38,2.33l.02,.05,7.3,19.25c.31,.82-.11,1.73-.93,2.03-.18,.07-.37,.1-.56,.1"/><path class="cls-3" d="M119.03,23.86h-.02c-1.49,0-2.78-.9-3.38-2.32l-.02-.05-7.3-19.25c-.31-.82,.11-1.72,.93-2.03,.82-.31,1.74,.1,2.05,.92l7.29,19.22c.1,.23,.26,.36,.45,.36h0c.1,0,.33-.04,.48-.37L126.79,1.12c.31-.82,1.22-1.23,2.05-.92,.82,.31,1.24,1.22,.93,2.03l-7.32,19.32c-.61,1.43-1.92,2.31-3.41,2.31"/><path class="cls-3" d="M66.34,23.88c-.88,0-1.59-.71-1.59-1.58V6.69c0-1.72-1.4-3.11-3.13-3.11h-6.73c-.88,0-1.59-.71-1.59-1.58s.71-1.58,1.59-1.58h6.73c3.48,0,6.31,2.81,6.31,6.27v15.61c0,.87-.71,1.58-1.59,1.58"/><path class="cls-3" d="M101.14,37.78c.2,0,.34-.03,.45-.08l-.1-.58c-.07,.02-.11,.02-.16,.02-.12,0-.22-.08-.22-.33v-5.79h-.77v5.73c0,.65,.23,1.03,.81,1.03m-4.11-.64c-.78,0-1.3-.69-1.3-1.73s.52-1.75,1.3-1.75,1.31,.7,1.31,1.75-.52,1.73-1.31,1.73m0,.64c1.11,0,2.11-.87,2.11-2.37s-1-2.39-2.11-2.39-2.1,.87-2.1,2.39,.99,2.37,2.1,2.37m-4.92-.11h.77v-2.91c.31-.76,.76-1.04,1.15-1.04,.18,0,.28,.02,.41,.06l.17-.66c-.14-.07-.28-.09-.48-.09-.5,0-.97,.36-1.29,.93h-.03l-.07-.82h-.64v4.54Zm-1.74,.11c.31,0,.62-.08,.86-.2l-.16-.55c-.19,.08-.36,.11-.52,.11-.51,0-.7-.32-.7-.87v-2.52h1.23v-.62h-1.23v-1.46h-.64l-.09,1.46-.71,.05v.58h.67v2.5c0,.91,.33,1.52,1.3,1.52m-6.54-.11h.77v-3.29c.45-.46,.78-.69,1.23-.69,.6,0,.86,.36,.86,1.2v2.77h.77v-2.88c0-1.16-.43-1.77-1.39-1.77-.62,0-1.09,.34-1.52,.76h-.03l-.07-.65h-.64v4.54Zm-3.3-.53c-.78,0-1.3-.69-1.3-1.73s.52-1.75,1.3-1.75,1.31,.7,1.31,1.75-.52,1.73-1.31,1.73m0,.64c1.11,0,2.11-.87,2.11-2.37s-1-2.39-2.11-2.39-2.1,.87-2.1,2.39,.99,2.37,2.1,2.37m-4.71,0c.79,0,1.38-.32,1.88-.89l-.43-.47c-.39,.43-.83,.66-1.42,.66-1.16,0-1.89-.96-1.89-2.5s.77-2.47,1.91-2.47c.52,0,.93,.22,1.25,.55l.43-.49c-.36-.4-.94-.76-1.69-.76-1.56,0-2.72,1.2-2.72,3.18s1.14,3.17,2.67,3.17m-6.42,2.22h.54v-9.34h-.54v9.34Zm-4.69-2.22c1.08,0,1.66-.62,1.66-1.35,0-.82-.68-1.13-1.39-1.38-.57-.2-.96-.36-.96-.77,0-.34,.25-.65,.83-.65,.4,0,.73,.13,1.05,.36l.35-.45c-.35-.3-.84-.51-1.41-.51-.99,0-1.57,.56-1.57,1.29s.65,1.08,1.33,1.32c.51,.19,1.02,.38,1.02,.85,0,.39-.29,.7-.89,.7-.56,0-.97-.17-1.36-.49l-.35,.45c.42,.41,1.03,.65,1.69,.65m-3.91,0c1.08,0,1.66-.62,1.66-1.35,0-.82-.68-1.13-1.39-1.38-.57-.2-.96-.36-.96-.77,0-.34,.25-.65,.83-.65,.4,0,.73,.13,1.05,.36l.35-.45c-.35-.3-.84-.51-1.41-.51-.99,0-1.57,.56-1.57,1.29s.65,1.08,1.33,1.32c.51,.19,1.02,.38,1.02,.85,0,.39-.29,.7-.89,.7-.56,0-.97-.17-1.36-.49l-.35,.45c.42,.41,1.03,.65,1.69,.65m-5.39-2.77c.09-.87,.65-1.37,1.29-1.37,.69,0,1.11,.48,1.11,1.37h-2.4Zm1.4,2.77c.63,0,1.11-.19,1.5-.47l-.27-.5c-.32,.22-.7,.34-1.14,.34-.86,0-1.43-.62-1.49-1.55h3.05c.03-.15,.04-.29,.04-.46,0-1.31-.66-2.13-1.82-2.13-1.04,0-2.03,.9-2.03,2.38s.95,2.38,2.17,2.38m-4.56,0c1.07,0,1.66-.62,1.66-1.35,0-.82-.68-1.13-1.39-1.38-.57-.2-.96-.36-.96-.77,0-.34,.25-.65,.83-.65,.4,0,.73,.13,1.05,.36l.35-.45c-.35-.3-.84-.51-1.41-.51-.99,0-1.57,.56-1.57,1.29s.65,1.08,1.34,1.32c.51,.19,1.02,.38,1.02,.85,0,.39-.29,.7-.89,.7-.56,0-.97-.17-1.36-.49l-.35,.45c.42,.41,1.03,.65,1.69,.65m-3.91,0c1.07,0,1.66-.62,1.66-1.35,0-.82-.68-1.13-1.39-1.38-.57-.2-.96-.36-.96-.77,0-.34,.25-.65,.83-.65,.4,0,.73,.13,1.05,.36l.35-.45c-.35-.3-.84-.51-1.41-.51-.99,0-1.57,.56-1.57,1.29s.65,1.08,1.33,1.32c.51,.19,1.02,.38,1.02,.85,0,.39-.29,.7-.89,.7-.56,0-.97-.17-1.36-.49l-.35,.45c.42,.41,1.03,.65,1.69,.65m-7.22-.11h.79l.59-1.86h2.23l.58,1.86h.83l-2.06-6.12h-.9l-2.06,6.12Zm1.88-3.42c.21-.68,.41-1.36,.6-2.07h.04c.2,.71,.39,1.38,.62,2.07l.29,.92h-1.83l.29-.92Zm-5.17,5.75h.54v-9.34h-.54v9.34Zm-6.16-4.99c.09-.87,.65-1.37,1.29-1.37,.69,0,1.11,.48,1.11,1.37h-2.4Zm1.4,2.77c.63,0,1.11-.19,1.5-.47l-.27-.5c-.32,.22-.7,.34-1.14,.34-.86,0-1.43-.62-1.49-1.55h3.05c.03-.15,.04-.29,.04-.46,0-1.31-.66-2.13-1.82-2.13-1.04,0-2.04,.9-2.04,2.38s.95,2.38,2.17,2.38m-6.18-.11h3.44v-.63h-2.47l2.38-3.49v-.41h-3.1v.62h2.12l-2.38,3.5v.41Zm-1.44-5.47c.3,0,.51-.2,.51-.5s-.21-.5-.51-.5-.51,.2-.51,.5,.22,.5,.51,.5m-.39,5.47h.77v-4.54h-.77v4.54Zm-1.57,.11c.2,0,.34-.03,.45-.08l-.1-.58c-.08,.02-.11,.02-.16,.02-.12,0-.22-.08-.22-.33v-5.79h-.77v5.73c0,.65,.23,1.03,.81,1.03m-4.26-.63c-.44,0-.78-.2-.78-.7,0-.59,.5-.94,2.03-1.11v1.23c-.44,.38-.8,.58-1.24,.58m-.22,.63c.57,0,1.07-.29,1.5-.65h.03l.07,.54h.63v-2.79c0-1.12-.48-1.86-1.58-1.86-.73,0-1.36,.31-1.78,.59l.3,.52c.35-.23,.83-.47,1.35-.47,.74,0,.92,.55,.93,1.12-1.94,.21-2.78,.7-2.78,1.71,0,.82,.57,1.29,1.33,1.29m-2.59,0c.31,0,.62-.08,.86-.2l-.16-.55c-.19,.08-.35,.11-.52,.11-.51,0-.7-.32-.7-.87v-2.52h1.23v-.62h-1.23v-1.46h-.64l-.09,1.46-.71,.05v.58h.67v2.5c0,.91,.33,1.52,1.3,1.52m-3.34-5.58c.3,0,.51-.2,.51-.5s-.21-.5-.51-.5-.51,.2-.51,.5,.21,.5,.51,.5m-.39,5.47h.77v-4.54h-.77v4.54Zm-3.07,1.55c-.82,0-1.32-.3-1.32-.78,0-.26,.14-.53,.47-.77,.2,.06,.41,.08,.59,.08h.77c.6,0,.92,.14,.92,.56,0,.47-.57,.92-1.43,.92m-.11-3.51c-.52,0-.96-.41-.96-1.07s.43-1.06,.96-1.06,.96,.4,.96,1.06-.44,1.07-.96,1.07m0,4.05c1.41,0,2.3-.73,2.3-1.58,0-.75-.53-1.08-1.59-1.08h-.88c-.61,0-.79-.21-.79-.49,0-.25,.12-.4,.29-.54,.2,.1,.45,.16,.67,.16,.93,0,1.66-.61,1.66-1.58,0-.38-.15-.72-.36-.93h.92v-.6h-1.58c-.17-.07-.39-.11-.64-.11-.93,0-1.71,.62-1.71,1.62,0,.54,.29,.98,.59,1.22v.04c-.23,.16-.49,.46-.49,.84,0,.36,.18,.6,.4,.74v.04c-.41,.28-.66,.64-.66,1.03,0,.78,.77,1.22,1.88,1.22m-3.45-7.56c.3,0,.51-.2,.51-.5s-.22-.5-.51-.5-.51,.2-.51,.5,.21,.5,.51,.5m-.39,5.47h.77v-4.54h-.77v4.54Zm-4.89-.64v-4.84h.69c1.43,0,2.14,.85,2.14,2.39s-.71,2.45-2.14,2.45H.78Zm-.78,.64H1.57c1.85,0,2.86-1.14,2.86-3.09s-1.01-3.03-2.89-3.03H0v6.12Z"/></g></g></svg>